<svg width="234" height="234" viewBox="0 0 234 234" fill="none" xmlns="http://www.w3.org/2000/svg">
<path d="M197.115 94.9289C196.797 93.4615 196.481 91.9222 196.174 90.343L219.841 84.319L216.341 77.1285C213.4 71.0858 210.558 64.8993 207.895 58.7421C207.573 58.0018 206.812 56.2468 206.812 56.2441C205.512 53.2508 204.381 50.6462 203.197 47.7354C205.064 47.5836 206.931 47.5064 208.76 47.5064H209.061C209.296 47.5064 209.53 47.509 209.768 47.5143L218.495 47.6448L216.877 38.6887L216.654 37.2533C215.959 32.7845 215.175 27.7219 214.836 23.5301L214.089 14.2464L204.719 17.7617C203.842 18.0893 203.116 18.3556 202.606 18.5394C197.387 20.4222 185.47 24.2065 164.328 28.4036C163.534 28.5608 162.9 28.6859 162.559 28.7525L153.8 30.4596L157.317 38.0362C157.901 39.2932 158.431 40.5875 158.894 41.8845C159.027 42.252 159.161 42.6408 159.294 43.0349C155.013 39.7353 150.135 37.9004 145.133 37.7193C144.928 37.7113 144.661 37.706 144.343 37.706C142.592 37.706 140.745 37.9217 138.996 38.3292L133.786 35.5568L138.241 11.9641L117.883 28.2944L82.2094 10.5073L102.507 40.2892L91.3304 48.6755L90.8007 48.7634C90.4562 48.8193 90.132 48.8725 89.912 48.9098C89.4894 48.9817 89.0697 49.0536 88.6499 49.1229L80.4292 50.4651L85.1648 64.4599L78.319 67.693C77.5113 64.0764 76.7732 60.4253 76.1219 56.838C74.9004 50.1136 73.9162 43.256 73.1954 36.457L72.3444 28.4143L31.1855 39.0322L34.2046 46.0203C34.5577 46.8352 34.8877 47.6209 35.2061 48.4038L14.1592 53.6875L14.4081 54.1056C15.2476 55.5197 16.0002 56.9951 16.6515 58.4918C17.0394 59.3866 17.3983 60.3054 17.7225 61.2402C17.7688 61.3547 17.818 61.4719 17.8614 61.5917C17.9077 61.7169 17.9541 61.8554 18.0062 62.0098L19.083 65.2269C20.0527 68.1164 21.856 73.4986 22.2584 74.721C25.2572 83.8742 29.7931 97.7039 32.1378 114.743C32.2681 115.691 32.3665 116.463 32.4273 116.937L33.3999 124.724L66.0601 116.713C66.118 116.815 66.1759 116.913 66.2367 117.012C70.5034 124.093 78.0584 127.036 81.4568 127.603C83.2601 127.904 85.0345 127.936 85.7148 127.936H85.819C86.4037 127.931 87.3821 127.923 88.6181 127.747C89.1362 127.672 90.9859 127.369 92.989 126.564C98.2949 124.434 101.829 119.749 102.822 118.306C105.335 117.6 107.847 116.892 110.36 116.186C115.15 114.825 120.068 113.664 124.975 112.74C129.024 111.978 133.155 111.358 137.26 110.897L145.863 109.933L143.443 102.319C143.854 102.34 144.268 102.351 144.679 102.354H144.739C147.232 102.354 152.077 101.944 156.524 99.1899C157.621 98.5108 158.654 97.7172 159.598 96.8304C160.556 100.46 161.36 104.146 161.992 107.797L163.23 114.977L188.585 109.542L186.553 103.334L198.71 102.29L197.118 94.9263L197.115 94.9289Z" fill="white"/>
<path d="M194.701 95.3858C194.244 93.2687 193.792 91.0236 193.361 88.7067L216.414 82.8371L214.095 78.0754C211.14 72.0035 208.286 65.7877 205.608 59.6012C205.235 58.7357 204.876 57.9101 204.525 57.1085C202.855 53.2603 201.396 49.9047 199.799 45.8088C202.8 45.428 205.822 45.2362 208.792 45.2362H209.096C209.342 45.2362 209.585 45.2415 209.828 45.2442L215.574 45.3294L214.44 39.0497L214.211 37.5903C213.51 33.0843 212.72 27.9764 212.376 23.7127L211.881 17.5635L205.675 19.8911C204.783 20.224 204.045 20.493 203.53 20.6794C198.241 22.5862 186.185 26.4184 164.869 30.6502C164.067 30.81 163.424 30.9351 163.089 30.999L157.288 32.1282L159.618 37.1456C160.339 38.7648 160.886 40.1443 161.271 41.1776C162.226 43.9046 162.802 46.0325 163.031 47.0818C163.236 48.0219 163.384 48.9327 163.384 48.9327C163.465 49.42 163.523 49.8328 163.56 50.1364C163.367 49.91 163.08 49.5851 162.724 49.2016C160.211 46.5065 157.765 44.866 156.998 44.368C152.121 41.1989 147.301 40.091 145.055 40.0085C144.713 39.9951 144.363 39.9951 144.363 39.9951C142.731 39.9951 141.005 40.2082 139.379 40.6077C139.159 40.6609 138.93 40.7222 138.681 40.7941L131.062 36.7408L134.617 17.9257L118.236 31.063L89.3505 16.666L105.795 40.7941L92.4246 50.8261C92.1033 50.8821 91.6604 50.954 91.2523 51.0232C90.9165 51.0791 90.6039 51.1297 90.3897 51.167C89.9584 51.2416 89.53 51.3135 89.1016 51.3827L83.6567 52.2722L90.792 73.3563H88.4879C88.0855 72.5973 87.7237 71.8969 87.385 71.2311L85.2488 67.0074L76.5765 71.1033C75.4939 66.4907 74.5241 61.8276 73.6905 57.2257C72.4603 50.4506 71.4674 43.5398 70.7408 36.6902L70.1764 31.3639L34.5289 40.5571L36.5291 45.1856C37.2296 46.8101 37.8577 48.3468 38.4829 49.9659L17.876 55.1671L18.3131 55.9873C18.6286 56.5812 18.9094 57.1831 19.1496 57.7796C19.3059 58.1738 19.4101 58.472 19.6562 59.1911C19.7893 59.5852 19.9688 60.1045 20.2206 60.8316L20.4117 61.3802L21.3698 64.2377C22.3743 67.2284 24.2413 72.7997 24.6552 74.0647C27.6801 83.2898 32.2508 97.2314 34.6244 114.465C34.7575 115.423 34.856 116.204 34.9167 116.683L35.5622 121.839L67.4381 114.02C67.7449 114.686 68.0778 115.317 68.4309 115.908C71.9682 121.78 78.4377 124.776 81.9229 125.36C83.5728 125.634 85.2604 125.655 85.738 125.655H85.819C86.369 125.65 87.2027 125.644 88.265 125.493C88.5805 125.447 90.2478 125.186 92.0194 124.475C97.1226 122.425 100.524 117.431 100.894 116.869C101.653 115.719 102.541 114.126 103.549 111.037L105.002 115.33L109.648 114.009C114.514 112.627 119.51 111.447 124.497 110.51C128.613 109.735 132.814 109.104 136.979 108.638L142.676 107.998L141.066 102.931C140.713 101.82 140.386 100.693 140.085 99.5643C141.596 99.8999 143.142 100.073 144.699 100.078H144.76C146.968 100.078 151.258 99.7188 155.157 97.3033C157.409 95.9078 159.308 93.9983 160.73 91.7107C162.296 96.8692 163.552 102.164 164.464 107.45L165.283 112.206L185.458 107.881L183.314 101.33L195.752 100.262L194.698 95.3858H194.701Z" fill="#4F75F9"/>
<path d="M99.9906 50.9962L117.746 48.8177L125.4 58.1015C125.599 54.1281 125.799 50.1546 125.999 46.1839L136.388 44.9322L126.236 39.4781L129.779 26.3382L118.832 36.4261L99.0527 25.2969L112.316 41.8962L99.9877 50.9989L99.9906 50.9962Z" fill="white"/>
<path d="M68.916 79.2133C69.8307 78.7926 70.9278 78.2013 72.0654 77.3704C72.407 77.1201 72.7254 76.8698 73.0206 76.6194C71.5502 70.7499 70.207 64.6193 69.0463 58.2304C67.7321 50.992 66.7566 44.0305 66.0532 37.3887L41.2201 43.7935C43.119 48.1904 44.3376 51.6045 46.0802 56.6405C48.6217 63.9961 49.5653 68.337 51.0358 74.7872C48.6014 75.6447 46.7431 76.2359 44.3087 77.0961C41.8743 69.5381 40.1549 63.8017 39.5586 61.4795C39.2315 60.2011 38.9681 59.0267 38.9681 59.0267C38.5889 57.3383 38.3341 55.9428 38.172 54.9974C33.6043 56.1425 29.0394 57.2903 24.4717 58.4355C24.6801 58.8829 24.6917 58.9095 24.6917 58.9095C24.9146 59.4022 25.068 59.8549 25.2272 60.321C25.2503 60.3902 25.2619 60.4222 25.2619 60.4222C25.5224 61.2052 28.8918 71.2399 29.4794 73.0322C32.8054 83.1787 37.2428 96.9126 39.6165 114.164C39.7525 115.144 39.8538 115.943 39.9146 116.436C47.4696 114.583 55.0217 112.729 62.5768 110.875C60.6287 107.938 58.6024 104.436 56.7672 100.375C54.2257 94.7474 52.7437 89.565 51.855 85.2613C55.1491 84.3532 57.8614 83.7114 61.1555 82.8059C62.157 85.7913 63.0052 88.5317 63.723 90.9764C63.723 90.9764 65.4193 96.7475 65.6393 100.718C65.6827 101.483 65.6567 102.215 65.6567 102.215C65.6364 102.763 65.5901 103.232 65.5467 103.592C70.2852 102.22 75.0237 100.846 79.7594 99.4745C78.4452 95.6103 77.1658 91.5863 75.9442 87.4051C75.6113 86.995 75.2785 86.5849 74.9369 86.1748C72.9135 83.7273 70.8989 81.4078 68.9131 79.2107L68.916 79.2133Z" fill="white"/>
<path d="M193.813 43.1833C198.749 42.1953 203.936 41.6387 209.349 41.6627C209.612 41.6627 209.879 41.6653 210.139 41.6706C210.104 41.4576 210.058 41.162 210.026 40.9463C209.271 36.1153 208.562 31.2977 207.899 26.4961C207.821 25.753 207.751 25.0233 207.693 24.3149C206.776 24.6585 206.014 24.9355 205.487 25.1272C202.593 26.1712 190.447 30.4668 166.077 35.3057C165.266 35.4655 164.618 35.5934 164.279 35.6599C164.902 36.9995 165.512 38.4642 166.08 40.0541C166.835 42.166 167.715 44.941 168.126 46.7599C168.242 47.3458 168.381 47.9051 168.474 48.4643C168.581 48.4111 168.752 48.3258 168.96 48.2246C171.102 47.1887 172.891 46.6161 174.506 46.1314C178.443 44.949 182.382 43.9716 183.532 43.692C185.436 54.8692 186.872 65.6789 188.36 77.4686C188.696 80.1238 189.014 82.7683 189.321 85.3994C193.078 84.4434 196.838 83.4873 200.595 82.5286C203.67 81.7456 206.747 80.9627 209.821 80.1797C206.932 74.2409 204.063 68.0224 201.255 61.5297C198.425 54.9864 196.12 49.2659 193.813 43.186V43.1833Z" fill="white"/>
<path d="M170.463 56.6474L170.301 51.0947L166.839 56.0082L162.115 53.9736L165.155 58.1015L162.043 61.7366L166.903 60.3864L171.569 65.1268L170.765 59.734L177.622 57.0389L170.463 56.6474Z" fill="white"/>
<path d="M185.152 61.6474C183.216 61.7832 181.517 62.0096 180.104 62.2493C178.587 62.5049 177.262 62.7979 176.167 63.0722C174.943 63.3785 173.808 63.7087 172.769 64.0469C174.208 70.1375 175.646 76.2255 177.082 82.3161C175.904 82.5957 174.729 82.8727 173.551 83.1523C172.65 79.0564 171.75 74.9631 170.853 70.8672C169.57 71.0483 168.117 71.3199 166.546 71.7247C166.734 72.5077 166.957 73.2214 167.188 73.8526C165.645 74.1109 164.068 74.3985 162.453 74.7208C161.561 74.8992 160.684 75.083 159.821 75.2694C161.807 79.7648 163.77 84.854 165.498 90.4999C167.324 96.4653 168.575 102.026 169.437 107.022C172.778 106.306 176.118 105.589 179.459 104.873C177.771 99.7197 176.086 94.5692 174.399 89.416C176.222 88.7476 178.046 88.0818 179.87 87.4133C180.408 90.6996 180.946 93.9833 181.485 97.2696C184.35 97.0246 187.216 96.7769 190.082 96.5319C189.214 92.5212 188.417 88.3428 187.714 84.0018C186.44 76.1322 185.627 68.6541 185.152 61.6421V61.6474Z" fill="white"/>
<path d="M165.919 71.8843C165.864 70.6965 165.806 69.5087 165.751 68.321C165.682 66.827 165.609 65.3356 165.54 63.8416C158.856 66.8935 152.175 69.9428 145.492 72.9948C145.77 74.1266 146.047 75.2585 146.322 76.3876C148.716 76.1639 151.11 75.9402 153.504 75.7165C153.594 77.7245 153.417 79.5221 153.029 81.0055C152.879 81.4316 152.696 81.8444 152.476 82.2332C150.491 85.7086 148.103 84.6753 148.103 84.6753C148.103 84.6753 144.895 84.4356 142.281 74.7338C139.589 64.7311 140.837 55.8814 140.918 55.2662C141.242 52.8561 142.316 51.3541 143.367 51.3541C144.759 51.3541 146.14 54.47 146.812 58.3209C147.48 62.1718 147.298 64.0813 147.298 64.0813L150.795 62.8242C154.621 61.4527 158.448 60.0812 162.275 58.707C162.145 58.3315 161.916 57.7137 161.571 56.9733C159.027 51.5006 152.847 45.0398 145.023 44.7575C144.377 44.7335 142.788 44.7175 140.799 45.2076C130.769 47.6816 127.018 58.9893 126.373 61.0985C126.069 62.0945 125.846 63.0586 125.684 63.9934C126.242 65.522 126.841 67.0799 127.504 68.6698C129.965 74.574 132.735 79.7911 135.508 84.3185C134.148 84.5075 132.663 84.7845 131.085 85.1813C130.332 85.3704 129.617 85.5755 128.926 85.7885C129.719 87.3358 130.761 88.8139 132.188 90.2227C132.364 90.3984 132.619 90.6461 132.946 90.9444C133.132 90.8698 133.323 90.7952 133.505 90.7233C133.54 90.9896 133.574 91.256 133.612 91.5276C135.696 93.2746 139.592 95.8499 144.861 95.8632C145.868 95.8632 149.44 95.8019 152.589 93.8525C158.069 90.4623 160.304 82.9443 158.164 74.9708C158.561 74.8909 158.958 74.8111 159.354 74.7338C159.424 74.7205 159.493 74.7072 159.56 74.6912C161.702 74.2624 163.844 73.8337 165.989 73.4049C165.965 72.8963 165.939 72.3903 165.916 71.8816L165.919 71.8843Z" fill="white"/>
<path d="M135.037 99.0709C134.397 96.413 133.94 93.891 133.616 91.5368C133.578 91.2678 133.541 90.9989 133.509 90.7326C133.326 90.8071 133.138 90.8817 132.95 90.9536C130.678 91.8564 128.09 92.7512 125.195 93.5395C122.312 94.3251 119.62 94.8684 117.2 95.2492C113.362 72.0719 110.635 55.6483 110.424 54.4739C110.404 54.37 110.329 53.9519 110.268 53.3846C110.175 52.5324 110.169 51.8134 110.187 51.2808C104.293 53.1503 98.0466 54.7109 91.4526 55.8534C91.0068 55.9306 90.561 56.0052 90.1152 56.0771C92.4917 63.0971 94.8682 70.1198 97.2418 77.1399C99.5199 76.9881 101.839 76.8709 104.198 76.799C104.617 76.7857 105.034 76.775 105.451 76.7644C105.06 79.8616 104.696 83.0148 104.36 86.2159C104.03 89.3903 103.743 92.5142 103.488 95.6008C105.112 100.402 106.739 105.204 108.363 110.003C112.989 108.687 118.104 107.444 123.676 106.395C128.212 105.54 132.519 104.916 136.545 104.464C136.007 102.773 135.5 100.972 135.04 99.0682L135.037 99.0709Z" fill="white"/>
<path d="M125.39 66.5134C125.141 65.9622 124.892 65.4109 124.646 64.857C124.197 63.853 123.752 62.8463 123.306 61.8343C122.246 59.4242 121.216 57.03 120.209 54.6465C117.456 55.259 114.703 55.8689 111.95 56.4814C112.159 57.3043 112.442 58.4281 112.766 59.7624C113.756 63.821 114.118 65.6027 115.296 70.8783C115.296 70.8783 117.395 80.2792 118.269 85.7866C118.44 86.8652 118.507 87.9278 118.507 87.9278C118.515 88.0902 118.524 88.2181 118.524 88.2687C120.458 87.6694 122.388 87.0676 124.322 86.4684C125.749 86.0263 127.176 85.5815 128.603 85.1395C130.224 84.6361 131.842 84.1328 133.463 83.6295C130.725 78.0768 128.03 72.3697 125.39 66.5108V66.5134Z" fill="white"/>
<path d="M97.5557 78.0517C96.887 78.0623 96.2183 78.073 95.5497 78.081C95.5178 78.081 95.486 78.081 95.4541 78.081C95.9202 80.8107 96.2125 83.1782 96.4036 85.0664C96.5338 86.3473 96.7249 88.2542 96.8204 90.7921C96.887 92.5844 96.887 94.1237 96.8638 95.3168C94.7739 92.5658 92.6521 89.5697 90.5535 86.326C87.6328 81.8067 85.1839 77.4604 83.1258 73.3965C80.4194 74.6748 77.7129 75.9531 75.0035 77.2314C74.4564 77.4897 73.9093 77.7481 73.3622 78.0064C72.2565 78.5284 71.1536 79.0503 70.0479 79.5723C71.7702 81.3406 73.5156 83.1915 75.2785 85.1196C76.4276 86.3766 77.5797 87.6683 78.7405 88.9972C80.3354 90.8214 81.9362 92.7069 83.5398 94.6643C87.517 99.5192 91.063 104.246 94.2181 108.76C94.14 109.059 92.8374 113.727 89.3638 114.292C89.1062 114.334 88.5301 114.425 87.9425 114.254C85.6992 113.61 84.5905 109.554 84.9003 104.369C79.9938 104.654 75.0874 104.939 70.181 105.224C70.2447 105.897 70.3634 106.84 70.6065 107.945C70.841 109.019 71.4112 111.626 72.8441 114.004C75.7185 118.774 80.9201 120.88 82.9435 121.216C84.3619 121.453 85.925 121.44 85.925 121.44C86.4257 121.434 86.967 121.429 87.6647 121.33C87.6647 121.33 88.9354 121.149 90.2177 120.635C94.0531 119.093 96.8783 114.811 96.8783 114.811C97.7641 113.469 99.194 110.995 101.145 101.719C101.385 100.571 101.66 99.2636 101.944 97.7349C102.19 96.4114 102.442 94.9227 102.688 93.2289C102.792 92.5125 102.896 91.7615 102.995 90.9679C103.655 85.7588 103.904 81.3113 103.99 77.9478C101.843 77.9798 99.6948 78.0117 97.547 78.0437L97.5557 78.0517Z" fill="white"/>
<rect x="109.293" y="161.136" width="2" height="20" transform="rotate(-45 109.293 161.136)" fill="white"/>
<rect x="123.293" y="159.722" width="2" height="20" transform="rotate(45 123.293 159.722)" fill="white"/>
<path d="M23.4958 220.956V225.729H18.1051V220.956H15.335V233.066H18.1051V228.101H23.4958V233.066H26.249V220.956H23.4958Z" fill="white"/>
<path d="M37.9611 233.066H40.8497L35.5125 220.956H32.7932L27.5068 233.066H30.3277L31.3884 230.471H36.9004L37.9611 233.066ZM32.2572 228.344L34.1444 223.726L36.0316 228.344H32.2601H32.2572Z" fill="white"/>
<path d="M42.0908 233.066V220.956H44.3673L51.3885 229.675H50.2827V220.956H53.002V233.066H50.7256L43.7044 224.347H44.8102V233.066H42.0908Z" fill="white"/>
<path d="M58.7817 233.066V228.118L59.4107 229.814L54.1582 220.956H57.0976L61.1117 227.737H59.4276L63.4559 220.956H66.1414L60.9227 229.814L61.5518 228.118V233.066H58.7817Z" fill="white"/>
<path d="M75.4738 233.066H78.3624L73.0252 220.956H70.3059L65.0195 233.066H67.8404L68.9011 230.471H74.4131L75.4738 233.066ZM69.7727 228.344L71.6599 223.726L73.5471 228.344H69.7756H69.7727Z" fill="white"/>
<path d="M79.6035 233.066V220.956H81.8828L88.904 229.675H87.7982V220.956H90.5175V233.066H88.2411L81.2199 224.347H82.3257V233.066H79.6035Z" fill="white"/>
<path d="M116.54 233.272C114.851 233.272 113.53 232.792 112.58 231.836C111.629 230.88 111.152 229.506 111.152 227.718V220.953H113.922V227.65C113.922 228.792 114.154 229.619 114.619 230.132C115.085 230.646 115.731 230.902 116.557 230.902C117.384 230.902 118.047 230.646 118.512 230.132C118.978 229.619 119.209 228.792 119.209 227.65V220.953H121.911V227.718C121.911 229.506 121.435 230.877 120.484 231.836C119.53 232.792 118.216 233.272 116.54 233.272Z" fill="white"/>
<path d="M124.65 233.066V220.956H126.927L133.948 229.675H132.842V220.956H135.562V233.066H133.285L126.264 224.347H127.37V233.066H124.65Z" fill="white"/>
<path d="M141.155 220.956H138.385V233.066H141.155V220.956Z" fill="white"/>
<path d="M147.46 233.066L142.309 220.956H145.302L149.79 231.681H148.038L152.594 220.956H155.33L150.179 233.066H147.46Z" fill="white"/>
<path d="M156.741 233.204C156.287 233.204 155.9 233.046 155.576 232.728C155.252 232.412 155.091 232.011 155.091 231.526C155.091 231.041 155.252 230.609 155.576 230.299C155.898 229.989 156.287 229.831 156.741 229.831C157.195 229.831 157.596 229.986 157.915 230.299C158.23 230.609 158.391 231.021 158.391 231.526C158.391 232.031 158.233 232.412 157.915 232.728C157.596 233.044 157.206 233.204 156.741 233.204Z" fill="white"/>
<path d="M167.926 230.818V228.014H173.452V225.816H167.926V223.204H174.182V220.956H165.189V233.066H174.402V230.818H167.926Z" fill="white"/>
<path d="M187.134 233.066L184.482 229.171C184.482 229.171 184.493 229.168 184.499 229.165C185.269 228.824 185.864 228.33 186.285 227.678C186.705 227.027 186.914 226.245 186.914 225.334C186.914 224.423 186.705 223.656 186.285 222.998C185.864 222.341 185.269 221.836 184.499 221.484C183.729 221.131 182.809 220.956 181.746 220.956H176.595V233.066H179.365V229.675H181.746C181.788 229.675 181.825 229.67 181.864 229.67L184.174 233.066H187.134ZM179.365 223.238H181.591C182.428 223.238 183.063 223.419 183.495 223.783C183.926 224.146 184.141 224.663 184.141 225.331C184.141 226 183.926 226.519 183.495 226.888C183.063 227.258 182.428 227.441 181.591 227.441H179.365V223.238Z" fill="white"/>
<path d="M191.858 220.956H189.088V233.066H191.858V220.956Z" fill="white"/>
<path d="M200.358 233.272C199.441 233.272 198.586 233.12 197.799 232.812C197.012 232.508 196.33 232.07 195.751 231.506C195.173 230.942 194.722 230.279 194.4 229.517C194.079 228.756 193.915 227.921 193.915 227.01C193.915 226.098 194.076 225.263 194.4 224.502C194.722 223.74 195.176 223.077 195.76 222.513C196.344 221.949 197.029 221.512 197.816 221.207C198.603 220.902 199.455 220.75 200.375 220.75C201.407 220.75 202.341 220.931 203.179 221.294C204.017 221.658 204.719 222.191 205.286 222.894L203.5 224.555C203.103 224.081 202.654 223.726 202.149 223.483C201.644 223.241 201.097 223.12 200.51 223.12C199.955 223.12 199.444 223.215 198.981 223.404C198.519 223.593 198.115 223.861 197.774 224.208C197.433 224.555 197.17 224.964 196.984 225.436C196.798 225.909 196.705 226.434 196.705 227.01C196.705 227.585 196.798 228.113 196.984 228.584C197.17 229.058 197.436 229.467 197.774 229.811C198.113 230.155 198.516 230.426 198.981 230.615C199.447 230.804 199.957 230.9 200.51 230.9C201.1 230.9 201.647 230.775 202.149 230.527C202.654 230.279 203.103 229.918 203.5 229.447L205.286 231.108C204.719 231.814 204.017 232.35 203.179 232.716C202.341 233.086 201.399 233.269 200.358 233.269V233.272Z" fill="white"/>
<path d="M215.777 233.066H218.665L213.328 220.956H210.609L205.322 233.066H208.143L209.204 230.471H214.716L215.777 233.066ZM210.073 228.344L211.96 223.726L213.847 228.344H210.076H210.073Z" fill="white"/>
<path fill-rule="evenodd" clip-rule="evenodd" d="M103.88 226.809H99.8577V228.826H101.381V230.375C101.198 230.473 101.014 230.561 100.828 230.629C100.312 230.812 99.7815 230.905 99.2399 230.905C98.6983 230.905 98.1539 230.806 97.6856 230.612C97.2145 230.417 96.8083 230.143 96.4613 229.799C96.1144 229.452 95.8492 229.04 95.663 228.564C95.4768 228.084 95.3837 227.568 95.3837 227.015C95.3837 226.462 95.4768 225.915 95.663 225.441C95.8492 224.967 96.1172 224.558 96.4613 224.214C96.8055 223.867 97.2173 223.599 97.6941 223.41C98.1708 223.221 98.6898 223.125 99.2568 223.125C99.8689 223.125 100.43 223.238 100.941 223.463C101.451 223.689 101.928 224.036 102.368 224.51L104.12 222.848C103.542 222.169 102.831 221.65 101.987 221.291C101.144 220.933 100.193 220.755 99.1412 220.755C98.1877 220.755 97.3161 220.908 96.5234 221.212C95.7307 221.517 95.0396 221.954 94.45 222.518C93.8605 223.083 93.4035 223.746 93.0819 224.507C92.7603 225.269 92.5967 226.104 92.5967 227.015C92.5967 227.926 92.7575 228.761 93.0819 229.523C93.4035 230.284 93.8548 230.947 94.4331 231.511C95.0114 232.076 95.6969 232.513 96.4895 232.818C97.2822 233.122 98.1482 233.277 99.0904 233.277C99.9395 233.277 100.791 233.148 101.64 232.888C102.49 232.629 103.243 232.245 103.9 231.737V226.823H103.883V226.812L103.88 226.809Z" fill="white"/>
<path fill-rule="evenodd" clip-rule="evenodd" d="M42.5102 197.489H41.2324H34.0391L41.2324 201.983V206.654V209.85H50.8234V206.654H42.5102V197.489Z" fill="#E67800"/>
<path fill-rule="evenodd" clip-rule="evenodd" d="M93.2803 209.85H102.874V207.433H95.9658V204.88H102.073V202.46H95.9658V199.907H102.874V197.489H93.2803V209.85Z" fill="white"/>
<path fill-rule="evenodd" clip-rule="evenodd" d="M108.225 197.489H105.506V209.85H115.097V207.396H108.225V197.489Z" fill="white"/>
<path fill-rule="evenodd" clip-rule="evenodd" d="M133.911 199.14C133.324 198.57 132.627 198.116 131.823 197.78C131.016 197.444 130.136 197.278 129.177 197.278C128.218 197.278 127.332 197.444 126.52 197.78C125.707 198.116 125.011 198.575 124.424 199.157C123.837 199.74 123.38 200.417 123.047 201.188C122.717 201.958 122.551 202.787 122.551 203.67V203.704C122.551 204.587 122.714 205.413 123.039 206.186C123.363 206.956 123.82 207.628 124.407 208.2C124.994 208.77 125.69 209.224 126.494 209.56C127.298 209.896 128.181 210.062 129.14 210.062C130.1 210.062 130.985 209.896 131.795 209.56C132.607 209.224 133.304 208.765 133.891 208.181C134.478 207.597 134.935 206.92 135.267 206.15C135.597 205.379 135.764 204.55 135.764 203.667V203.63C135.764 202.748 135.6 201.921 135.276 201.148C134.949 200.378 134.494 199.707 133.908 199.134L133.911 199.14ZM132.96 203.707C132.96 204.243 132.867 204.75 132.681 205.221C132.494 205.693 132.235 206.107 131.905 206.465C131.575 206.824 131.174 207.103 130.709 207.309C130.241 207.512 129.73 207.614 129.177 207.614C128.624 207.614 128.099 207.509 127.637 207.3C127.174 207.092 126.771 206.81 126.43 206.449C126.088 206.09 125.823 205.673 125.637 205.193C125.451 204.717 125.358 204.209 125.358 203.67V203.633C125.358 203.097 125.451 202.592 125.637 202.118C125.823 201.647 126.08 201.233 126.413 200.874C126.743 200.516 127.138 200.237 127.6 200.034C128.063 199.831 128.576 199.729 129.14 199.729C129.705 199.729 130.204 199.834 130.672 200.042C131.14 200.251 131.547 200.536 131.888 200.894C132.229 201.252 132.494 201.67 132.681 202.147C132.867 202.623 132.96 203.131 132.96 203.67V203.707Z" fill="white"/>
<path d="M120.389 197.489H117.67V209.853H120.389V197.489Z" fill="white"/>
<path fill-rule="evenodd" clip-rule="evenodd" d="M91.3367 197.489H88.0503L83.0348 202.795V197.489H80.3154V209.85H83.0348V206.07L84.465 204.587L88.2986 209.85H91.5652L86.3014 202.733L91.3367 197.489Z" fill="white"/>
<path fill-rule="evenodd" clip-rule="evenodd" d="M146.423 205.21L140.649 197.622L140.545 197.489H137.927V198.429V209.85H140.649V202L146.423 209.582L146.626 209.85H147.837H149.143V197.489H146.423V205.21Z" fill="white"/>
<path d="M77.6979 197.489H74.9785V209.853H77.6979V197.489Z" fill="white"/>
<path fill-rule="evenodd" clip-rule="evenodd" d="M50.8232 201.983L58.0194 197.489H50.8232V201.983Z" fill="white"/>
<path fill-rule="evenodd" clip-rule="evenodd" d="M163.23 204.333C163.295 205.204 163.055 206.07 162.548 206.784C162.299 207.049 161.992 207.255 161.653 207.388C161.315 207.52 160.951 207.574 160.587 207.549H160.48C158.711 207.549 157.837 206.499 157.837 204.338V197.475H154.895V204.44C154.895 206.228 155.385 207.628 156.364 208.592C157.346 209.557 158.708 210.062 160.452 210.062H160.565C162.311 210.062 163.687 209.571 164.658 208.592C165.628 207.611 166.127 206.234 166.127 204.44V197.464H163.242L163.227 204.333H163.23Z" fill="white"/>
<path fill-rule="evenodd" clip-rule="evenodd" d="M176.24 205.001L170.505 197.467H167.913V209.707H170.683V201.924L176.61 209.707H179.016V197.467H176.24V205.001Z" fill="white"/>
<path d="M183.563 197.467H180.872V209.707H183.563V197.467Z" fill="white"/>
<path fill-rule="evenodd" clip-rule="evenodd" d="M195.482 197.475H195.436L191.707 206.104L188.034 197.475H187.986H184.926L190.207 209.707H192.999L198.294 197.475H195.482Z" fill="white"/>
<path fill-rule="evenodd" clip-rule="evenodd" d="M199.507 207.966C199.436 207.794 199.332 207.636 199.199 207.504C199.067 207.371 198.912 207.267 198.737 207.196C198.565 207.126 198.378 207.089 198.192 207.089C197.91 207.089 197.637 207.173 197.402 207.329C197.168 207.484 196.985 207.707 196.878 207.966C196.771 208.226 196.742 208.511 196.796 208.787C196.85 209.063 196.985 209.317 197.185 209.515C197.386 209.712 197.637 209.848 197.913 209.904C198.189 209.958 198.474 209.93 198.734 209.822C198.993 209.715 199.216 209.532 199.371 209.298C199.527 209.063 199.611 208.79 199.611 208.508C199.611 208.322 199.575 208.135 199.504 207.963L199.507 207.966Z" fill="white"/>
<path fill-rule="evenodd" clip-rule="evenodd" d="M65.5338 197.489H62.8145V209.85H72.4055V207.396H65.5338V197.489Z" fill="white"/>
</svg>
