<svg width="100%" height="100%" viewBox="0 0 16 12" fill="currentColor" xmlns="http://www.w3.org/2000/svg">
<path id="Vector" d="M5.71784 8.65782L14.0797 0.295994C14.277 0.0986648 14.5072 0 14.7703 0C15.0334 0 15.2636 0.0986648 15.461 0.295994C15.6583 0.493323 15.757 0.727816 15.757 0.999473C15.757 1.27113 15.6583 1.50529 15.461 1.70196L6.40849 10.7791C6.21116 10.9764 5.98095 11.0751 5.71784 11.0751C5.45473 11.0751 5.22452 10.9764 5.02719 10.7791L0.78461 6.53653C0.58728 6.3392 0.492562 6.10504 0.500455 5.83404C0.508349 5.56304 0.611288 5.32855 0.809275 5.13056C1.00726 4.93257 1.24176 4.83391 1.51275 4.83457C1.78375 4.83522 2.01792 4.93389 2.21525 5.13056L5.71784 8.65782Z" fill="currentColor"/>
</svg>
