<svg width="100%" height="100%" viewBox="0 0 23 22" fill="none" xmlns="http://www.w3.org/2000/svg">
<g id="Group">
<path id="Vector" fill-rule="evenodd" clip-rule="evenodd" d="M11.5 2C10.3181 2 9.14778 2.23279 8.05585 2.68508C6.96392 3.13738 5.97177 3.80031 5.13604 4.63604C4.30031 5.47177 3.63738 6.46392 3.18508 7.55585C2.73279 8.64778 2.5 9.8181 2.5 11C2.5 12.1819 2.73279 13.3522 3.18508 14.4442C3.63738 15.5361 4.30031 16.5282 5.13604 17.364C5.97177 18.1997 6.96392 18.8626 8.05585 19.3149C9.14778 19.7672 10.3181 20 11.5 20C13.8869 20 16.1761 19.0518 17.864 17.364C19.5518 15.6761 20.5 13.3869 20.5 11C20.5 8.61305 19.5518 6.32387 17.864 4.63604C16.1761 2.94821 13.8869 2 11.5 2ZM0.5 11C0.5 4.925 5.425 0 11.5 0C17.575 0 22.5 4.925 22.5 11C22.5 17.075 17.575 22 11.5 22C5.425 22 0.5 17.075 0.5 11Z" fill="#17171B"/>
</g>
</svg>
