<svg width="17" height="17" viewBox="0 0 17 17" fill="current" xmlns="http://www.w3.org/2000/svg">
<path fill-rule="evenodd" clip-rule="evenodd" d="M14.4998 8.52303C14.4998 9.31096 14.3446 10.0912 14.0431 10.8191C13.7416 11.5471 13.2996 12.2085 12.7425 12.7657C12.1853 13.3228 11.5239 13.7648 10.7959 14.0663C10.068 14.3678 9.28777 14.523 8.49984 14.523C7.71191 14.523 6.93169 14.3678 6.20374 14.0663C5.47578 13.7648 4.81435 13.3228 4.2572 12.7657C3.70004 12.2085 3.25809 11.5471 2.95656 10.8191C2.65503 10.0912 2.49984 9.31096 2.49984 8.52303C2.49984 6.93173 3.13198 5.40561 4.2572 4.28039C5.38241 3.15517 6.90854 2.52303 8.49984 2.52303C10.0911 2.52303 11.6173 3.15517 12.7425 4.28039C13.8677 5.40561 14.4998 6.93173 14.4998 8.52303ZM8.49984 15.8564C12.5498 15.8564 15.8332 12.573 15.8332 8.52303C15.8332 4.47303 12.5498 1.1897 8.49984 1.1897C4.44984 1.1897 1.1665 4.47303 1.1665 8.52303C1.1665 12.573 4.44984 15.8564 8.49984 15.8564ZM9.1665 4.52303V8.52303H7.83317V4.52303H9.1665Z" fill="current"/>
</svg>
