<svg width="18" height="16" viewBox="0 0 18 16" fill="none" xmlns="http://www.w3.org/2000/svg">
<path d="M0.666748 5.91662C0.666765 4.98929 0.948076 4.08377 1.47353 3.31967C1.99898 2.55557 2.74385 1.96883 3.60976 1.63695C4.47567 1.30507 5.42188 1.24366 6.32343 1.46082C7.22497 1.67799 8.03944 2.16352 8.65925 2.85329C8.7029 2.89996 8.75568 2.93718 8.81431 2.96262C8.87294 2.98806 8.93617 3.00119 9.00008 3.00119C9.06399 3.00119 9.12722 2.98806 9.18585 2.96262C9.24448 2.93718 9.29726 2.89996 9.34092 2.85329C9.95878 2.15904 10.7734 1.66943 11.6764 1.44962C12.5795 1.22982 13.528 1.29024 14.3958 1.62285C15.2636 1.95547 16.0096 2.5445 16.5343 3.31154C17.0591 4.07858 17.3378 4.98725 17.3334 5.91662C17.3334 7.82495 16.0834 9.24995 14.8334 10.5L10.2567 14.9275C10.1015 15.1058 9.91002 15.249 9.69512 15.3477C9.48022 15.4464 9.24678 15.4982 9.01032 15.4997C8.77386 15.5012 8.53979 15.4523 8.32365 15.3564C8.10752 15.2605 7.91427 15.1196 7.75675 14.9433L3.16675 10.5C1.91675 9.24995 0.666748 7.83329 0.666748 5.91662Z" stroke="#F893AD" stroke-linecap="round" stroke-linejoin="round"/>
</svg>
