<svg width="18" height="15" viewBox="0 0 18 15" fill="none" xmlns="http://www.w3.org/2000/svg">
<path d="M0.666626 4.91662C0.666643 3.98929 0.947954 3.08377 1.4734 2.31967C1.99885 1.55557 2.74372 0.968834 3.60963 0.636952C4.47554 0.305069 5.42176 0.243656 6.3233 0.460822C7.22485 0.677989 8.03931 1.16352 8.65913 1.85329C8.70278 1.89996 8.75556 1.93718 8.81419 1.96262C8.87282 1.98806 8.93605 2.00119 8.99996 2.00119C9.06387 2.00119 9.1271 1.98806 9.18573 1.96262C9.24436 1.93718 9.29714 1.89996 9.34079 1.85329C9.95866 1.15904 10.7733 0.669425 11.6763 0.44962C12.5793 0.229815 13.5279 0.290241 14.3957 0.622855C15.2635 0.955469 16.0094 1.5445 16.5342 2.31154C17.059 3.07858 17.3377 3.98725 17.3333 4.91662C17.3333 6.82495 16.0833 8.24995 14.8333 9.49995L10.2566 13.9275C10.1013 14.1058 9.9099 14.249 9.695 14.3477C9.4801 14.4464 9.24666 14.4982 9.0102 14.4997C8.77374 14.5012 8.53967 14.4523 8.32353 14.3564C8.1074 14.2605 7.91415 14.1196 7.75663 13.9433L3.16663 9.49995C1.91663 8.24995 0.666626 6.83329 0.666626 4.91662Z" fill="#FAFAFA"/>
</svg>
