<svg width="22" height="20" viewBox="0 0 22 20" fill="none" xmlns="http://www.w3.org/2000/svg">
<path d="M1 7.50004C1.00002 6.38724 1.33759 5.30062 1.96813 4.3837C2.59867 3.46678 3.49252 2.7627 4.53161 2.36444C5.5707 1.96618 6.70616 1.89248 7.78801 2.15308C8.86987 2.41368 9.84723 2.99632 10.591 3.82404C10.6434 3.88005 10.7067 3.92471 10.7771 3.95524C10.8474 3.98577 10.9233 4.00152 11 4.00152C11.0767 4.00152 11.1526 3.98577 11.2229 3.95524C11.2933 3.92471 11.3566 3.88005 11.409 3.82404C12.1504 2.99094 13.128 2.40341 14.2116 2.13964C15.2952 1.87588 16.4335 1.94839 17.4749 2.34752C18.5163 2.74666 19.4114 3.45349 20.0411 4.37394C20.6708 5.29439 21.0053 6.3848 21 7.50004C21 9.79004 19.5 11.5 18 13L12.508 18.313C12.3217 18.527 12.0919 18.699 11.834 18.8173C11.5762 18.9357 11.296 18.9979 11.0123 18.9997C10.7285 19.0015 10.4476 18.9429 10.1883 18.8278C9.92893 18.7127 9.69703 18.5437 9.508 18.332L4 13C2.5 11.5 1 9.80004 1 7.50004Z" fill="#7E419A" stroke="#7E419A" stroke-width="2" stroke-linecap="round" stroke-linejoin="round"/>
</svg>
