<svg width="436" height="436" viewBox="0 0 436 436" fill="none" xmlns="http://www.w3.org/2000/svg">
<rect width="436" height="436" fill="#17171B"/>
<path d="M256.833 198.584H266.542V266.542H256.833V276.25H247.125V285.959H237.417V295.667H227.708V305.375H218V315.084H208.292V324.792H150.042V315.084H140.333V305.375H130.625V295.667H120.917V285.959H111.208V237.417H120.917V227.709H130.625V218H140.333V208.292H150.042V247.125H140.333V276.25H150.042V285.959H159.75V295.667H188.875V285.959H198.583V276.25H208.292V266.542H218V256.834H227.708V247.125H237.417V218H227.708V208.292H218V198.584H227.708V188.875H237.417V179.167H247.125V188.875H256.833V198.584Z" fill="white"/>
<path d="M324.792 150.041V198.583H315.083V208.291H305.375V218H295.667V227.708H285.958V188.875H295.667V159.75H285.958V150.041H276.25V140.333H247.125V150.041H237.417V159.75H227.708V169.458H218V179.166H208.292V188.875H198.583V218H208.292V227.708H218V237.416H208.292V247.125H198.583V256.833H188.875V247.125H179.167V237.416H169.458V169.458H179.167V159.75H188.875V150.041H198.583V140.333H208.292V130.625H218V120.916H227.708V111.208H285.958V120.916H295.667V130.625H305.375V140.333H315.083V150.041H324.792Z" fill="white"/>
</svg>
