<svg width="24" height="24" viewBox="0 0 24 24" fill="none" xmlns="http://www.w3.org/2000/svg">
<path d="M20 10C20 14.993 14.461 20.193 12.601 21.799C12.4277 21.9293 12.2168 21.9998 12 21.9998C11.7832 21.9998 11.5723 21.9293 11.399 21.799C9.539 20.193 4 14.993 4 10C4 7.87827 4.84285 5.84344 6.34315 4.34315C7.84344 2.84285 9.87827 2 12 2C14.1217 2 16.1566 2.84285 17.6569 4.34315C19.1571 5.84344 20 7.87827 20 10Z" fill="#601C56" stroke="#601C56" stroke-width="2" stroke-linecap="round" stroke-linejoin="round"/>
<path d="M12 8C13.1046 8 14 8.89543 14 10C14 11.1046 13.1046 12 12 12C10.8954 12 10 11.1046 10 10C10 8.89543 10.8954 8 12 8Z" fill="#FAFAFA" stroke="#FAFAFA" stroke-width="2" stroke-linecap="round" stroke-linejoin="round"/>
</svg>
