<svg width="261" height="260" viewBox="0 0 261 260" fill="none" xmlns="http://www.w3.org/2000/svg">
<path d="M128.643 115.143C131.094 115.143 133.546 115.143 136.071 115.143C136.071 116.369 136.071 117.594 136.071 118.857C134.846 118.857 133.62 118.857 132.357 118.857C132.357 120.083 132.357 121.309 132.357 122.571C132.97 122.571 133.583 122.571 134.214 122.571C134.214 123.184 134.214 123.797 134.214 124.429C136.666 124.429 139.117 124.429 141.643 124.429C141.643 123.816 141.643 123.203 141.643 122.571C142.256 122.571 142.869 122.571 143.5 122.571C143.5 121.959 143.5 121.346 143.5 120.714C144.726 120.714 145.951 120.714 147.214 120.714C147.214 121.94 147.214 123.166 147.214 124.429C146.601 124.429 145.989 124.429 145.357 124.429C145.357 125.041 145.357 125.654 145.357 126.286C144.131 126.286 142.906 126.286 141.643 126.286C141.643 126.899 141.643 127.511 141.643 128.143C142.256 128.143 142.869 128.143 143.5 128.143C143.5 129.369 143.5 130.594 143.5 131.857C142.887 131.857 142.274 131.857 141.643 131.857C141.643 134.309 141.643 136.76 141.643 139.286C140.417 139.286 139.191 139.286 137.929 139.286C137.929 137.447 137.929 135.609 137.929 133.714C138.541 133.714 139.154 133.714 139.786 133.714C139.786 133.101 139.786 132.489 139.786 131.857C139.173 131.857 138.56 131.857 137.929 131.857C137.929 131.244 137.929 130.631 137.929 130C137.316 130 136.703 130 136.071 130C136.071 129.387 136.071 128.774 136.071 128.143C135.459 128.143 134.846 128.143 134.214 128.143C134.214 127.53 134.214 126.917 134.214 126.286C133.601 126.286 132.989 126.286 132.357 126.286C132.357 126.899 132.357 127.511 132.357 128.143C131.744 128.143 131.131 128.143 130.5 128.143C130.5 129.369 130.5 130.594 130.5 131.857C131.113 131.857 131.726 131.857 132.357 131.857C132.357 133.083 132.357 134.309 132.357 135.571C132.97 135.571 133.583 135.571 134.214 135.571C134.214 136.797 134.214 138.023 134.214 139.286C132.989 139.286 131.763 139.286 130.5 139.286C130.5 138.06 130.5 136.834 130.5 135.571C129.887 135.571 129.274 135.571 128.643 135.571C128.643 134.346 128.643 133.12 128.643 131.857C126.804 131.857 124.966 131.857 123.071 131.857C123.071 131.244 123.071 130.631 123.071 130C121.846 130 120.62 130 119.357 130C119.357 128.774 119.357 127.549 119.357 126.286C120.583 126.286 121.809 126.286 123.071 126.286C123.071 126.899 123.071 127.511 123.071 128.143C124.91 128.143 126.749 128.143 128.643 128.143C128.643 126.917 128.643 125.691 128.643 124.429C129.256 124.429 129.869 124.429 130.5 124.429C130.5 123.203 130.5 121.977 130.5 120.714C128.661 120.714 126.823 120.714 124.929 120.714C124.929 119.489 124.929 118.263 124.929 117C126.154 117 127.38 117 128.643 117C128.643 116.387 128.643 115.774 128.643 115.143ZM137.929 128.143C137.929 128.756 137.929 129.369 137.929 130C138.541 130 139.154 130 139.786 130C139.786 129.387 139.786 128.774 139.786 128.143C139.173 128.143 138.56 128.143 137.929 128.143Z" fill="#FAFAFA"/>
<path d="M84.0714 76.1428C86.5229 76.1428 88.9743 76.1428 91.5 76.1428C91.5 76.7557 91.5 77.3685 91.5 78C92.1129 78 92.7257 78 93.3571 78C93.3571 78.6128 93.3571 79.2257 93.3571 79.8571C93.97 79.8571 94.5829 79.8571 95.2143 79.8571C95.2143 81.0828 95.2143 82.3085 95.2143 83.5714C93.9886 83.5714 92.7629 83.5714 91.5 83.5714C91.5 84.7971 91.5 86.0228 91.5 87.2857C90.2743 87.2857 89.0486 87.2857 87.7857 87.2857C87.7857 88.5114 87.7857 89.7371 87.7857 91C86.56 91 85.3343 91 84.0714 91C84.0714 92.2257 84.0714 93.4514 84.0714 94.7143C81.62 94.7143 79.1686 94.7143 76.6429 94.7143C76.6429 91.0371 76.6429 87.36 76.6429 83.5714C77.8686 83.5714 79.0943 83.5714 80.3571 83.5714C80.3571 82.3457 80.3571 81.12 80.3571 79.8571C81.5829 79.8571 82.8086 79.8571 84.0714 79.8571C84.0714 78.6314 84.0714 77.4057 84.0714 76.1428Z" fill="#FAD6A1"/>
<path d="M152.786 61.2856C154.011 61.2856 155.237 61.2856 156.5 61.2856C156.5 61.8985 156.5 62.5114 156.5 63.1428C158.951 63.1428 161.403 63.1428 163.929 63.1428C163.929 64.3685 163.929 65.5942 163.929 66.8571C165.154 66.8571 166.38 66.8571 167.643 66.8571C167.643 69.3085 167.643 71.7599 167.643 74.2856C164.579 74.2856 161.514 74.2856 158.357 74.2856C158.357 73.6728 158.357 73.0599 158.357 72.4285C157.131 72.4285 155.906 72.4285 154.643 72.4285C154.643 71.8156 154.643 71.2028 154.643 70.5714C151.579 70.5714 148.514 70.5714 145.357 70.5714C145.357 68.1199 145.357 65.6685 145.357 63.1428C147.809 63.1428 150.26 63.1428 152.786 63.1428C152.786 62.5299 152.786 61.9171 152.786 61.2856Z" fill="#FAD6A1"/>
<path d="M123.071 185.714C124.297 185.714 125.523 185.714 126.786 185.714C126.786 191.843 126.786 197.971 126.786 204.286C125.56 204.286 124.334 204.286 123.071 204.286C123.071 200.609 123.071 196.931 123.071 193.143C114.491 193.143 105.911 193.143 97.0714 193.143C97.0714 191.917 97.0714 190.691 97.0714 189.429C105.651 189.429 114.231 189.429 123.071 189.429C123.071 188.203 123.071 186.977 123.071 185.714Z" fill="#FAFAFA"/>
<path d="M104.5 163.428C110.629 163.428 116.757 163.428 123.071 163.428C123.071 164.041 123.071 164.654 123.071 165.286C125.523 165.286 127.974 165.286 130.5 165.286C130.5 164.673 130.5 164.06 130.5 163.428C135.403 163.428 140.306 163.428 145.357 163.428C145.357 164.654 145.357 165.88 145.357 167.143C140.454 167.143 135.551 167.143 130.5 167.143C130.5 167.756 130.5 168.368 130.5 169C128.049 169 125.597 169 123.071 169C123.071 168.387 123.071 167.774 123.071 167.143C119.394 167.143 115.717 167.143 111.929 167.143C111.929 168.368 111.929 169.594 111.929 170.857C110.703 170.857 109.477 170.857 108.214 170.857C108.214 169.631 108.214 168.406 108.214 167.143C106.989 167.143 105.763 167.143 104.5 167.143C104.5 165.917 104.5 164.691 104.5 163.428Z" fill="#FAFAFA"/>
<path d="M71.0714 104C72.2971 104 73.5229 104 74.7857 104C74.7857 105.226 74.7857 106.451 74.7857 107.714C75.3986 107.714 76.0114 107.714 76.6429 107.714C76.6429 110.166 76.6429 112.617 76.6429 115.143C76.03 115.143 75.4171 115.143 74.7857 115.143C74.7857 123.723 74.7857 132.303 74.7857 141.143C73.56 141.143 72.3343 141.143 71.0714 141.143C71.0714 132.563 71.0714 123.983 71.0714 115.143C71.6843 115.143 72.2971 115.143 72.9286 115.143C72.9286 112.691 72.9286 110.24 72.9286 107.714C72.3157 107.714 71.7029 107.714 71.0714 107.714C71.0714 106.489 71.0714 105.263 71.0714 104Z" fill="#FAFAFA"/>
<path d="M82.2143 39C83.44 39 84.6657 39 85.9286 39C85.9286 42.6771 85.9286 46.3543 85.9286 50.1429C85.3157 50.1429 84.7029 50.1429 84.0714 50.1429C84.0714 50.7557 84.0714 51.3686 84.0714 52C78.5557 52 73.04 52 67.3571 52C67.3571 52.6129 67.3571 53.2257 67.3571 53.8571C64.9057 53.8571 62.4543 53.8571 59.9286 53.8571C59.9286 52.6314 59.9286 51.4057 59.9286 50.1429C62.38 50.1429 64.8314 50.1429 67.3571 50.1429C67.3571 49.53 67.3571 48.9171 67.3571 48.2857C72.26 48.2857 77.1629 48.2857 82.2143 48.2857C82.2143 45.2214 82.2143 42.1571 82.2143 39Z" fill="#FAFAFA"/>
<path d="M175.071 182C176.297 182 177.523 182 178.786 182C178.786 188.129 178.786 194.257 178.786 200.571C180.011 200.571 181.237 200.571 182.5 200.571C182.5 201.797 182.5 203.023 182.5 204.286C181.274 204.286 180.049 204.286 178.786 204.286C178.786 206.737 178.786 209.189 178.786 211.714C177.56 211.714 176.334 211.714 175.071 211.714C175.071 201.909 175.071 192.103 175.071 182Z" fill="#FAFAFA"/>
<path d="M182.5 107.714C183.726 107.714 184.951 107.714 186.214 107.714C186.214 110.166 186.214 112.617 186.214 115.143C188.666 115.143 191.117 115.143 193.643 115.143C193.643 116.369 193.643 117.594 193.643 118.857C191.191 118.857 188.74 118.857 186.214 118.857C186.214 120.083 186.214 121.309 186.214 122.571C184.989 122.571 183.763 122.571 182.5 122.571C182.5 120.12 182.5 117.669 182.5 115.143C180.049 115.143 177.597 115.143 175.071 115.143C175.071 113.917 175.071 112.691 175.071 111.429C177.523 111.429 179.974 111.429 182.5 111.429C182.5 110.203 182.5 108.977 182.5 107.714Z" fill="#FAFAFA"/>
<path d="M97.0714 159.714C99.5229 159.714 101.974 159.714 104.5 159.714C104.5 160.94 104.5 162.166 104.5 163.429C103.274 163.429 102.049 163.429 100.786 163.429C100.786 164.654 100.786 165.88 100.786 167.143C94.6572 167.143 88.5286 167.143 82.2143 167.143C82.2143 165.917 82.2143 164.691 82.2143 163.429C87.1172 163.429 92.02 163.429 97.0714 163.429C97.0714 162.203 97.0714 160.977 97.0714 159.714Z" fill="#FAFAFA"/>
<path d="M186.214 104C192.343 104 198.471 104 204.786 104C204.786 105.226 204.786 106.451 204.786 107.714C206.011 107.714 207.237 107.714 208.5 107.714C208.5 108.94 208.5 110.166 208.5 111.429C206.049 111.429 203.597 111.429 201.071 111.429C201.071 110.203 201.071 108.977 201.071 107.714C196.169 107.714 191.266 107.714 186.214 107.714C186.214 106.489 186.214 105.263 186.214 104Z" fill="#FAFAFA"/>
<path d="M149.071 27.8572C157.651 27.8572 166.231 27.8572 175.071 27.8572C175.071 29.0829 175.071 30.3086 175.071 31.5715C166.491 31.5715 157.911 31.5715 149.071 31.5715C149.071 30.3457 149.071 29.12 149.071 27.8572Z" fill="#FAFAFA"/>
<path d="M45.0714 111.428C46.2971 111.428 47.5229 111.428 48.7857 111.428C48.7857 118.783 48.7857 126.137 48.7857 133.714C47.56 133.714 46.3343 133.714 45.0714 133.714C45.0714 126.36 45.0714 119.006 45.0714 111.428Z" fill="#FAFAFA"/>
<path d="M208.5 78C209.726 78 210.951 78 212.214 78C212.214 85.3543 212.214 92.7086 212.214 100.286C210.989 100.286 209.763 100.286 208.5 100.286C208.5 92.9314 208.5 85.5771 208.5 78Z" fill="#FAFAFA"/>
<path d="M41.3571 76.1428C42.5829 76.1428 43.8086 76.1428 45.0714 76.1428C45.0714 82.8843 45.0714 89.6257 45.0714 96.5714C43.8457 96.5714 42.62 96.5714 41.3571 96.5714C41.3571 89.83 41.3571 83.0885 41.3571 76.1428Z" fill="#FAFAFA"/>
<path d="M193.643 46.4285C194.869 46.4285 196.094 46.4285 197.357 46.4285C197.357 53.1699 197.357 59.9113 197.357 66.857C196.131 66.857 194.906 66.857 193.643 66.857C193.643 60.1156 193.643 53.3742 193.643 46.4285Z" fill="#FAFAFA"/>
<path d="M56.2143 141.143C59.8914 141.143 63.5686 141.143 67.3571 141.143C67.3571 144.82 67.3571 148.497 67.3571 152.286C66.1314 152.286 64.9057 152.286 63.6429 152.286C63.6429 149.834 63.6429 147.383 63.6429 144.857C61.1914 144.857 58.74 144.857 56.2143 144.857C56.2143 143.631 56.2143 142.406 56.2143 141.143Z" fill="#FAFAFA"/>
<path d="M123.071 85.4285C124.297 85.4285 125.523 85.4285 126.786 85.4285C126.786 90.3313 126.786 95.2342 126.786 100.286C124.334 100.286 121.883 100.286 119.357 100.286C119.357 99.0599 119.357 97.8342 119.357 96.5713C120.583 96.5713 121.809 96.5713 123.071 96.5713C123.071 92.8942 123.071 89.217 123.071 85.4285Z" fill="#FAFAFA"/>
<path d="M175.071 59.4285C176.297 59.4285 177.523 59.4285 178.786 59.4285C178.786 65.557 178.786 71.6856 178.786 77.9999C177.56 77.9999 176.334 77.9999 175.071 77.9999C175.071 71.8713 175.071 65.7428 175.071 59.4285Z" fill="#FAFAFA"/>
<path d="M147.214 104C148.44 104 149.666 104 150.929 104C150.929 105.226 150.929 106.451 150.929 107.714C153.38 107.714 155.831 107.714 158.357 107.714C158.357 108.94 158.357 110.166 158.357 111.429C154.067 111.429 149.777 111.429 145.357 111.429C145.357 110.203 145.357 108.977 145.357 107.714C145.97 107.714 146.583 107.714 147.214 107.714C147.214 106.489 147.214 105.263 147.214 104Z" fill="#FAFAFA"/>
<path d="M111.929 174.572C116.831 174.572 121.734 174.572 126.786 174.572C126.786 175.797 126.786 177.023 126.786 178.286C121.883 178.286 116.98 178.286 111.929 178.286C111.929 177.06 111.929 175.834 111.929 174.572Z" fill="#FAFAFA"/>
<path d="M186.214 170.857C187.44 170.857 188.666 170.857 189.929 170.857C189.929 175.76 189.929 180.663 189.929 185.714C188.703 185.714 187.477 185.714 186.214 185.714C186.214 180.811 186.214 175.909 186.214 170.857Z" fill="#FAFAFA"/>
<path d="M201.071 122.572C204.749 122.572 208.426 122.572 212.214 122.572C212.214 125.023 212.214 127.474 212.214 130C210.989 130 209.763 130 208.5 130C208.5 128.774 208.5 127.549 208.5 126.286C206.049 126.286 203.597 126.286 201.071 126.286C201.071 125.06 201.071 123.834 201.071 122.572Z" fill="#FAFAFA"/>
<path d="M102.643 115.143C105.094 115.143 107.546 115.143 110.071 115.143C110.071 115.756 110.071 116.369 110.071 117C111.297 117 112.523 117 113.786 117C113.786 118.226 113.786 119.451 113.786 120.714C113.173 120.714 112.56 120.714 111.929 120.714C111.929 121.94 111.929 123.166 111.929 124.429C110.703 124.429 109.477 124.429 108.214 124.429C108.214 123.203 108.214 121.977 108.214 120.714C108.827 120.714 109.44 120.714 110.071 120.714C110.071 120.101 110.071 119.489 110.071 118.857C107.62 118.857 105.169 118.857 102.643 118.857C102.643 117.631 102.643 116.406 102.643 115.143Z" fill="#FAFAFA"/>
<path d="M63.6429 81.7144C64.8686 81.7144 66.0943 81.7144 67.3571 81.7144C67.3571 86.6172 67.3571 91.5201 67.3571 96.5715C66.1314 96.5715 64.9057 96.5715 63.6429 96.5715C63.6429 91.6686 63.6429 86.7658 63.6429 81.7144Z" fill="#FAFAFA"/>
<path d="M126.786 70.5715C128.011 70.5715 129.237 70.5715 130.5 70.5715C130.5 75.4744 130.5 80.3772 130.5 85.4287C129.274 85.4287 128.049 85.4287 126.786 85.4287C126.786 80.5258 126.786 75.623 126.786 70.5715Z" fill="#FAFAFA"/>
<path d="M149.071 48.2856C153.974 48.2856 158.877 48.2856 163.929 48.2856C163.929 49.5114 163.929 50.7371 163.929 51.9999C159.026 51.9999 154.123 51.9999 149.071 51.9999C149.071 50.7742 149.071 49.5485 149.071 48.2856Z" fill="#FAFAFA"/>
<path d="M98.9286 131.857C101.38 131.857 103.831 131.857 106.357 131.857C106.357 133.083 106.357 134.309 106.357 135.571C104.519 135.571 102.68 135.571 100.786 135.571C100.786 136.184 100.786 136.797 100.786 137.429C98.9472 137.429 97.1086 137.429 95.2143 137.429C95.2143 136.203 95.2143 134.977 95.2143 133.714C96.44 133.714 97.6657 133.714 98.9286 133.714C98.9286 133.101 98.9286 132.489 98.9286 131.857Z" fill="#F6BDB8"/>
<path d="M158.357 115.143C160.809 115.143 163.26 115.143 165.786 115.143C165.786 116.369 165.786 117.594 165.786 118.857C163.947 118.857 162.109 118.857 160.214 118.857C160.214 119.47 160.214 120.083 160.214 120.714C158.376 120.714 156.537 120.714 154.643 120.714C154.643 119.489 154.643 118.263 154.643 117C155.869 117 157.094 117 158.357 117C158.357 116.387 158.357 115.774 158.357 115.143Z" fill="#F6BDB8"/>
<path d="M178.786 226.572C182.463 226.572 186.14 226.572 189.929 226.572C189.929 227.797 189.929 229.023 189.929 230.286C186.251 230.286 182.574 230.286 178.786 230.286C178.786 229.06 178.786 227.834 178.786 226.572Z" fill="#FAFAFA"/>
<path d="M126.786 222.857C128.011 222.857 129.237 222.857 130.5 222.857C130.5 226.534 130.5 230.211 130.5 234C129.274 234 128.049 234 126.786 234C126.786 230.323 126.786 226.646 126.786 222.857Z" fill="#FAFAFA"/>
<path d="M156.5 211.714C160.177 211.714 163.854 211.714 167.643 211.714C167.643 212.94 167.643 214.166 167.643 215.429C163.966 215.429 160.289 215.429 156.5 215.429C156.5 214.203 156.5 212.977 156.5 211.714Z" fill="#FAFAFA"/>
<path d="M197.357 185.714C198.583 185.714 199.809 185.714 201.071 185.714C201.071 186.94 201.071 188.166 201.071 189.429C202.297 189.429 203.523 189.429 204.786 189.429C204.786 190.654 204.786 191.88 204.786 193.143C202.334 193.143 199.883 193.143 197.357 193.143C197.357 190.691 197.357 188.24 197.357 185.714Z" fill="#FAFAFA"/>
<path d="M93.3571 178.286C94.5829 178.286 95.8086 178.286 97.0714 178.286C97.0714 181.963 97.0714 185.64 97.0714 189.429C95.8457 189.429 94.62 189.429 93.3571 189.429C93.3571 185.751 93.3571 182.074 93.3571 178.286Z" fill="#FAFAFA"/>
<path d="M163.929 167.143C166.38 167.143 168.831 167.143 171.357 167.143C171.357 169.594 171.357 172.046 171.357 174.571C170.131 174.571 168.906 174.571 167.643 174.571C167.643 173.346 167.643 172.12 167.643 170.857C166.417 170.857 165.191 170.857 163.929 170.857C163.929 169.631 163.929 168.406 163.929 167.143Z" fill="#FAFAFA"/>
<path d="M145.357 159.714C149.034 159.714 152.711 159.714 156.5 159.714C156.5 160.94 156.5 162.166 156.5 163.429C152.823 163.429 149.146 163.429 145.357 163.429C145.357 162.203 145.357 160.977 145.357 159.714Z" fill="#FAFAFA"/>
<path d="M175.071 122.572C177.523 122.572 179.974 122.572 182.5 122.572C182.5 123.797 182.5 125.023 182.5 126.286C181.274 126.286 180.049 126.286 178.786 126.286C178.786 127.512 178.786 128.737 178.786 130C177.56 130 176.334 130 175.071 130C175.071 127.549 175.071 125.097 175.071 122.572Z" fill="#FAFAFA"/>
<path d="M182.5 92.8572C183.726 92.8572 184.951 92.8572 186.214 92.8572C186.214 96.5343 186.214 100.211 186.214 104C184.989 104 183.763 104 182.5 104C182.5 100.323 182.5 96.6457 182.5 92.8572Z" fill="#FAFAFA"/>
<path d="M82.2143 63.1428C85.8914 63.1428 89.5686 63.1428 93.3572 63.1428C93.3572 64.3685 93.3572 65.5943 93.3572 66.8571C89.68 66.8571 86.0029 66.8571 82.2143 66.8571C82.2143 65.6314 82.2143 64.4057 82.2143 63.1428Z" fill="#FAFAFA"/>
<path d="M130.5 59.4285C131.726 59.4285 132.951 59.4285 134.214 59.4285C134.214 63.1056 134.214 66.7828 134.214 70.5713C132.989 70.5713 131.763 70.5713 130.5 70.5713C130.5 66.8942 130.5 63.217 130.5 59.4285Z" fill="#FAFAFA"/>
<path d="M137.929 52C141.606 52 145.283 52 149.071 52C149.071 53.2257 149.071 54.4514 149.071 55.7143C145.394 55.7143 141.717 55.7143 137.929 55.7143C137.929 54.4886 137.929 53.2629 137.929 52Z" fill="#FAFAFA"/>
<path d="M97.0714 24.1428C100.749 24.1428 104.426 24.1428 108.214 24.1428C108.214 25.3685 108.214 26.5943 108.214 27.8571C104.537 27.8571 100.86 27.8571 97.0714 27.8571C97.0714 26.6314 97.0714 25.4057 97.0714 24.1428Z" fill="#FAFAFA"/>
<path d="M108.214 20.4285C111.891 20.4285 115.569 20.4285 119.357 20.4285C119.357 21.6542 119.357 22.8799 119.357 24.1428C115.68 24.1428 112.003 24.1428 108.214 24.1428C108.214 22.917 108.214 21.6913 108.214 20.4285Z" fill="#FAFAFA"/>
<path d="M130.5 234C132.951 234 135.403 234 137.929 234C137.929 235.226 137.929 236.451 137.929 237.714C135.477 237.714 133.026 237.714 130.5 237.714C130.5 236.489 130.5 235.263 130.5 234Z" fill="#FAFAFA"/>
<path d="M137.929 226.572C139.154 226.572 140.38 226.572 141.643 226.572C141.643 229.023 141.643 231.474 141.643 234C140.417 234 139.191 234 137.929 234C137.929 231.549 137.929 229.097 137.929 226.572Z" fill="#FAFAFA"/>
<path d="M149.071 215.428C151.523 215.428 153.974 215.428 156.5 215.428C156.5 216.654 156.5 217.88 156.5 219.143C154.049 219.143 151.597 219.143 149.071 219.143C149.071 217.917 149.071 216.691 149.071 215.428Z" fill="#FAFAFA"/>
<path d="M130.5 208C131.726 208 132.951 208 134.214 208C134.214 210.451 134.214 212.903 134.214 215.429C132.989 215.429 131.763 215.429 130.5 215.429C130.5 212.977 130.5 210.526 130.5 208Z" fill="#FAFAFA"/>
<path d="M193.643 193.143C194.869 193.143 196.094 193.143 197.357 193.143C197.357 195.594 197.357 198.046 197.357 200.571C196.131 200.571 194.906 200.571 193.643 200.571C193.643 198.12 193.643 195.669 193.643 193.143Z" fill="#FAFAFA"/>
<path d="M186.214 189.428C187.44 189.428 188.666 189.428 189.929 189.428C189.929 191.88 189.929 194.331 189.929 196.857C188.703 196.857 187.477 196.857 186.214 196.857C186.214 194.406 186.214 191.954 186.214 189.428Z" fill="#FAFAFA"/>
<path d="M204.786 182C206.011 182 207.237 182 208.5 182C208.5 184.451 208.5 186.903 208.5 189.429C207.274 189.429 206.049 189.429 204.786 189.429C204.786 186.977 204.786 184.526 204.786 182Z" fill="#FAFAFA"/>
<path d="M126.786 178.286C128.011 178.286 129.237 178.286 130.5 178.286C130.5 180.737 130.5 183.189 130.5 185.714C129.274 185.714 128.049 185.714 126.786 185.714C126.786 183.263 126.786 180.811 126.786 178.286Z" fill="#FAFAFA"/>
<path d="M208.5 174.572C209.726 174.572 210.951 174.572 212.214 174.572C212.214 177.023 212.214 179.474 212.214 182C210.989 182 209.763 182 208.5 182C208.5 179.549 208.5 177.097 208.5 174.572Z" fill="#FAFAFA"/>
<path d="M171.357 174.572C172.583 174.572 173.809 174.572 175.071 174.572C175.071 177.023 175.071 179.474 175.071 182C173.846 182 172.62 182 171.357 182C171.357 179.549 171.357 177.097 171.357 174.572Z" fill="#FAFAFA"/>
<path d="M100.786 170.857C103.237 170.857 105.689 170.857 108.214 170.857C108.214 172.083 108.214 173.309 108.214 174.571C105.763 174.571 103.311 174.571 100.786 174.571C100.786 173.346 100.786 172.12 100.786 170.857Z" fill="#FAFAFA"/>
<path d="M204.786 167.143C206.011 167.143 207.237 167.143 208.5 167.143C208.5 169.594 208.5 172.046 208.5 174.571C207.274 174.571 206.049 174.571 204.786 174.571C204.786 172.12 204.786 169.669 204.786 167.143Z" fill="#FAFAFA"/>
<path d="M189.929 167.143C192.38 167.143 194.831 167.143 197.357 167.143C197.357 168.369 197.357 169.594 197.357 170.857C194.906 170.857 192.454 170.857 189.929 170.857C189.929 169.631 189.929 168.406 189.929 167.143Z" fill="#FAFAFA"/>
<path d="M197.357 163.428C199.809 163.428 202.26 163.428 204.786 163.428C204.786 164.654 204.786 165.88 204.786 167.143C202.334 167.143 199.883 167.143 197.357 167.143C197.357 165.917 197.357 164.691 197.357 163.428Z" fill="#FAFAFA"/>
<path d="M171.357 163.428C173.809 163.428 176.26 163.428 178.786 163.428C178.786 164.654 178.786 165.88 178.786 167.143C176.334 167.143 173.883 167.143 171.357 167.143C171.357 165.917 171.357 164.691 171.357 163.428Z" fill="#FAFAFA"/>
<path d="M74.7857 159.714C77.2371 159.714 79.6886 159.714 82.2143 159.714C82.2143 160.94 82.2143 162.166 82.2143 163.429C79.7628 163.429 77.3114 163.429 74.7857 163.429C74.7857 162.203 74.7857 160.977 74.7857 159.714Z" fill="#FAFAFA"/>
<path d="M156.5 156C158.951 156 161.403 156 163.929 156C163.929 157.226 163.929 158.451 163.929 159.714C161.477 159.714 159.026 159.714 156.5 159.714C156.5 158.489 156.5 157.263 156.5 156Z" fill="#FAFAFA"/>
<path d="M85.9286 152.286C88.38 152.286 90.8314 152.286 93.3571 152.286C93.3571 153.511 93.3571 154.737 93.3571 156C90.9057 156 88.4543 156 85.9286 156C85.9286 154.774 85.9286 153.549 85.9286 152.286Z" fill="#FAFAFA"/>
<path d="M197.357 137.428C198.583 137.428 199.809 137.428 201.071 137.428C201.071 139.88 201.071 142.331 201.071 144.857C199.846 144.857 198.62 144.857 197.357 144.857C197.357 142.406 197.357 139.954 197.357 137.428Z" fill="#FAFAFA"/>
<path d="M175.071 137.428C176.297 137.428 177.523 137.428 178.786 137.428C178.786 139.88 178.786 142.331 178.786 144.857C177.56 144.857 176.334 144.857 175.071 144.857C175.071 142.406 175.071 139.954 175.071 137.428Z" fill="#FAFAFA"/>
<path d="M178.786 130C180.011 130 181.237 130 182.5 130C182.5 132.451 182.5 134.903 182.5 137.429C181.274 137.429 180.049 137.429 178.786 137.429C178.786 134.977 178.786 132.526 178.786 130Z" fill="#FAFAFA"/>
<path d="M193.643 118.857C196.094 118.857 198.546 118.857 201.071 118.857C201.071 120.083 201.071 121.309 201.071 122.571C198.62 122.571 196.169 122.571 193.643 122.571C193.643 121.346 193.643 120.12 193.643 118.857Z" fill="#FAFAFA"/>
<path d="M212.214 115.143C213.44 115.143 214.666 115.143 215.929 115.143C215.929 117.594 215.929 120.046 215.929 122.571C214.703 122.571 213.477 122.571 212.214 122.571C212.214 120.12 212.214 117.669 212.214 115.143Z" fill="#FAFAFA"/>
<path d="M171.357 115.143C172.583 115.143 173.809 115.143 175.071 115.143C175.071 117.594 175.071 120.046 175.071 122.571C173.846 122.571 172.62 122.571 171.357 122.571C171.357 120.12 171.357 117.669 171.357 115.143Z" fill="#FAFAFA"/>
<path d="M98.9286 100.286C100.154 100.286 101.38 100.286 102.643 100.286C102.643 100.899 102.643 101.511 102.643 102.143C103.869 102.143 105.094 102.143 106.357 102.143C106.357 103.369 106.357 104.594 106.357 105.857C105.131 105.857 103.906 105.857 102.643 105.857C102.643 105.244 102.643 104.631 102.643 104C101.417 104 100.191 104 98.9286 104C98.9286 102.774 98.9286 101.549 98.9286 100.286Z" fill="#FAFAFA"/>
<path d="M67.3571 96.5715C68.5829 96.5715 69.8086 96.5715 71.0714 96.5715C71.0714 99.023 71.0714 101.474 71.0714 104C69.8457 104 68.62 104 67.3571 104C67.3571 101.549 67.3571 99.0972 67.3571 96.5715Z" fill="#FAFAFA"/>
<path d="M111.929 92.8572C114.38 92.8572 116.831 92.8572 119.357 92.8572C119.357 94.0829 119.357 95.3086 119.357 96.5715C116.906 96.5715 114.454 96.5715 111.929 96.5715C111.929 95.3457 111.929 94.12 111.929 92.8572Z" fill="#FAFAFA"/>
<path d="M178.786 85.4285C180.011 85.4285 181.237 85.4285 182.5 85.4285C182.5 87.8799 182.5 90.3313 182.5 92.857C181.274 92.857 180.049 92.857 178.786 92.857C178.786 90.4056 178.786 87.9542 178.786 85.4285Z" fill="#FAFAFA"/>
<path d="M108.214 85.4285C109.44 85.4285 110.666 85.4285 111.929 85.4285C111.929 87.8799 111.929 90.3313 111.929 92.857C110.703 92.857 109.477 92.857 108.214 92.857C108.214 90.4056 108.214 87.9542 108.214 85.4285Z" fill="#FAFAFA"/>
<path d="M104.5 78C105.726 78 106.951 78 108.214 78C108.214 80.4514 108.214 82.9029 108.214 85.4286C106.989 85.4286 105.763 85.4286 104.5 85.4286C104.5 82.9771 104.5 80.5257 104.5 78Z" fill="#FAFAFA"/>
<path d="M67.3571 74.2856C68.5829 74.2856 69.8086 74.2856 71.0714 74.2856C71.0714 76.7371 71.0714 79.1885 71.0714 81.7142C69.8457 81.7142 68.62 81.7142 67.3571 81.7142C67.3571 79.2628 67.3571 76.8114 67.3571 74.2856Z" fill="#FAFAFA"/>
<path d="M100.786 70.5715C102.011 70.5715 103.237 70.5715 104.5 70.5715C104.5 73.023 104.5 75.4744 104.5 78.0001C103.274 78.0001 102.049 78.0001 100.786 78.0001C100.786 75.5487 100.786 73.0972 100.786 70.5715Z" fill="#FAFAFA"/>
<path d="M45.0714 68.7144C46.2971 68.7144 47.5229 68.7144 48.7857 68.7144C48.7857 71.1658 48.7857 73.6172 48.7857 76.1429C47.56 76.1429 46.3343 76.1429 45.0714 76.1429C45.0714 73.6915 45.0714 71.2401 45.0714 68.7144Z" fill="#FAFAFA"/>
<path d="M93.3571 66.8572C95.8086 66.8572 98.26 66.8572 100.786 66.8572C100.786 68.0829 100.786 69.3086 100.786 70.5715C98.3343 70.5715 95.8829 70.5715 93.3571 70.5715C93.3571 69.3457 93.3571 68.12 93.3571 66.8572Z" fill="#FAFAFA"/>
<path d="M74.7857 66.8572C77.2371 66.8572 79.6886 66.8572 82.2143 66.8572C82.2143 68.0829 82.2143 69.3086 82.2143 70.5715C79.7628 70.5715 77.3114 70.5715 74.7857 70.5715C74.7857 69.3457 74.7857 68.12 74.7857 66.8572Z" fill="#FAFAFA"/>
<path d="M48.7857 61.2856C50.0114 61.2856 51.2371 61.2856 52.5 61.2856C52.5 63.7371 52.5 66.1885 52.5 68.7142C51.2743 68.7142 50.0486 68.7142 48.7857 68.7142C48.7857 66.2628 48.7857 63.8114 48.7857 61.2856Z" fill="#FAFAFA"/>
<path d="M163.929 52C166.38 52 168.831 52 171.357 52C171.357 53.2257 171.357 54.4514 171.357 55.7143C168.906 55.7143 166.454 55.7143 163.929 55.7143C163.929 54.4886 163.929 53.2629 163.929 52Z" fill="#FAFAFA"/>
<path d="M175.071 31.5715C177.523 31.5715 179.974 31.5715 182.5 31.5715C182.5 32.7972 182.5 34.023 182.5 35.2858C180.049 35.2858 177.597 35.2858 175.071 35.2858C175.071 34.0601 175.071 32.8344 175.071 31.5715Z" fill="#FAFAFA"/>
<path d="M141.643 31.5715C144.094 31.5715 146.546 31.5715 149.071 31.5715C149.071 32.7972 149.071 34.023 149.071 35.2858C146.62 35.2858 144.169 35.2858 141.643 35.2858C141.643 34.0601 141.643 32.8344 141.643 31.5715Z" fill="#FAFAFA"/>
<path d="M126.786 27.8572C129.237 27.8572 131.689 27.8572 134.214 27.8572C134.214 29.0829 134.214 30.3086 134.214 31.5715C131.763 31.5715 129.311 31.5715 126.786 31.5715C126.786 30.3457 126.786 29.12 126.786 27.8572Z" fill="#FAFAFA"/>
<path d="M119.357 24.1428C121.809 24.1428 124.26 24.1428 126.786 24.1428C126.786 25.3685 126.786 26.5943 126.786 27.8571C124.334 27.8571 121.883 27.8571 119.357 27.8571C119.357 26.6314 119.357 25.4057 119.357 24.1428Z" fill="#FAFAFA"/>
<path d="M149.071 195C149.684 195 150.297 195 150.929 195C150.929 195.613 150.929 196.226 150.929 196.857C151.541 196.857 152.154 196.857 152.786 196.857C152.786 196.244 152.786 195.631 152.786 195C153.399 195 154.011 195 154.643 195C154.643 196.839 154.643 198.677 154.643 200.571C154.03 200.571 153.417 200.571 152.786 200.571C152.786 199.959 152.786 199.346 152.786 198.714C152.173 198.714 151.56 198.714 150.929 198.714C150.929 199.327 150.929 199.94 150.929 200.571C150.316 200.571 149.703 200.571 149.071 200.571C149.071 198.733 149.071 196.894 149.071 195Z" fill="#FAFAFA"/>
<path d="M189.929 222.857C191.154 222.857 192.38 222.857 193.643 222.857C193.643 224.083 193.643 225.309 193.643 226.571C192.417 226.571 191.191 226.571 189.929 226.571C189.929 225.346 189.929 224.12 189.929 222.857Z" fill="#FAFAFA"/>
<path d="M175.071 222.857C176.297 222.857 177.523 222.857 178.786 222.857C178.786 224.083 178.786 225.309 178.786 226.571C177.56 226.571 176.334 226.571 175.071 226.571C175.071 225.346 175.071 224.12 175.071 222.857Z" fill="#FAFAFA"/>
<path d="M141.643 222.857C142.869 222.857 144.094 222.857 145.357 222.857C145.357 224.083 145.357 225.309 145.357 226.571C144.131 226.571 142.906 226.571 141.643 226.571C141.643 225.346 141.643 224.12 141.643 222.857Z" fill="#FAFAFA"/>
<path d="M186.214 219.143C187.44 219.143 188.666 219.143 189.929 219.143C189.929 220.369 189.929 221.594 189.929 222.857C188.703 222.857 187.477 222.857 186.214 222.857C186.214 221.631 186.214 220.406 186.214 219.143Z" fill="#FAFAFA"/>
<path d="M171.357 219.143C172.583 219.143 173.809 219.143 175.071 219.143C175.071 220.369 175.071 221.594 175.071 222.857C173.846 222.857 172.62 222.857 171.357 222.857C171.357 221.631 171.357 220.406 171.357 219.143Z" fill="#FAFAFA"/>
<path d="M145.357 219.143C146.583 219.143 147.809 219.143 149.071 219.143C149.071 220.369 149.071 221.594 149.071 222.857C147.846 222.857 146.62 222.857 145.357 222.857C145.357 221.631 145.357 220.406 145.357 219.143Z" fill="#FAFAFA"/>
<path d="M130.5 219.143C131.726 219.143 132.951 219.143 134.214 219.143C134.214 220.369 134.214 221.594 134.214 222.857C132.989 222.857 131.763 222.857 130.5 222.857C130.5 221.631 130.5 220.406 130.5 219.143Z" fill="#FAFAFA"/>
<path d="M182.5 215.428C183.726 215.428 184.951 215.428 186.214 215.428C186.214 216.654 186.214 217.88 186.214 219.143C184.989 219.143 183.763 219.143 182.5 219.143C182.5 217.917 182.5 216.691 182.5 215.428Z" fill="#FAFAFA"/>
<path d="M167.643 215.428C168.869 215.428 170.094 215.428 171.357 215.428C171.357 216.654 171.357 217.88 171.357 219.143C170.131 219.143 168.906 219.143 167.643 219.143C167.643 217.917 167.643 216.691 167.643 215.428Z" fill="#FAFAFA"/>
<path d="M134.214 215.428C135.44 215.428 136.666 215.428 137.929 215.428C137.929 216.654 137.929 217.88 137.929 219.143C136.703 219.143 135.477 219.143 134.214 219.143C134.214 217.917 134.214 216.691 134.214 215.428Z" fill="#FAFAFA"/>
<path d="M178.786 211.714C180.011 211.714 181.237 211.714 182.5 211.714C182.5 212.94 182.5 214.166 182.5 215.429C181.274 215.429 180.049 215.429 178.786 215.429C178.786 214.203 178.786 212.977 178.786 211.714Z" fill="#FAFAFA"/>
<path d="M182.5 208C183.726 208 184.951 208 186.214 208C186.214 209.226 186.214 210.451 186.214 211.714C184.989 211.714 183.763 211.714 182.5 211.714C182.5 210.489 182.5 209.263 182.5 208Z" fill="#FAFAFA"/>
<path d="M186.214 204.286C187.44 204.286 188.666 204.286 189.929 204.286C189.929 205.511 189.929 206.737 189.929 208C188.703 208 187.477 208 186.214 208C186.214 206.774 186.214 205.549 186.214 204.286Z" fill="#FAFAFA"/>
<path d="M126.786 204.286C128.011 204.286 129.237 204.286 130.5 204.286C130.5 205.511 130.5 206.737 130.5 208C129.274 208 128.049 208 126.786 208C126.786 206.774 126.786 205.549 126.786 204.286Z" fill="#FAFAFA"/>
<path d="M189.929 200.572C191.154 200.572 192.38 200.572 193.643 200.572C193.643 201.797 193.643 203.023 193.643 204.286C192.417 204.286 191.191 204.286 189.929 204.286C189.929 203.06 189.929 201.834 189.929 200.572Z" fill="#FAFAFA"/>
<path d="M182.5 196.857C183.726 196.857 184.951 196.857 186.214 196.857C186.214 198.083 186.214 199.309 186.214 200.571C184.989 200.571 183.763 200.571 182.5 200.571C182.5 199.346 182.5 198.12 182.5 196.857Z" fill="#FAFAFA"/>
<path d="M189.929 185.714C191.154 185.714 192.38 185.714 193.643 185.714C193.643 186.94 193.643 188.166 193.643 189.429C192.417 189.429 191.191 189.429 189.929 189.429C189.929 188.203 189.929 186.977 189.929 185.714Z" fill="#FAFAFA"/>
<path d="M193.643 182C194.869 182 196.094 182 197.357 182C197.357 183.226 197.357 184.451 197.357 185.714C196.131 185.714 194.906 185.714 193.643 185.714C193.643 184.489 193.643 183.263 193.643 182Z" fill="#FAFAFA"/>
<path d="M108.214 178.286C109.44 178.286 110.666 178.286 111.929 178.286C111.929 179.511 111.929 180.737 111.929 182C110.703 182 109.477 182 108.214 182C108.214 180.774 108.214 179.549 108.214 178.286Z" fill="#FAFAFA"/>
<path d="M97.0714 174.572C98.2971 174.572 99.5229 174.572 100.786 174.572C100.786 175.797 100.786 177.023 100.786 178.286C99.56 178.286 98.3343 178.286 97.0714 178.286C97.0714 177.06 97.0714 175.834 97.0714 174.572Z" fill="#FAFAFA"/>
<path d="M178.786 159.714C180.011 159.714 181.237 159.714 182.5 159.714C182.5 160.94 182.5 162.166 182.5 163.429C181.274 163.429 180.049 163.429 178.786 163.429C178.786 162.203 178.786 160.977 178.786 159.714Z" fill="#FAFAFA"/>
<path d="M182.5 156C183.726 156 184.951 156 186.214 156C186.214 157.226 186.214 158.451 186.214 159.714C184.989 159.714 183.763 159.714 182.5 159.714C182.5 158.489 182.5 157.263 182.5 156Z" fill="#FAFAFA"/>
<path d="M93.3571 156C94.5829 156 95.8086 156 97.0714 156C97.0714 157.226 97.0714 158.451 97.0714 159.714C95.8457 159.714 94.62 159.714 93.3571 159.714C93.3571 158.489 93.3571 157.263 93.3571 156Z" fill="#FAFAFA"/>
<path d="M71.0714 156C72.2971 156 73.5229 156 74.7857 156C74.7857 157.226 74.7857 158.451 74.7857 159.714C73.56 159.714 72.3343 159.714 71.0714 159.714C71.0714 158.489 71.0714 157.263 71.0714 156Z" fill="#FAFAFA"/>
<path d="M186.214 152.286C187.44 152.286 188.666 152.286 189.929 152.286C189.929 153.511 189.929 154.737 189.929 156C188.703 156 187.477 156 186.214 156C186.214 154.774 186.214 153.549 186.214 152.286Z" fill="#FAFAFA"/>
<path d="M163.929 152.286C165.154 152.286 166.38 152.286 167.643 152.286C167.643 153.511 167.643 154.737 167.643 156C166.417 156 165.191 156 163.929 156C163.929 154.774 163.929 153.549 163.929 152.286Z" fill="#FAFAFA"/>
<path d="M67.3571 152.286C68.5829 152.286 69.8086 152.286 71.0714 152.286C71.0714 153.511 71.0714 154.737 71.0714 156C69.8457 156 68.62 156 67.3571 156C67.3571 154.774 67.3571 153.549 67.3571 152.286Z" fill="#FAFAFA"/>
<path d="M189.929 148.572C191.154 148.572 192.38 148.572 193.643 148.572C193.643 149.797 193.643 151.023 193.643 152.286C192.417 152.286 191.191 152.286 189.929 152.286C189.929 151.06 189.929 149.834 189.929 148.572Z" fill="#FAFAFA"/>
<path d="M167.643 148.572C168.869 148.572 170.094 148.572 171.357 148.572C171.357 149.797 171.357 151.023 171.357 152.286C170.131 152.286 168.906 152.286 167.643 152.286C167.643 151.06 167.643 149.834 167.643 148.572Z" fill="#FAFAFA"/>
<path d="M82.2143 148.572C83.44 148.572 84.6657 148.572 85.9286 148.572C85.9286 149.797 85.9286 151.023 85.9286 152.286C84.7029 152.286 83.4772 152.286 82.2143 152.286C82.2143 151.06 82.2143 149.834 82.2143 148.572Z" fill="#FAFAFA"/>
<path d="M193.643 144.857C194.869 144.857 196.094 144.857 197.357 144.857C197.357 146.083 197.357 147.309 197.357 148.571C196.131 148.571 194.906 148.571 193.643 148.571C193.643 147.346 193.643 146.12 193.643 144.857Z" fill="#FAFAFA"/>
<path d="M171.357 144.857C172.583 144.857 173.809 144.857 175.071 144.857C175.071 146.083 175.071 147.309 175.071 148.571C173.846 148.571 172.62 148.571 171.357 148.571C171.357 147.346 171.357 146.12 171.357 144.857Z" fill="#FAFAFA"/>
<path d="M78.5 144.857C79.7257 144.857 80.9514 144.857 82.2143 144.857C82.2143 146.083 82.2143 147.309 82.2143 148.571C80.9886 148.571 79.7629 148.571 78.5 148.571C78.5 147.346 78.5 146.12 78.5 144.857Z" fill="#FAFAFA"/>
<path d="M74.7857 141.143C76.0114 141.143 77.2371 141.143 78.5 141.143C78.5 142.369 78.5 143.594 78.5 144.857C77.2743 144.857 76.0486 144.857 74.7857 144.857C74.7857 143.631 74.7857 142.406 74.7857 141.143Z" fill="#FAFAFA"/>
<path d="M134.214 139.286C135.44 139.286 136.666 139.286 137.929 139.286C137.929 140.511 137.929 141.737 137.929 143C136.703 143 135.477 143 134.214 143C134.214 141.774 134.214 140.549 134.214 139.286Z" fill="#FAFAFA"/>
<path d="M52.5 137.428C53.7257 137.428 54.9514 137.428 56.2143 137.428C56.2143 138.654 56.2143 139.88 56.2143 141.143C54.9886 141.143 53.7629 141.143 52.5 141.143C52.5 139.917 52.5 138.691 52.5 137.428Z" fill="#FAFAFA"/>
<path d="M201.071 133.714C202.297 133.714 203.523 133.714 204.786 133.714C204.786 134.94 204.786 136.166 204.786 137.429C203.56 137.429 202.334 137.429 201.071 137.429C201.071 136.203 201.071 134.977 201.071 133.714Z" fill="#FAFAFA"/>
<path d="M48.7857 133.714C50.0114 133.714 51.2371 133.714 52.5 133.714C52.5 134.94 52.5 136.166 52.5 137.429C51.2743 137.429 50.0486 137.429 48.7857 137.429C48.7857 136.203 48.7857 134.977 48.7857 133.714Z" fill="#FAFAFA"/>
<path d="M204.786 130C206.011 130 207.237 130 208.5 130C208.5 131.226 208.5 132.451 208.5 133.714C207.274 133.714 206.049 133.714 204.786 133.714C204.786 132.489 204.786 131.263 204.786 130Z" fill="#FAFAFA"/>
<path d="M104.5 124.428C105.726 124.428 106.951 124.428 108.214 124.428C108.214 125.654 108.214 126.88 108.214 128.143C106.989 128.143 105.763 128.143 104.5 128.143C104.5 126.917 104.5 125.691 104.5 124.428Z" fill="#FAFAFA"/>
<path d="M208.5 111.428C209.726 111.428 210.951 111.428 212.214 111.428C212.214 112.654 212.214 113.88 212.214 115.143C210.989 115.143 209.763 115.143 208.5 115.143C208.5 113.917 208.5 112.691 208.5 111.428Z" fill="#FAFAFA"/>
<path d="M48.7857 107.714C50.0114 107.714 51.2371 107.714 52.5 107.714C52.5 108.94 52.5 110.166 52.5 111.429C51.2743 111.429 50.0486 111.429 48.7857 111.429C48.7857 110.203 48.7857 108.977 48.7857 107.714Z" fill="#FAFAFA"/>
<path d="M52.5 104C53.7257 104 54.9514 104 56.2143 104C56.2143 105.226 56.2143 106.451 56.2143 107.714C54.9886 107.714 53.7629 107.714 52.5 107.714C52.5 106.489 52.5 105.263 52.5 104Z" fill="#FAFAFA"/>
<path d="M204.786 100.286C206.011 100.286 207.237 100.286 208.5 100.286C208.5 101.511 208.5 102.737 208.5 104C207.274 104 206.049 104 204.786 104C204.786 102.774 204.786 101.549 204.786 100.286Z" fill="#FAFAFA"/>
<path d="M150.929 100.286C152.154 100.286 153.38 100.286 154.643 100.286C154.643 101.511 154.643 102.737 154.643 104C153.417 104 152.191 104 150.929 104C150.929 102.774 150.929 101.549 150.929 100.286Z" fill="#FAFAFA"/>
<path d="M48.7857 100.286C50.0114 100.286 51.2371 100.286 52.5 100.286C52.5 101.511 52.5 102.737 52.5 104C51.2743 104 50.0486 104 48.7857 104C48.7857 102.774 48.7857 101.549 48.7857 100.286Z" fill="#FAFAFA"/>
<path d="M45.0714 96.5715C46.2971 96.5715 47.5229 96.5715 48.7857 96.5715C48.7857 97.7972 48.7857 99.023 48.7857 100.286C47.56 100.286 46.3343 100.286 45.0714 100.286C45.0714 99.0601 45.0714 97.8344 45.0714 96.5715Z" fill="#FAFAFA"/>
<path d="M137.929 91C139.154 91 140.38 91 141.643 91C141.643 92.2257 141.643 93.4514 141.643 94.7143C140.417 94.7143 139.191 94.7143 137.929 94.7143C137.929 93.4886 137.929 92.2629 137.929 91Z" fill="#FAFAFA"/>
<path d="M141.643 87.2856C142.869 87.2856 144.094 87.2856 145.357 87.2856C145.357 88.5114 145.357 89.7371 145.357 90.9999C144.131 90.9999 142.906 90.9999 141.643 90.9999C141.643 89.7742 141.643 88.5485 141.643 87.2856Z" fill="#FAFAFA"/>
<path d="M175.071 81.7144C176.297 81.7144 177.523 81.7144 178.786 81.7144C178.786 82.9401 178.786 84.1658 178.786 85.4286C177.56 85.4286 176.334 85.4286 175.071 85.4286C175.071 84.2029 175.071 82.9772 175.071 81.7144Z" fill="#FAFAFA"/>
<path d="M171.357 78C172.583 78 173.809 78 175.071 78C175.071 79.2257 175.071 80.4514 175.071 81.7143C173.846 81.7143 172.62 81.7143 171.357 81.7143C171.357 80.4886 171.357 79.2629 171.357 78Z" fill="#FAFAFA"/>
<path d="M204.786 74.2856C206.011 74.2856 207.237 74.2856 208.5 74.2856C208.5 75.5114 208.5 76.7371 208.5 77.9999C207.274 77.9999 206.049 77.9999 204.786 77.9999C204.786 76.7742 204.786 75.5485 204.786 74.2856Z" fill="#FAFAFA"/>
<path d="M201.071 70.5715C202.297 70.5715 203.523 70.5715 204.786 70.5715C204.786 71.7972 204.786 73.023 204.786 74.2858C203.56 74.2858 202.334 74.2858 201.071 74.2858C201.071 73.0601 201.071 71.8344 201.071 70.5715Z" fill="#FAFAFA"/>
<path d="M71.0714 70.5715C72.2971 70.5715 73.5229 70.5715 74.7857 70.5715C74.7857 71.7972 74.7857 73.023 74.7857 74.2858C73.56 74.2858 72.3343 74.2858 71.0714 74.2858C71.0714 73.0601 71.0714 71.8344 71.0714 70.5715Z" fill="#FAFAFA"/>
<path d="M197.357 66.8572C198.583 66.8572 199.809 66.8572 201.071 66.8572C201.071 68.0829 201.071 69.3086 201.071 70.5715C199.846 70.5715 198.62 70.5715 197.357 70.5715C197.357 69.3457 197.357 68.12 197.357 66.8572Z" fill="#FAFAFA"/>
<path d="M52.5 57.5715C53.7257 57.5715 54.9514 57.5715 56.2143 57.5715C56.2143 58.7972 56.2143 60.023 56.2143 61.2858C54.9886 61.2858 53.7629 61.2858 52.5 61.2858C52.5 60.0601 52.5 58.8344 52.5 57.5715Z" fill="#FAFAFA"/>
<path d="M171.357 55.7144C172.583 55.7144 173.809 55.7144 175.071 55.7144C175.071 56.9401 175.071 58.1658 175.071 59.4286C173.846 59.4286 172.62 59.4286 171.357 59.4286C171.357 58.2029 171.357 56.9772 171.357 55.7144Z" fill="#FAFAFA"/>
<path d="M134.214 55.7144C135.44 55.7144 136.666 55.7144 137.929 55.7144C137.929 56.9401 137.929 58.1658 137.929 59.4286C136.703 59.4286 135.477 59.4286 134.214 59.4286C134.214 58.2029 134.214 56.9772 134.214 55.7144Z" fill="#FAFAFA"/>
<path d="M56.2143 53.8572C57.44 53.8572 58.6657 53.8572 59.9286 53.8572C59.9286 55.0829 59.9286 56.3086 59.9286 57.5715C58.7029 57.5715 57.4771 57.5715 56.2143 57.5715C56.2143 56.3457 56.2143 55.12 56.2143 53.8572Z" fill="#FAFAFA"/>
<path d="M189.929 42.7144C191.154 42.7144 192.38 42.7144 193.643 42.7144C193.643 43.9401 193.643 45.1658 193.643 46.4286C192.417 46.4286 191.191 46.4286 189.929 46.4286C189.929 45.2029 189.929 43.9772 189.929 42.7144Z" fill="#FAFAFA"/>
<path d="M186.214 39C187.44 39 188.666 39 189.929 39C189.929 40.2257 189.929 41.4514 189.929 42.7143C188.703 42.7143 187.477 42.7143 186.214 42.7143C186.214 41.4886 186.214 40.2629 186.214 39Z" fill="#FAFAFA"/>
<path d="M182.5 35.2856C183.726 35.2856 184.951 35.2856 186.214 35.2856C186.214 36.5114 186.214 37.7371 186.214 38.9999C184.989 38.9999 183.763 38.9999 182.5 38.9999C182.5 37.7742 182.5 36.5485 182.5 35.2856Z" fill="#FAFAFA"/>
<path d="M137.929 35.2856C139.154 35.2856 140.38 35.2856 141.643 35.2856C141.643 36.5114 141.643 37.7371 141.643 38.9999C140.417 38.9999 139.191 38.9999 137.929 38.9999C137.929 37.7742 137.929 36.5485 137.929 35.2856Z" fill="#FAFAFA"/>
<path d="M85.9286 35.2856C87.1543 35.2856 88.38 35.2856 89.6429 35.2856C89.6429 36.5114 89.6429 37.7371 89.6429 38.9999C88.4171 38.9999 87.1914 38.9999 85.9286 38.9999C85.9286 37.7742 85.9286 36.5485 85.9286 35.2856Z" fill="#FAFAFA"/>
<path d="M134.214 31.5715C135.44 31.5715 136.666 31.5715 137.929 31.5715C137.929 32.7972 137.929 34.023 137.929 35.2858C136.703 35.2858 135.477 35.2858 134.214 35.2858C134.214 34.0601 134.214 32.8344 134.214 31.5715Z" fill="#FAFAFA"/>
<path d="M89.6429 31.5715C90.8686 31.5715 92.0943 31.5715 93.3571 31.5715C93.3571 32.7972 93.3571 34.023 93.3571 35.2858C92.1314 35.2858 90.9057 35.2858 89.6429 35.2858C89.6429 34.0601 89.6429 32.8344 89.6429 31.5715Z" fill="#FAFAFA"/>
<path d="M93.3571 27.8572C94.5829 27.8572 95.8086 27.8572 97.0714 27.8572C97.0714 29.0829 97.0714 30.3086 97.0714 31.5715C95.8457 31.5715 94.62 31.5715 93.3571 31.5715C93.3571 30.3457 93.3571 29.12 93.3571 27.8572Z" fill="#FAFAFA"/>
</svg>
