<svg width="260" height="260" viewBox="0 0 260 260" fill="none" xmlns="http://www.w3.org/2000/svg">
<path d="M124.428 117C127.493 117 130.557 117 133.714 117C133.714 118.226 133.714 119.451 133.714 120.714C132.488 120.714 131.263 120.714 130 120.714C130 121.94 130 123.166 130 124.429C130.613 124.429 131.226 124.429 131.857 124.429C131.857 125.041 131.857 125.654 131.857 126.286C133.083 126.286 134.308 126.286 135.571 126.286C135.571 126.899 135.571 127.511 135.571 128.143C136.797 128.143 138.023 128.143 139.286 128.143C139.286 129.981 139.286 131.82 139.286 133.714C138.673 133.714 138.06 133.714 137.428 133.714C137.428 134.327 137.428 134.94 137.428 135.571C136.816 135.571 136.203 135.571 135.571 135.571C135.571 136.184 135.571 136.797 135.571 137.429C134.958 137.429 134.346 137.429 133.714 137.429C133.714 138.654 133.714 139.88 133.714 141.143C133.101 141.143 132.488 141.143 131.857 141.143C131.857 141.756 131.857 142.369 131.857 143C131.244 143 130.631 143 130 143C130 143.613 130 144.226 130 144.857C129.387 144.857 128.774 144.857 128.143 144.857C128.143 144.244 128.143 143.631 128.143 143C127.53 143 126.917 143 126.286 143C126.286 142.387 126.286 141.774 126.286 141.143C125.673 141.143 125.06 141.143 124.428 141.143C124.428 139.917 124.428 138.691 124.428 137.429C123.816 137.429 123.203 137.429 122.571 137.429C122.571 135.59 122.571 133.751 122.571 131.857C121.346 131.857 120.12 131.857 118.857 131.857C118.857 130.631 118.857 129.406 118.857 128.143C120.083 128.143 121.308 128.143 122.571 128.143C122.571 127.53 122.571 126.917 122.571 126.286C123.797 126.286 125.023 126.286 126.286 126.286C126.286 125.673 126.286 125.06 126.286 124.429C126.898 124.429 127.511 124.429 128.143 124.429C128.143 123.203 128.143 121.977 128.143 120.714C126.917 120.714 125.691 120.714 124.428 120.714C124.428 119.489 124.428 118.263 124.428 117ZM126.286 128.143C126.286 128.756 126.286 129.369 126.286 130C125.673 130 125.06 130 124.428 130C124.428 131.226 124.428 132.451 124.428 133.714C125.041 133.714 125.654 133.714 126.286 133.714C126.286 134.94 126.286 136.166 126.286 137.429C126.898 137.429 127.511 137.429 128.143 137.429C128.143 138.654 128.143 139.88 128.143 141.143C128.756 141.143 129.368 141.143 130 141.143C130 139.917 130 138.691 130 137.429C130.613 137.429 131.226 137.429 131.857 137.429C131.857 136.203 131.857 134.977 131.857 133.714C132.47 133.714 133.083 133.714 133.714 133.714C133.714 132.489 133.714 131.263 133.714 130C133.101 130 132.488 130 131.857 130C131.857 129.387 131.857 128.774 131.857 128.143C130.018 128.143 128.18 128.143 126.286 128.143ZM135.571 131.857C135.571 132.47 135.571 133.083 135.571 133.714C136.184 133.714 136.797 133.714 137.428 133.714C137.428 133.101 137.428 132.489 137.428 131.857C136.816 131.857 136.203 131.857 135.571 131.857Z" fill="#17171B"/>
<path d="M156 70.5713C159.677 70.5713 163.354 70.5713 167.143 70.5713C167.143 71.797 167.143 73.0227 167.143 74.2856C168.369 74.2856 169.594 74.2856 170.857 74.2856C170.857 75.5113 170.857 76.737 170.857 77.9999C172.083 77.9999 173.309 77.9999 174.572 77.9999C174.572 80.4513 174.572 82.9027 174.572 85.4284C171.507 85.4284 168.443 85.4284 165.286 85.4284C165.286 84.2027 165.286 82.977 165.286 81.7141C162.834 81.7141 160.383 81.7141 157.857 81.7141C157.857 80.4884 157.857 79.2627 157.857 77.9999C156.632 77.9999 155.406 77.9999 154.143 77.9999C154.143 76.7741 154.143 75.5484 154.143 74.2856C154.756 74.2856 155.369 74.2856 156 74.2856C156 73.0599 156 71.8341 156 70.5713Z" fill="#FAD6A1"/>
<path d="M90.9999 70.5713C94.677 70.5713 98.3541 70.5713 102.143 70.5713C102.143 71.797 102.143 73.0227 102.143 74.2856C102.756 74.2856 103.368 74.2856 104 74.2856C104 75.5113 104 76.737 104 77.9999C102.774 77.9999 101.548 77.9999 100.286 77.9999C100.286 79.2256 100.286 80.4513 100.286 81.7141C97.8341 81.7141 95.3827 81.7141 92.857 81.7141C92.857 82.9399 92.857 84.1656 92.857 85.4284C89.7927 85.4284 86.7284 85.4284 83.5713 85.4284C83.5713 82.977 83.5713 80.5256 83.5713 77.9999C84.797 77.9999 86.0227 77.9999 87.2856 77.9999C87.2856 76.7741 87.2856 75.5484 87.2856 74.2856C88.5113 74.2856 89.737 74.2856 90.9999 74.2856C90.9999 73.0599 90.9999 71.8341 90.9999 70.5713Z" fill="#FAD6A1"/>
<path d="M109.571 163.429C122.441 163.429 135.311 163.429 148.571 163.429C148.571 164.654 148.571 165.88 148.571 167.143C135.701 167.143 122.831 167.143 109.571 167.143C109.571 165.917 109.571 164.692 109.571 163.429Z" fill="#17171B"/>
<path d="M137.428 70.5713C138.654 70.5713 139.88 70.5713 141.143 70.5713C141.143 74.2484 141.143 77.9256 141.143 81.7141C140.53 81.7141 139.917 81.7141 139.286 81.7141C139.286 85.3913 139.286 89.0684 139.286 92.857C136.834 92.857 134.383 92.857 131.857 92.857C131.857 91.6313 131.857 90.4056 131.857 89.1427C133.083 89.1427 134.308 89.1427 135.571 89.1427C135.571 86.6913 135.571 84.2399 135.571 81.7141C136.184 81.7141 136.797 81.7141 137.428 81.7141C137.428 78.037 137.428 74.3599 137.428 70.5713Z" fill="#17171B"/>
<path d="M148.571 59.4287C157.151 59.4287 165.731 59.4287 174.571 59.4287C174.571 60.6544 174.571 61.8801 174.571 63.143C165.991 63.143 157.411 63.143 148.571 63.143C148.571 61.9173 148.571 60.6916 148.571 59.4287Z" fill="#17171B"/>
<path d="M83.5713 59.4287C92.1513 59.4287 100.731 59.4287 109.571 59.4287C109.571 60.6544 109.571 61.8801 109.571 63.143C100.991 63.143 92.4113 63.143 83.5713 63.143C83.5713 61.9173 83.5713 60.6916 83.5713 59.4287Z" fill="#17171B"/>
<path d="M117 22.2856C124.967 22.2856 132.934 22.2856 141.143 22.2856C141.143 23.5114 141.143 24.7371 141.143 25.9999C133.176 25.9999 125.209 25.9999 117 25.9999C117 24.7742 117 23.5485 117 22.2856Z" fill="#17171B"/>
<path d="M94.7144 219.143C98.3915 219.143 102.069 219.143 105.857 219.143C105.857 222.82 105.857 226.497 105.857 230.286C104.631 230.286 103.406 230.286 102.143 230.286C102.143 227.834 102.143 225.383 102.143 222.857C99.6915 222.857 97.2401 222.857 94.7144 222.857C94.7144 221.632 94.7144 220.406 94.7144 219.143Z" fill="#17171B"/>
<path d="M105.857 208C107.083 208 108.309 208 109.572 208C109.572 211.677 109.572 215.354 109.572 219.143C108.346 219.143 107.12 219.143 105.857 219.143C105.857 217.917 105.857 216.691 105.857 215.429C103.406 215.429 100.954 215.429 98.4287 215.429C98.4287 214.203 98.4287 212.977 98.4287 211.714C100.88 211.714 103.332 211.714 105.857 211.714C105.857 210.489 105.857 209.263 105.857 208Z" fill="#17171B"/>
<path d="M94.7144 174.571C99.6172 174.571 104.52 174.571 109.571 174.571C109.571 177.023 109.571 179.474 109.571 182C108.346 182 107.12 182 105.857 182C105.857 180.774 105.857 179.548 105.857 178.286C102.18 178.286 98.5029 178.286 94.7144 178.286C94.7144 177.06 94.7144 175.834 94.7144 174.571Z" fill="#17171B"/>
<path d="M72.4287 115.143C73.6544 115.143 74.8801 115.143 76.143 115.143C76.143 118.82 76.143 122.497 76.143 126.286C77.3687 126.286 78.5944 126.286 79.8573 126.286C79.8573 127.512 79.8573 128.737 79.8573 130C77.4059 130 74.9544 130 72.4287 130C72.4287 125.097 72.4287 120.194 72.4287 115.143Z" fill="#17171B"/>
<path d="M185.714 111.429C186.94 111.429 188.166 111.429 189.429 111.429C189.429 117.557 189.429 123.686 189.429 130C188.203 130 186.977 130 185.714 130C185.714 123.872 185.714 117.743 185.714 111.429Z" fill="#17171B"/>
<path d="M204.286 63.1431C205.511 63.1431 206.737 63.1431 208 63.1431C208 69.2716 208 75.4002 208 81.7145C206.774 81.7145 205.549 81.7145 204.286 81.7145C204.286 75.5859 204.286 69.4574 204.286 63.1431Z" fill="#17171B"/>
<path d="M50.1431 63.1431C51.3688 63.1431 52.5945 63.1431 53.8574 63.1431C53.8574 69.2716 53.8574 75.4002 53.8574 81.7145C52.6316 81.7145 51.4059 81.7145 50.1431 81.7145C50.1431 75.5859 50.1431 69.4574 50.1431 63.1431Z" fill="#17171B"/>
<path d="M120.714 215.429C126.23 215.429 131.746 215.429 137.429 215.429C137.429 216.654 137.429 217.88 137.429 219.143C131.913 219.143 126.397 219.143 120.714 219.143C120.714 217.917 120.714 216.692 120.714 215.429Z" fill="#17171B"/>
<path d="M68.7144 185.714C69.9401 185.714 71.1658 185.714 72.4286 185.714C72.4286 190.617 72.4286 195.52 72.4286 200.571C71.2029 200.571 69.9772 200.571 68.7144 200.571C68.7144 195.669 68.7144 190.766 68.7144 185.714Z" fill="#17171B"/>
<path d="M152.286 182C153.511 182 154.737 182 156 182C156 183.226 156 184.451 156 185.714C157.226 185.714 158.451 185.714 159.714 185.714C159.714 186.94 159.714 188.166 159.714 189.429C158.489 189.429 157.263 189.429 156 189.429C156 190.654 156 191.88 156 193.143C154.774 193.143 153.549 193.143 152.286 193.143C152.286 189.466 152.286 185.789 152.286 182Z" fill="#17171B"/>
<path d="M148.571 159.714C152.248 159.714 155.926 159.714 159.714 159.714C159.714 160.94 159.714 162.166 159.714 163.429C158.488 163.429 157.263 163.429 156 163.429C156 164.654 156 165.88 156 167.143C154.774 167.143 153.548 167.143 152.286 167.143C152.286 165.917 152.286 164.691 152.286 163.429C151.06 163.429 149.834 163.429 148.571 163.429C148.571 162.203 148.571 160.977 148.571 159.714Z" fill="#17171B"/>
<path d="M83.5713 133.714C84.797 133.714 86.0227 133.714 87.2856 133.714C87.2856 138.617 87.2856 143.52 87.2856 148.571C86.0599 148.571 84.8341 148.571 83.5713 148.571C83.5713 143.669 83.5713 138.766 83.5713 133.714Z" fill="#17171B"/>
<path d="M61.2856 115.143C62.5113 115.143 63.737 115.143 64.9999 115.143C64.9999 118.82 64.9999 122.497 64.9999 126.286C62.5484 126.286 60.097 126.286 57.5713 126.286C57.5713 125.06 57.5713 123.834 57.5713 122.572C58.797 122.572 60.0227 122.572 61.2856 122.572C61.2856 120.12 61.2856 117.669 61.2856 115.143Z" fill="#17171B"/>
<path d="M211.714 100.286C212.94 100.286 214.166 100.286 215.429 100.286C215.429 105.189 215.429 110.091 215.429 115.143C214.203 115.143 212.977 115.143 211.714 115.143C211.714 110.24 211.714 105.337 211.714 100.286Z" fill="#17171B"/>
<path d="M42.7144 100.286C43.9401 100.286 45.1658 100.286 46.4286 100.286C46.4286 105.189 46.4286 110.091 46.4286 115.143C45.2029 115.143 43.9772 115.143 42.7144 115.143C42.7144 110.24 42.7144 105.337 42.7144 100.286Z" fill="#17171B"/>
<path d="M182 96.5713C183.226 96.5713 184.451 96.5713 185.714 96.5713C185.714 101.474 185.714 106.377 185.714 111.428C184.489 111.428 183.263 111.428 182 111.428C182 106.526 182 101.623 182 96.5713Z" fill="#17171B"/>
<path d="M72.4287 96.5713C73.6544 96.5713 74.8801 96.5713 76.143 96.5713C76.143 101.474 76.143 106.377 76.143 111.428C74.9173 111.428 73.6916 111.428 72.4287 111.428C72.4287 106.526 72.4287 101.623 72.4287 96.5713Z" fill="#17171B"/>
<path d="M185.714 74.2856C186.94 74.2856 188.166 74.2856 189.429 74.2856C189.429 79.1885 189.429 84.0914 189.429 89.1428C188.203 89.1428 186.977 89.1428 185.714 89.1428C185.714 84.2399 185.714 79.3371 185.714 74.2856Z" fill="#17171B"/>
<path d="M68.7144 74.2856C69.9401 74.2856 71.1658 74.2856 72.4286 74.2856C72.4286 79.1885 72.4286 84.0914 72.4286 89.1428C71.2029 89.1428 69.9772 89.1428 68.7144 89.1428C68.7144 84.2399 68.7144 79.3371 68.7144 74.2856Z" fill="#17171B"/>
<path d="M163.429 37.1431C168.332 37.1431 173.234 37.1431 178.286 37.1431C178.286 38.3688 178.286 39.5945 178.286 40.8574C173.383 40.8574 168.48 40.8574 163.429 40.8574C163.429 39.6316 163.429 38.4059 163.429 37.1431Z" fill="#17171B"/>
<path d="M79.8569 37.1431C84.7598 37.1431 89.6626 37.1431 94.7141 37.1431C94.7141 38.3688 94.7141 39.5945 94.7141 40.8574C89.8112 40.8574 84.9084 40.8574 79.8569 40.8574C79.8569 39.6316 79.8569 38.4059 79.8569 37.1431Z" fill="#17171B"/>
<path d="M144.857 234C148.534 234 152.211 234 156 234C156 235.226 156 236.451 156 237.714C152.323 237.714 148.646 237.714 144.857 237.714C144.857 236.489 144.857 235.263 144.857 234Z" fill="#17171B"/>
<path d="M102.143 234C105.82 234 109.497 234 113.286 234C113.286 235.226 113.286 236.451 113.286 237.714C109.609 237.714 105.932 237.714 102.143 237.714C102.143 236.489 102.143 235.263 102.143 234Z" fill="#17171B"/>
<path d="M152.286 219.143C153.511 219.143 154.737 219.143 156 219.143C156 222.82 156 226.497 156 230.286C154.774 230.286 153.549 230.286 152.286 230.286C152.286 226.609 152.286 222.932 152.286 219.143Z" fill="#17171B"/>
<path d="M148.571 208C149.797 208 151.023 208 152.286 208C152.286 211.677 152.286 215.354 152.286 219.143C151.06 219.143 149.834 219.143 148.571 219.143C148.571 215.466 148.571 211.789 148.571 208Z" fill="#17171B"/>
<path d="M79.8574 200.571C81.0831 200.571 82.3088 200.571 83.5716 200.571C83.5716 203.023 83.5716 205.474 83.5716 208C81.1202 208 78.6688 208 76.1431 208C76.1431 206.774 76.1431 205.548 76.1431 204.286C77.3688 204.286 78.5945 204.286 79.8574 204.286C79.8574 203.06 79.8574 201.834 79.8574 200.571Z" fill="#17171B"/>
<path d="M91 189.429C92.2257 189.429 93.4514 189.429 94.7143 189.429C94.7143 193.106 94.7143 196.783 94.7143 200.572C93.4886 200.572 92.2629 200.572 91 200.572C91 196.894 91 193.217 91 189.429Z" fill="#17171B"/>
<path d="M102.143 182C103.369 182 104.594 182 105.857 182C105.857 185.677 105.857 189.354 105.857 193.143C104.632 193.143 103.406 193.143 102.143 193.143C102.143 189.466 102.143 185.789 102.143 182Z" fill="#17171B"/>
<path d="M72.4287 178.286C74.8801 178.286 77.3316 178.286 79.8573 178.286C79.8573 179.511 79.8573 180.737 79.8573 182C78.6316 182 77.4059 182 76.143 182C76.143 183.226 76.143 184.451 76.143 185.714C74.9173 185.714 73.6916 185.714 72.4287 185.714C72.4287 183.263 72.4287 180.811 72.4287 178.286Z" fill="#17171B"/>
<path d="M98.4287 159.714C102.106 159.714 105.783 159.714 109.572 159.714C109.572 160.94 109.572 162.166 109.572 163.429C105.894 163.429 102.217 163.429 98.4287 163.429C98.4287 162.203 98.4287 160.977 98.4287 159.714Z" fill="#17171B"/>
<path d="M50.1431 137.429C51.3688 137.429 52.5945 137.429 53.8574 137.429C53.8574 141.106 53.8574 144.783 53.8574 148.572C52.6316 148.572 51.4059 148.572 50.1431 148.572C50.1431 144.894 50.1431 141.217 50.1431 137.429Z" fill="#17171B"/>
<path d="M154.143 126.286C157.82 126.286 161.497 126.286 165.286 126.286C165.286 127.511 165.286 128.737 165.286 130C161.609 130 157.932 130 154.143 130C154.143 128.774 154.143 127.549 154.143 126.286Z" fill="#F6BDB8"/>
<path d="M92.8569 126.286C96.5341 126.286 100.211 126.286 104 126.286C104 127.511 104 128.737 104 130C100.323 130 96.6455 130 92.8569 130C92.8569 128.774 92.8569 127.549 92.8569 126.286Z" fill="#F6BDB8"/>
<path d="M146.714 92.8569C147.94 92.8569 149.166 92.8569 150.429 92.8569C150.429 93.4698 150.429 94.0826 150.429 94.7141C151.654 94.7141 152.88 94.7141 154.143 94.7141C154.143 95.9398 154.143 97.1655 154.143 98.4284C152.917 98.4284 151.691 98.4284 150.429 98.4284C150.429 97.8155 150.429 97.2026 150.429 96.5712C149.203 96.5712 147.977 96.5712 146.714 96.5712C146.714 97.1841 146.714 97.7969 146.714 98.4284C145.489 98.4284 144.263 98.4284 143 98.4284C143 97.2026 143 95.9769 143 94.7141C144.226 94.7141 145.451 94.7141 146.714 94.7141C146.714 94.1012 146.714 93.4884 146.714 92.8569Z" fill="#17171B"/>
<path d="M107.714 92.8569C108.94 92.8569 110.166 92.8569 111.429 92.8569C111.429 93.4698 111.429 94.0826 111.429 94.7141C112.654 94.7141 113.88 94.7141 115.143 94.7141C115.143 95.9398 115.143 97.1655 115.143 98.4284C113.917 98.4284 112.691 98.4284 111.429 98.4284C111.429 97.8155 111.429 97.2026 111.429 96.5712C110.203 96.5712 108.977 96.5712 107.714 96.5712C107.714 97.1841 107.714 97.7969 107.714 98.4284C106.489 98.4284 105.263 98.4284 104 98.4284C104 97.2026 104 95.9769 104 94.7141C105.226 94.7141 106.451 94.7141 107.714 94.7141C107.714 94.1012 107.714 93.4884 107.714 92.8569Z" fill="#17171B"/>
<path d="M117 70.5713C118.226 70.5713 119.451 70.5713 120.714 70.5713C120.714 74.2484 120.714 77.9256 120.714 81.7141C119.489 81.7141 118.263 81.7141 117 81.7141C117 78.037 117 74.3599 117 70.5713Z" fill="#17171B"/>
<path d="M141.143 226.571C142.369 226.571 143.594 226.571 144.857 226.571C144.857 229.023 144.857 231.474 144.857 234C143.632 234 142.406 234 141.143 234C141.143 231.548 141.143 229.097 141.143 226.571Z" fill="#17171B"/>
<path d="M113.286 226.571C114.511 226.571 115.737 226.571 117 226.571C117 229.023 117 231.474 117 234C115.774 234 114.549 234 113.286 234C113.286 231.548 113.286 229.097 113.286 226.571Z" fill="#17171B"/>
<path d="M137.429 219.143C138.654 219.143 139.88 219.143 141.143 219.143C141.143 221.594 141.143 224.046 141.143 226.572C139.917 226.572 138.692 226.572 137.429 226.572C137.429 224.12 137.429 221.669 137.429 219.143Z" fill="#17171B"/>
<path d="M117 219.143C118.226 219.143 119.451 219.143 120.714 219.143C120.714 221.594 120.714 224.046 120.714 226.572C119.489 226.572 118.263 226.572 117 226.572C117 224.12 117 221.669 117 219.143Z" fill="#17171B"/>
<path d="M174.571 200.571C177.023 200.571 179.474 200.571 182 200.571C182 201.797 182 203.023 182 204.286C179.548 204.286 177.097 204.286 174.571 204.286C174.571 203.06 174.571 201.834 174.571 200.571Z" fill="#17171B"/>
<path d="M152.286 200.571C153.511 200.571 154.737 200.571 156 200.571C156 203.023 156 205.474 156 208C154.774 208 153.549 208 152.286 208C152.286 205.548 152.286 203.097 152.286 200.571Z" fill="#17171B"/>
<path d="M102.143 200.571C103.369 200.571 104.594 200.571 105.857 200.571C105.857 203.023 105.857 205.474 105.857 208C104.632 208 103.406 208 102.143 208C102.143 205.548 102.143 203.097 102.143 200.571Z" fill="#17171B"/>
<path d="M167.143 196.857C168.369 196.857 169.594 196.857 170.857 196.857C170.857 199.308 170.857 201.76 170.857 204.286C169.632 204.286 168.406 204.286 167.143 204.286C167.143 201.834 167.143 199.383 167.143 196.857Z" fill="#17171B"/>
<path d="M182 193.143C183.226 193.143 184.451 193.143 185.714 193.143C185.714 195.594 185.714 198.046 185.714 200.572C184.489 200.572 183.263 200.572 182 200.572C182 198.12 182 195.669 182 193.143Z" fill="#17171B"/>
<path d="M156 193.143C157.226 193.143 158.451 193.143 159.714 193.143C159.714 195.594 159.714 198.046 159.714 200.572C158.489 200.572 157.263 200.572 156 200.572C156 198.12 156 195.669 156 193.143Z" fill="#17171B"/>
<path d="M98.4287 193.143C99.6544 193.143 100.88 193.143 102.143 193.143C102.143 195.594 102.143 198.046 102.143 200.572C100.917 200.572 99.6916 200.572 98.4287 200.572C98.4287 198.12 98.4287 195.669 98.4287 193.143Z" fill="#17171B"/>
<path d="M174.571 189.429C177.023 189.429 179.474 189.429 182 189.429C182 190.654 182 191.88 182 193.143C179.548 193.143 177.097 193.143 174.571 193.143C174.571 191.917 174.571 190.692 174.571 189.429Z" fill="#17171B"/>
<path d="M79.8569 182C82.3084 182 84.7598 182 87.2855 182C87.2855 183.226 87.2855 184.451 87.2855 185.714C84.8341 185.714 82.3826 185.714 79.8569 185.714C79.8569 184.489 79.8569 183.263 79.8569 182Z" fill="#17171B"/>
<path d="M167.143 178.286C168.369 178.286 169.594 178.286 170.857 178.286C170.857 180.737 170.857 183.189 170.857 185.714C169.632 185.714 168.406 185.714 167.143 185.714C167.143 183.263 167.143 180.811 167.143 178.286Z" fill="#17171B"/>
<path d="M148.571 174.571C149.797 174.571 151.023 174.571 152.286 174.571C152.286 177.023 152.286 179.474 152.286 182C151.06 182 149.834 182 148.571 182C148.571 179.548 148.571 177.097 148.571 174.571Z" fill="#17171B"/>
<path d="M87.2856 170.857C89.7371 170.857 92.1885 170.857 94.7142 170.857C94.7142 172.083 94.7142 173.308 94.7142 174.571C92.2628 174.571 89.8114 174.571 87.2856 174.571C87.2856 173.346 87.2856 172.12 87.2856 170.857Z" fill="#17171B"/>
<path d="M79.8569 167.143C82.3084 167.143 84.7598 167.143 87.2855 167.143C87.2855 168.369 87.2855 169.594 87.2855 170.857C84.8341 170.857 82.3826 170.857 79.8569 170.857C79.8569 169.632 79.8569 168.406 79.8569 167.143Z" fill="#17171B"/>
<path d="M72.4287 163.429C74.8801 163.429 77.3316 163.429 79.8573 163.429C79.8573 164.654 79.8573 165.88 79.8573 167.143C77.4059 167.143 74.9544 167.143 72.4287 167.143C72.4287 165.917 72.4287 164.692 72.4287 163.429Z" fill="#17171B"/>
<path d="M170.857 156C173.308 156 175.76 156 178.286 156C178.286 157.226 178.286 158.451 178.286 159.714C175.834 159.714 173.383 159.714 170.857 159.714C170.857 158.489 170.857 157.263 170.857 156Z" fill="#17171B"/>
<path d="M159.714 156C162.166 156 164.617 156 167.143 156C167.143 157.226 167.143 158.451 167.143 159.714C164.691 159.714 162.24 159.714 159.714 159.714C159.714 158.489 159.714 157.263 159.714 156Z" fill="#17171B"/>
<path d="M178.286 152.286C180.737 152.286 183.189 152.286 185.714 152.286C185.714 153.511 185.714 154.737 185.714 156C183.263 156 180.811 156 178.286 156C178.286 154.774 178.286 153.549 178.286 152.286Z" fill="#17171B"/>
<path d="M57.5713 152.286C60.0227 152.286 62.4741 152.286 64.9999 152.286C64.9999 153.511 64.9999 154.737 64.9999 156C62.5484 156 60.097 156 57.5713 156C57.5713 154.774 57.5713 153.549 57.5713 152.286Z" fill="#17171B"/>
<path d="M189.429 141.143C190.654 141.143 191.88 141.143 193.143 141.143C193.143 143.594 193.143 146.046 193.143 148.572C191.917 148.572 190.692 148.572 189.429 148.572C189.429 146.12 189.429 143.669 189.429 141.143Z" fill="#17171B"/>
<path d="M178.286 137.429C179.511 137.429 180.737 137.429 182 137.429C182 139.88 182 142.332 182 144.857C180.774 144.857 179.549 144.857 178.286 144.857C178.286 142.406 178.286 139.954 178.286 137.429Z" fill="#17171B"/>
<path d="M193.143 133.714C194.369 133.714 195.594 133.714 196.857 133.714C196.857 136.166 196.857 138.617 196.857 141.143C195.632 141.143 194.406 141.143 193.143 141.143C193.143 138.691 193.143 136.24 193.143 133.714Z" fill="#17171B"/>
<path d="M65 133.714C66.2257 133.714 67.4514 133.714 68.7143 133.714C68.7143 136.166 68.7143 138.617 68.7143 141.143C67.4886 141.143 66.2629 141.143 65 141.143C65 138.691 65 136.24 65 133.714Z" fill="#17171B"/>
<path d="M182 130C183.226 130 184.451 130 185.714 130C185.714 132.451 185.714 134.903 185.714 137.429C184.489 137.429 183.263 137.429 182 137.429C182 134.977 182 132.526 182 130Z" fill="#17171B"/>
<path d="M42.7144 118.857C43.9401 118.857 45.1658 118.857 46.4286 118.857C46.4286 121.308 46.4286 123.76 46.4286 126.286C45.2029 126.286 43.9772 126.286 42.7144 126.286C42.7144 123.834 42.7144 121.383 42.7144 118.857Z" fill="#17171B"/>
<path d="M148.571 117C149.797 117 151.023 117 152.286 117C152.286 117.613 152.286 118.226 152.286 118.857C153.511 118.857 154.737 118.857 156 118.857C156 120.083 156 121.309 156 122.571C154.774 122.571 153.548 122.571 152.286 122.571C152.286 121.959 152.286 121.346 152.286 120.714C151.06 120.714 149.834 120.714 148.571 120.714C148.571 119.489 148.571 118.263 148.571 117Z" fill="#17171B"/>
<path d="M105.857 117C107.083 117 108.309 117 109.572 117C109.572 118.226 109.572 119.451 109.572 120.714C108.346 120.714 107.12 120.714 105.857 120.714C105.857 121.327 105.857 121.94 105.857 122.571C104.632 122.571 103.406 122.571 102.143 122.571C102.143 121.346 102.143 120.12 102.143 118.857C103.369 118.857 104.594 118.857 105.857 118.857C105.857 118.244 105.857 117.631 105.857 117Z" fill="#17171B"/>
<path d="M208 115.143C209.226 115.143 210.451 115.143 211.714 115.143C211.714 117.594 211.714 120.046 211.714 122.572C210.489 122.572 209.263 122.572 208 122.572C208 120.12 208 117.669 208 115.143Z" fill="#17171B"/>
<path d="M46.4287 115.143C48.8801 115.143 51.3316 115.143 53.8573 115.143C53.8573 116.369 53.8573 117.594 53.8573 118.857C51.4059 118.857 48.9544 118.857 46.4287 118.857C46.4287 117.632 46.4287 116.406 46.4287 115.143Z" fill="#17171B"/>
<path d="M65 111.429C67.4514 111.429 69.9029 111.429 72.4286 111.429C72.4286 112.654 72.4286 113.88 72.4286 115.143C69.9771 115.143 67.5257 115.143 65 115.143C65 113.917 65 112.692 65 111.429Z" fill="#17171B"/>
<path d="M152.286 107.714C153.511 107.714 154.737 107.714 156 107.714C156 108.94 156 110.166 156 111.429C154.774 111.429 153.548 111.429 152.286 111.429C152.286 112.041 152.286 112.654 152.286 113.286C151.06 113.286 149.834 113.286 148.571 113.286C148.571 112.06 148.571 110.834 148.571 109.571C149.797 109.571 151.023 109.571 152.286 109.571C152.286 108.959 152.286 108.346 152.286 107.714Z" fill="#17171B"/>
<path d="M102.143 107.714C103.369 107.714 104.594 107.714 105.857 107.714C105.857 108.327 105.857 108.94 105.857 109.571C107.083 109.571 108.309 109.571 109.572 109.571C109.572 110.797 109.572 112.023 109.572 113.286C108.346 113.286 107.12 113.286 105.857 113.286C105.857 112.673 105.857 112.06 105.857 111.429C104.632 111.429 103.406 111.429 102.143 111.429C102.143 110.203 102.143 108.977 102.143 107.714Z" fill="#17171B"/>
<path d="M208 92.8569C209.226 92.8569 210.451 92.8569 211.714 92.8569C211.714 95.3084 211.714 97.7598 211.714 100.286C210.489 100.286 209.263 100.286 208 100.286C208 97.8341 208 95.3826 208 92.8569Z" fill="#17171B"/>
<path d="M46.4287 92.8569C47.6544 92.8569 48.8801 92.8569 50.143 92.8569C50.143 95.3084 50.143 97.7598 50.143 100.286C48.9173 100.286 47.6916 100.286 46.4287 100.286C46.4287 97.8341 46.4287 95.3826 46.4287 92.8569Z" fill="#17171B"/>
<path d="M124.429 85.4287C126.88 85.4287 129.332 85.4287 131.857 85.4287C131.857 86.6544 131.857 87.8801 131.857 89.143C129.406 89.143 126.954 89.143 124.429 89.143C124.429 87.9173 124.429 86.6916 124.429 85.4287Z" fill="#17171B"/>
<path d="M200.571 81.7144C201.797 81.7144 203.023 81.7144 204.286 81.7144C204.286 84.1658 204.286 86.6172 204.286 89.1429C203.06 89.1429 201.834 89.1429 200.571 89.1429C200.571 86.6915 200.571 84.2401 200.571 81.7144Z" fill="#17171B"/>
<path d="M53.8569 81.7144C55.0826 81.7144 56.3084 81.7144 57.5712 81.7144C57.5712 84.1658 57.5712 86.6172 57.5712 89.1429C56.3455 89.1429 55.1198 89.1429 53.8569 89.1429C53.8569 86.6915 53.8569 84.2401 53.8569 81.7144Z" fill="#17171B"/>
<path d="M200.571 55.7144C201.797 55.7144 203.023 55.7144 204.286 55.7144C204.286 58.1658 204.286 60.6172 204.286 63.1429C203.06 63.1429 201.834 63.1429 200.571 63.1429C200.571 60.6915 200.571 58.2401 200.571 55.7144Z" fill="#17171B"/>
<path d="M53.8569 55.7144C55.0826 55.7144 56.3084 55.7144 57.5712 55.7144C57.5712 58.1658 57.5712 60.6172 57.5712 63.1429C56.3455 63.1429 55.1198 63.1429 53.8569 63.1429C53.8569 60.6915 53.8569 58.2401 53.8569 55.7144Z" fill="#17171B"/>
<path d="M185.714 44.5713C188.166 44.5713 190.617 44.5713 193.143 44.5713C193.143 45.797 193.143 47.0227 193.143 48.2856C190.691 48.2856 188.24 48.2856 185.714 48.2856C185.714 47.0599 185.714 45.8341 185.714 44.5713Z" fill="#17171B"/>
<path d="M65 44.5713C67.4514 44.5713 69.9029 44.5713 72.4286 44.5713C72.4286 45.797 72.4286 47.0227 72.4286 48.2856C69.9771 48.2856 67.5257 48.2856 65 48.2856C65 47.0599 65 45.8341 65 44.5713Z" fill="#17171B"/>
<path d="M178.286 40.8569C180.737 40.8569 183.189 40.8569 185.714 40.8569C185.714 42.0826 185.714 43.3084 185.714 44.5712C183.263 44.5712 180.811 44.5712 178.286 44.5712C178.286 43.3455 178.286 42.1198 178.286 40.8569Z" fill="#17171B"/>
<path d="M156 40.8569C158.451 40.8569 160.903 40.8569 163.429 40.8569C163.429 42.0826 163.429 43.3084 163.429 44.5712C160.977 44.5712 158.526 44.5712 156 44.5712C156 43.3455 156 42.1198 156 40.8569Z" fill="#17171B"/>
<path d="M94.7144 40.8569C97.1658 40.8569 99.6172 40.8569 102.143 40.8569C102.143 42.0826 102.143 43.3084 102.143 44.5712C99.6915 44.5712 97.2401 44.5712 94.7144 44.5712C94.7144 43.3455 94.7144 42.1198 94.7144 40.8569Z" fill="#17171B"/>
<path d="M72.4287 40.8569C74.8801 40.8569 77.3316 40.8569 79.8573 40.8569C79.8573 42.0826 79.8573 43.3084 79.8573 44.5712C77.4059 44.5712 74.9544 44.5712 72.4287 44.5712C72.4287 43.3455 72.4287 42.1198 72.4287 40.8569Z" fill="#17171B"/>
<path d="M152.286 33.4287C153.511 33.4287 154.737 33.4287 156 33.4287C156 35.8801 156 38.3316 156 40.8573C154.774 40.8573 153.549 40.8573 152.286 40.8573C152.286 38.4059 152.286 35.9544 152.286 33.4287Z" fill="#17171B"/>
<path d="M102.143 33.4287C103.369 33.4287 104.594 33.4287 105.857 33.4287C105.857 35.8801 105.857 38.3316 105.857 40.8573C104.632 40.8573 103.406 40.8573 102.143 40.8573C102.143 38.4059 102.143 35.9544 102.143 33.4287Z" fill="#17171B"/>
<path d="M141.143 26C143.594 26 146.046 26 148.572 26C148.572 27.2257 148.572 28.4514 148.572 29.7143C146.12 29.7143 143.669 29.7143 141.143 29.7143C141.143 28.4886 141.143 27.2629 141.143 26Z" fill="#17171B"/>
<path d="M109.571 26C112.023 26 114.474 26 117 26C117 27.2257 117 28.4514 117 29.7143C114.548 29.7143 112.097 29.7143 109.571 29.7143C109.571 28.4886 109.571 27.2629 109.571 26Z" fill="#17171B"/>
<path d="M126.286 198.714C126.899 198.714 127.511 198.714 128.143 198.714C128.143 199.327 128.143 199.94 128.143 200.571C128.756 200.571 129.369 200.571 130 200.571C130 199.959 130 199.346 130 198.714C130.613 198.714 131.226 198.714 131.857 198.714C131.857 200.553 131.857 202.391 131.857 204.286C131.244 204.286 130.631 204.286 130 204.286C130 203.673 130 203.06 130 202.429C129.387 202.429 128.774 202.429 128.143 202.429C128.143 203.041 128.143 203.654 128.143 204.286C127.53 204.286 126.917 204.286 126.286 204.286C126.286 202.447 126.286 200.609 126.286 198.714Z" fill="#17171B"/>
<path d="M156 230.286C157.226 230.286 158.451 230.286 159.714 230.286C159.714 231.511 159.714 232.737 159.714 234C158.489 234 157.263 234 156 234C156 232.774 156 231.549 156 230.286Z" fill="#17171B"/>
<path d="M98.4287 230.286C99.6544 230.286 100.88 230.286 102.143 230.286C102.143 231.511 102.143 232.737 102.143 234C100.917 234 99.6916 234 98.4287 234C98.4287 232.774 98.4287 231.549 98.4287 230.286Z" fill="#17171B"/>
<path d="M91 215.429C92.2257 215.429 93.4514 215.429 94.7143 215.429C94.7143 216.654 94.7143 217.88 94.7143 219.143C93.4886 219.143 92.2629 219.143 91 219.143C91 217.917 91 216.692 91 215.429Z" fill="#17171B"/>
<path d="M87.2856 211.714C88.5114 211.714 89.7371 211.714 90.9999 211.714C90.9999 212.94 90.9999 214.166 90.9999 215.429C89.7742 215.429 88.5485 215.429 87.2856 215.429C87.2856 214.203 87.2856 212.977 87.2856 211.714Z" fill="#17171B"/>
<path d="M94.7144 208C95.9401 208 97.1658 208 98.4286 208C98.4286 209.226 98.4286 210.451 98.4286 211.714C97.2029 211.714 95.9772 211.714 94.7144 211.714C94.7144 210.489 94.7144 209.263 94.7144 208Z" fill="#17171B"/>
<path d="M83.5713 208C84.797 208 86.0227 208 87.2856 208C87.2856 209.226 87.2856 210.451 87.2856 211.714C86.0599 211.714 84.8341 211.714 83.5713 211.714C83.5713 210.489 83.5713 209.263 83.5713 208Z" fill="#17171B"/>
<path d="M170.857 204.286C172.083 204.286 173.308 204.286 174.571 204.286C174.571 205.511 174.571 206.737 174.571 208C173.346 208 172.12 208 170.857 208C170.857 206.774 170.857 205.549 170.857 204.286Z" fill="#17171B"/>
<path d="M91 204.286C92.2257 204.286 93.4514 204.286 94.7143 204.286C94.7143 205.511 94.7143 206.737 94.7143 208C93.4886 208 92.2629 208 91 208C91 206.774 91 205.549 91 204.286Z" fill="#17171B"/>
<path d="M87.2856 200.571C88.5114 200.571 89.7371 200.571 90.9999 200.571C90.9999 201.797 90.9999 203.023 90.9999 204.286C89.7742 204.286 88.5485 204.286 87.2856 204.286C87.2856 203.06 87.2856 201.834 87.2856 200.571Z" fill="#17171B"/>
<path d="M72.4287 200.571C73.6544 200.571 74.8801 200.571 76.143 200.571C76.143 201.797 76.143 203.023 76.143 204.286C74.9173 204.286 73.6916 204.286 72.4287 204.286C72.4287 203.06 72.4287 201.834 72.4287 200.571Z" fill="#17171B"/>
<path d="M83.5713 196.857C84.797 196.857 86.0227 196.857 87.2856 196.857C87.2856 198.083 87.2856 199.308 87.2856 200.571C86.0599 200.571 84.8341 200.571 83.5713 200.571C83.5713 199.346 83.5713 198.12 83.5713 196.857Z" fill="#17171B"/>
<path d="M163.429 193.143C164.654 193.143 165.88 193.143 167.143 193.143C167.143 194.369 167.143 195.594 167.143 196.857C165.917 196.857 164.692 196.857 163.429 196.857C163.429 195.632 163.429 194.406 163.429 193.143Z" fill="#17171B"/>
<path d="M159.714 189.429C160.94 189.429 162.166 189.429 163.429 189.429C163.429 190.654 163.429 191.88 163.429 193.143C162.203 193.143 160.977 193.143 159.714 193.143C159.714 191.917 159.714 190.692 159.714 189.429Z" fill="#17171B"/>
<path d="M170.857 185.714C172.083 185.714 173.308 185.714 174.571 185.714C174.571 186.94 174.571 188.166 174.571 189.429C173.346 189.429 172.12 189.429 170.857 189.429C170.857 188.203 170.857 186.977 170.857 185.714Z" fill="#17171B"/>
<path d="M87.2856 185.714C88.5114 185.714 89.7371 185.714 90.9999 185.714C90.9999 186.94 90.9999 188.166 90.9999 189.429C89.7742 189.429 88.5485 189.429 87.2856 189.429C87.2856 188.203 87.2856 186.977 87.2856 185.714Z" fill="#17171B"/>
<path d="M163.429 174.571C164.654 174.571 165.88 174.571 167.143 174.571C167.143 175.797 167.143 177.023 167.143 178.286C165.917 178.286 164.692 178.286 163.429 178.286C163.429 177.06 163.429 175.834 163.429 174.571Z" fill="#17171B"/>
<path d="M159.714 170.857C160.94 170.857 162.166 170.857 163.429 170.857C163.429 172.083 163.429 173.308 163.429 174.571C162.203 174.571 160.977 174.571 159.714 174.571C159.714 173.346 159.714 172.12 159.714 170.857Z" fill="#17171B"/>
<path d="M156 167.143C157.226 167.143 158.451 167.143 159.714 167.143C159.714 168.369 159.714 169.594 159.714 170.857C158.489 170.857 157.263 170.857 156 170.857C156 169.632 156 168.406 156 167.143Z" fill="#17171B"/>
<path d="M68.7144 159.714C69.9401 159.714 71.1658 159.714 72.4286 159.714C72.4286 160.94 72.4286 162.166 72.4286 163.429C71.2029 163.429 69.9772 163.429 68.7144 163.429C68.7144 162.203 68.7144 160.977 68.7144 159.714Z" fill="#17171B"/>
<path d="M94.7144 156C95.9401 156 97.1658 156 98.4286 156C98.4286 157.226 98.4286 158.451 98.4286 159.714C97.2029 159.714 95.9772 159.714 94.7144 159.714C94.7144 158.489 94.7144 157.263 94.7144 156Z" fill="#17171B"/>
<path d="M65 156C66.2257 156 67.4514 156 68.7143 156C68.7143 157.226 68.7143 158.451 68.7143 159.714C67.4886 159.714 66.2629 159.714 65 159.714C65 158.489 65 157.263 65 156Z" fill="#17171B"/>
<path d="M167.143 152.286C168.369 152.286 169.594 152.286 170.857 152.286C170.857 153.511 170.857 154.737 170.857 156C169.632 156 168.406 156 167.143 156C167.143 154.774 167.143 153.549 167.143 152.286Z" fill="#17171B"/>
<path d="M91 152.286C92.2257 152.286 93.4514 152.286 94.7143 152.286C94.7143 153.511 94.7143 154.737 94.7143 156C93.4886 156 92.2629 156 91 156C91 154.774 91 153.549 91 152.286Z" fill="#17171B"/>
<path d="M185.714 148.571C186.94 148.571 188.166 148.571 189.429 148.571C189.429 149.797 189.429 151.023 189.429 152.286C188.203 152.286 186.977 152.286 185.714 152.286C185.714 151.06 185.714 149.834 185.714 148.571Z" fill="#17171B"/>
<path d="M170.857 148.571C172.083 148.571 173.308 148.571 174.571 148.571C174.571 149.797 174.571 151.023 174.571 152.286C173.346 152.286 172.12 152.286 170.857 152.286C170.857 151.06 170.857 149.834 170.857 148.571Z" fill="#17171B"/>
<path d="M87.2856 148.571C88.5114 148.571 89.7371 148.571 90.9999 148.571C90.9999 149.797 90.9999 151.023 90.9999 152.286C89.7742 152.286 88.5485 152.286 87.2856 152.286C87.2856 151.06 87.2856 149.834 87.2856 148.571Z" fill="#17171B"/>
<path d="M53.8569 148.571C55.0826 148.571 56.3084 148.571 57.5712 148.571C57.5712 149.797 57.5712 151.023 57.5712 152.286C56.3455 152.286 55.1198 152.286 53.8569 152.286C53.8569 151.06 53.8569 149.834 53.8569 148.571Z" fill="#17171B"/>
<path d="M174.571 144.857C175.797 144.857 177.023 144.857 178.286 144.857C178.286 146.083 178.286 147.308 178.286 148.571C177.06 148.571 175.834 148.571 174.571 148.571C174.571 147.346 174.571 146.12 174.571 144.857Z" fill="#17171B"/>
<path d="M68.7144 141.143C69.9401 141.143 71.1658 141.143 72.4286 141.143C72.4286 142.369 72.4286 143.594 72.4286 144.857C71.2029 144.857 69.9772 144.857 68.7144 144.857C68.7144 143.632 68.7144 142.406 68.7144 141.143Z" fill="#17171B"/>
<path d="M53.8569 133.714C55.0826 133.714 56.3084 133.714 57.5712 133.714C57.5712 134.94 57.5712 136.166 57.5712 137.429C56.3455 137.429 55.1198 137.429 53.8569 137.429C53.8569 136.203 53.8569 134.977 53.8569 133.714Z" fill="#17171B"/>
<path d="M196.857 130C198.083 130 199.308 130 200.571 130C200.571 131.226 200.571 132.451 200.571 133.714C199.346 133.714 198.12 133.714 196.857 133.714C196.857 132.489 196.857 131.263 196.857 130Z" fill="#17171B"/>
<path d="M79.8569 130C81.0826 130 82.3084 130 83.5712 130C83.5712 131.226 83.5712 132.451 83.5712 133.714C82.3455 133.714 81.1198 133.714 79.8569 133.714C79.8569 132.489 79.8569 131.263 79.8569 130Z" fill="#17171B"/>
<path d="M68.7144 130C69.9401 130 71.1658 130 72.4286 130C72.4286 131.226 72.4286 132.451 72.4286 133.714C71.2029 133.714 69.9772 133.714 68.7144 133.714C68.7144 132.489 68.7144 131.263 68.7144 130Z" fill="#17171B"/>
<path d="M50.1431 130C51.3688 130 52.5945 130 53.8574 130C53.8574 131.226 53.8574 132.451 53.8574 133.714C52.6316 133.714 51.4059 133.714 50.1431 133.714C50.1431 132.489 50.1431 131.263 50.1431 130Z" fill="#17171B"/>
<path d="M200.571 126.286C201.797 126.286 203.023 126.286 204.286 126.286C204.286 127.511 204.286 128.737 204.286 130C203.06 130 201.834 130 200.571 130C200.571 128.774 200.571 127.549 200.571 126.286Z" fill="#17171B"/>
<path d="M46.4287 126.286C47.6544 126.286 48.8801 126.286 50.143 126.286C50.143 127.511 50.143 128.737 50.143 130C48.9173 130 47.6916 130 46.4287 130C46.4287 128.774 46.4287 127.549 46.4287 126.286Z" fill="#17171B"/>
<path d="M139.286 124.429C140.511 124.429 141.737 124.429 143 124.429C143 125.654 143 126.88 143 128.143C141.774 128.143 140.549 128.143 139.286 128.143C139.286 126.917 139.286 125.692 139.286 124.429Z" fill="#17171B"/>
<path d="M115.143 124.429C116.369 124.429 117.594 124.429 118.857 124.429C118.857 125.654 118.857 126.88 118.857 128.143C117.632 128.143 116.406 128.143 115.143 128.143C115.143 126.917 115.143 125.692 115.143 124.429Z" fill="#17171B"/>
<path d="M204.286 122.571C205.511 122.571 206.737 122.571 208 122.571C208 123.797 208 125.023 208 126.286C206.774 126.286 205.549 126.286 204.286 126.286C204.286 125.06 204.286 123.834 204.286 122.571Z" fill="#17171B"/>
<path d="M53.8569 118.857C55.0826 118.857 56.3084 118.857 57.5712 118.857C57.5712 120.083 57.5712 121.308 57.5712 122.571C56.3455 122.571 55.1198 122.571 53.8569 122.571C53.8569 121.346 53.8569 120.12 53.8569 118.857Z" fill="#17171B"/>
<path d="M144.857 113.286C146.083 113.286 147.308 113.286 148.571 113.286C148.571 114.511 148.571 115.737 148.571 117C147.346 117 146.12 117 144.857 117C144.857 115.774 144.857 114.549 144.857 113.286Z" fill="#17171B"/>
<path d="M109.571 113.286C110.797 113.286 112.023 113.286 113.286 113.286C113.286 114.511 113.286 115.737 113.286 117C112.06 117 110.834 117 109.571 117C109.571 115.774 109.571 114.549 109.571 113.286Z" fill="#17171B"/>
<path d="M178.286 92.8569C179.511 92.8569 180.737 92.8569 182 92.8569C182 94.0826 182 95.3084 182 96.5712C180.774 96.5712 179.549 96.5712 178.286 96.5712C178.286 95.3455 178.286 94.1198 178.286 92.8569Z" fill="#17171B"/>
<path d="M76.1431 92.8569C77.3688 92.8569 78.5945 92.8569 79.8574 92.8569C79.8574 94.0826 79.8574 95.3084 79.8574 96.5712C78.6316 96.5712 77.4059 96.5712 76.1431 96.5712C76.1431 95.3455 76.1431 94.1198 76.1431 92.8569Z" fill="#17171B"/>
<path d="M204.286 89.1431C205.511 89.1431 206.737 89.1431 208 89.1431C208 90.3688 208 91.5945 208 92.8574C206.774 92.8574 205.549 92.8574 204.286 92.8574C204.286 91.6316 204.286 90.4059 204.286 89.1431Z" fill="#17171B"/>
<path d="M182 89.1431C183.226 89.1431 184.451 89.1431 185.714 89.1431C185.714 90.3688 185.714 91.5945 185.714 92.8574C184.489 92.8574 183.263 92.8574 182 92.8574C182 91.6316 182 90.4059 182 89.1431Z" fill="#17171B"/>
<path d="M72.4287 89.1431C73.6544 89.1431 74.8801 89.1431 76.143 89.1431C76.143 90.3688 76.143 91.5945 76.143 92.8574C74.9173 92.8574 73.6916 92.8574 72.4287 92.8574C72.4287 91.6316 72.4287 90.4059 72.4287 89.1431Z" fill="#17171B"/>
<path d="M50.1431 89.1431C51.3688 89.1431 52.5945 89.1431 53.8574 89.1431C53.8574 90.3688 53.8574 91.5945 53.8574 92.8574C52.6316 92.8574 51.4059 92.8574 50.1431 92.8574C50.1431 91.6316 50.1431 90.4059 50.1431 89.1431Z" fill="#17171B"/>
<path d="M120.714 81.7144C121.94 81.7144 123.166 81.7144 124.429 81.7144C124.429 82.9401 124.429 84.1658 124.429 85.4286C123.203 85.4286 121.977 85.4286 120.714 85.4286C120.714 84.2029 120.714 82.9772 120.714 81.7144Z" fill="#17171B"/>
<path d="M182 70.5713C183.226 70.5713 184.451 70.5713 185.714 70.5713C185.714 71.797 185.714 73.0227 185.714 74.2856C184.489 74.2856 183.263 74.2856 182 74.2856C182 73.0599 182 71.8341 182 70.5713Z" fill="#17171B"/>
<path d="M72.4287 70.5713C73.6544 70.5713 74.8801 70.5713 76.143 70.5713C76.143 71.797 76.143 73.0227 76.143 74.2856C74.9173 74.2856 73.6916 74.2856 72.4287 74.2856C72.4287 73.0599 72.4287 71.8341 72.4287 70.5713Z" fill="#17171B"/>
<path d="M178.286 66.8569C179.511 66.8569 180.737 66.8569 182 66.8569C182 68.0826 182 69.3084 182 70.5712C180.774 70.5712 179.549 70.5712 178.286 70.5712C178.286 69.3455 178.286 68.1198 178.286 66.8569Z" fill="#17171B"/>
<path d="M141.143 66.8569C142.369 66.8569 143.594 66.8569 144.857 66.8569C144.857 68.0826 144.857 69.3084 144.857 70.5712C143.632 70.5712 142.406 70.5712 141.143 70.5712C141.143 69.3455 141.143 68.1198 141.143 66.8569Z" fill="#17171B"/>
<path d="M113.286 66.8569C114.511 66.8569 115.737 66.8569 117 66.8569C117 68.0826 117 69.3084 117 70.5712C115.774 70.5712 114.549 70.5712 113.286 70.5712C113.286 69.3455 113.286 68.1198 113.286 66.8569Z" fill="#17171B"/>
<path d="M76.1431 66.8569C77.3688 66.8569 78.5945 66.8569 79.8574 66.8569C79.8574 68.0826 79.8574 69.3084 79.8574 70.5712C78.6316 70.5712 77.4059 70.5712 76.1431 70.5712C76.1431 69.3455 76.1431 68.1198 76.1431 66.8569Z" fill="#17171B"/>
<path d="M174.571 63.1431C175.797 63.1431 177.023 63.1431 178.286 63.1431C178.286 64.3688 178.286 65.5945 178.286 66.8574C177.06 66.8574 175.834 66.8574 174.571 66.8574C174.571 65.6316 174.571 64.4059 174.571 63.1431Z" fill="#17171B"/>
<path d="M144.857 63.1431C146.083 63.1431 147.308 63.1431 148.571 63.1431C148.571 64.3688 148.571 65.5945 148.571 66.8574C147.346 66.8574 146.12 66.8574 144.857 66.8574C144.857 65.6316 144.857 64.4059 144.857 63.1431Z" fill="#17171B"/>
<path d="M109.571 63.1431C110.797 63.1431 112.023 63.1431 113.286 63.1431C113.286 64.3688 113.286 65.5945 113.286 66.8574C112.06 66.8574 110.834 66.8574 109.571 66.8574C109.571 65.6316 109.571 64.4059 109.571 63.1431Z" fill="#17171B"/>
<path d="M79.8569 63.1431C81.0826 63.1431 82.3084 63.1431 83.5712 63.1431C83.5712 64.3688 83.5712 65.5945 83.5712 66.8574C82.3455 66.8574 81.1198 66.8574 79.8569 66.8574C79.8569 65.6316 79.8569 64.4059 79.8569 63.1431Z" fill="#17171B"/>
<path d="M196.857 52C198.083 52 199.308 52 200.571 52C200.571 53.2257 200.571 54.4514 200.571 55.7143C199.346 55.7143 198.12 55.7143 196.857 55.7143C196.857 54.4886 196.857 53.2629 196.857 52Z" fill="#17171B"/>
<path d="M57.5713 52C58.797 52 60.0227 52 61.2856 52C61.2856 53.2257 61.2856 54.4514 61.2856 55.7143C60.0599 55.7143 58.8341 55.7143 57.5713 55.7143C57.5713 54.4886 57.5713 53.2629 57.5713 52Z" fill="#17171B"/>
<path d="M193.143 48.2856C194.369 48.2856 195.594 48.2856 196.857 48.2856C196.857 49.5114 196.857 50.7371 196.857 51.9999C195.632 51.9999 194.406 51.9999 193.143 51.9999C193.143 50.7742 193.143 49.5485 193.143 48.2856Z" fill="#17171B"/>
<path d="M61.2856 48.2856C62.5114 48.2856 63.7371 48.2856 64.9999 48.2856C64.9999 49.5114 64.9999 50.7371 64.9999 51.9999C63.7742 51.9999 62.5485 51.9999 61.2856 51.9999C61.2856 50.7742 61.2856 49.5485 61.2856 48.2856Z" fill="#17171B"/>
<path d="M148.571 29.7144C149.797 29.7144 151.023 29.7144 152.286 29.7144C152.286 30.9401 152.286 32.1658 152.286 33.4286C151.06 33.4286 149.834 33.4286 148.571 33.4286C148.571 32.2029 148.571 30.9772 148.571 29.7144Z" fill="#17171B"/>
<path d="M105.857 29.7144C107.083 29.7144 108.308 29.7144 109.571 29.7144C109.571 30.9401 109.571 32.1658 109.571 33.4286C108.346 33.4286 107.12 33.4286 105.857 33.4286C105.857 32.2029 105.857 30.9772 105.857 29.7144Z" fill="#17171B"/>
</svg>
