<svg width="100%" height="100%" viewBox="0 0 261 260" fill="none" xmlns="http://www.w3.org/2000/svg">
<path d="M156.5 72.4287C160.177 72.4287 163.854 72.4287 167.643 72.4287C167.643 73.6544 167.643 74.8801 167.643 76.143C168.869 76.143 170.094 76.143 171.357 76.143C171.357 77.3687 171.357 78.5944 171.357 79.8573C172.583 79.8573 173.809 79.8573 175.072 79.8573C175.072 82.3087 175.072 84.7601 175.072 87.2859C172.007 87.2859 168.943 87.2859 165.786 87.2859C165.786 86.0601 165.786 84.8344 165.786 83.5716C163.334 83.5716 160.883 83.5716 158.357 83.5716C158.357 82.3459 158.357 81.1201 158.357 79.8573C157.132 79.8573 155.906 79.8573 154.643 79.8573C154.643 78.6316 154.643 77.4059 154.643 76.143C155.256 76.143 155.869 76.143 156.5 76.143C156.5 74.9173 156.5 73.6916 156.5 72.4287Z" fill="#FAD092"/>
<path d="M91.4999 72.4287C95.177 72.4287 98.8541 72.4287 102.643 72.4287C102.643 73.6544 102.643 74.8801 102.643 76.143C103.256 76.143 103.868 76.143 104.5 76.143C104.5 77.3687 104.5 78.5944 104.5 79.8573C103.274 79.8573 102.048 79.8573 100.786 79.8573C100.786 81.083 100.786 82.3087 100.786 83.5716C98.3341 83.5716 95.8827 83.5716 93.357 83.5716C93.357 84.7973 93.357 86.023 93.357 87.2859C90.2927 87.2859 87.2284 87.2859 84.0713 87.2859C84.0713 84.8344 84.0713 82.383 84.0713 79.8573C85.297 79.8573 86.5227 79.8573 87.7856 79.8573C87.7856 78.6316 87.7856 77.4059 87.7856 76.143C89.0113 76.143 90.237 76.143 91.4999 76.143C91.4999 74.9173 91.4999 73.6916 91.4999 72.4287Z" fill="#FAD092"/>
<path d="M87.7859 187.571C89.0116 187.571 90.2374 187.571 91.5002 187.571C91.5002 188.797 91.5002 190.023 91.5002 191.286C92.1131 191.286 92.7259 191.286 93.3574 191.286C93.3574 194.963 93.3574 198.64 93.3574 202.428C92.7445 202.428 92.1316 202.428 91.5002 202.428C91.5002 203.654 91.5002 204.88 91.5002 206.143C90.2745 206.143 89.0488 206.143 87.7859 206.143C87.7859 204.917 87.7859 203.691 87.7859 202.428C86.5602 202.428 85.3345 202.428 84.0716 202.428C84.0716 204.88 84.0716 207.331 84.0716 209.857C81.6202 209.857 79.1688 209.857 76.6431 209.857C76.6431 208.631 76.6431 207.406 76.6431 206.143C77.8688 206.143 79.0945 206.143 80.3574 206.143C80.3574 203.691 80.3574 201.24 80.3574 198.714C83.4216 198.714 86.4859 198.714 89.6431 198.714C89.6431 197.488 89.6431 196.263 89.6431 195C89.0302 195 88.4174 195 87.7859 195C87.7859 192.548 87.7859 190.097 87.7859 187.571Z" fill="#FAFAFA"/>
<path d="M110.071 165.286C122.941 165.286 135.811 165.286 149.071 165.286C149.071 166.511 149.071 167.737 149.071 169C136.201 169 123.331 169 110.071 169C110.071 167.774 110.071 166.549 110.071 165.286Z" fill="#FAFAFA"/>
<path d="M124.928 118.857C127.993 118.857 131.057 118.857 134.214 118.857C134.214 120.083 134.214 121.308 134.214 122.571C132.988 122.571 131.763 122.571 130.5 122.571C130.5 123.797 130.5 125.023 130.5 126.286C131.113 126.286 131.726 126.286 132.357 126.286C132.357 126.898 132.357 127.511 132.357 128.143C133.583 128.143 134.808 128.143 136.071 128.143C136.071 128.756 136.071 129.368 136.071 130C137.297 130 138.523 130 139.786 130C139.786 131.838 139.786 133.677 139.786 135.571C139.173 135.571 138.56 135.571 137.928 135.571C137.928 136.184 137.928 136.797 137.928 137.428C136.703 137.428 135.477 137.428 134.214 137.428C134.214 135.59 134.214 133.751 134.214 131.857C133.601 131.857 132.988 131.857 132.357 131.857C132.357 131.244 132.357 130.631 132.357 130C130.518 130 128.68 130 126.786 130C126.786 130.613 126.786 131.226 126.786 131.857C126.173 131.857 125.56 131.857 124.928 131.857C124.928 132.47 124.928 133.083 124.928 133.714C123.09 133.714 121.251 133.714 119.357 133.714C119.357 132.488 119.357 131.263 119.357 130C120.583 130 121.808 130 123.071 130C123.071 129.387 123.071 128.774 123.071 128.143C124.297 128.143 125.523 128.143 126.786 128.143C126.786 127.53 126.786 126.917 126.786 126.286C127.398 126.286 128.011 126.286 128.643 126.286C128.643 125.06 128.643 123.834 128.643 122.571C127.417 122.571 126.191 122.571 124.928 122.571C124.928 121.346 124.928 120.12 124.928 118.857ZM136.071 133.714C136.071 134.327 136.071 134.94 136.071 135.571C136.684 135.571 137.297 135.571 137.928 135.571C137.928 134.958 137.928 134.346 137.928 133.714C137.316 133.714 136.703 133.714 136.071 133.714Z" fill="#FAFAFA"/>
<path d="M152.786 183.857C154.011 183.857 155.237 183.857 156.5 183.857C156.5 185.083 156.5 186.308 156.5 187.571C157.726 187.571 158.951 187.571 160.214 187.571C160.214 188.797 160.214 190.023 160.214 191.286C158.989 191.286 157.763 191.286 156.5 191.286C156.5 192.511 156.5 193.737 156.5 195C157.113 195 157.726 195 158.357 195C158.357 197.451 158.357 199.903 158.357 202.428C157.744 202.428 157.131 202.428 156.5 202.428C156.5 204.88 156.5 207.331 156.5 209.857C155.274 209.857 154.049 209.857 152.786 209.857C152.786 207.406 152.786 204.954 152.786 202.428C153.399 202.428 154.011 202.428 154.643 202.428C154.643 199.977 154.643 197.526 154.643 195C154.03 195 153.417 195 152.786 195C152.786 191.323 152.786 187.646 152.786 183.857Z" fill="#FAFAFA"/>
<path d="M72.9286 131.857C74.1543 131.857 75.38 131.857 76.6429 131.857C76.6429 134.308 76.6429 136.76 76.6429 139.286C76.03 139.286 75.4171 139.286 74.7857 139.286C74.7857 140.511 74.7857 141.737 74.7857 143C74.1729 143 73.56 143 72.9286 143C72.9286 147.903 72.9286 152.806 72.9286 157.857C71.7029 157.857 70.4771 157.857 69.2143 157.857C69.2143 155.406 69.2143 152.954 69.2143 150.428C67.9886 150.428 66.7629 150.428 65.5 150.428C65.5 149.203 65.5 147.977 65.5 146.714C66.7257 146.714 67.9514 146.714 69.2143 146.714C69.2143 145.488 69.2143 144.263 69.2143 143C69.8271 143 70.44 143 71.0714 143C71.0714 141.774 71.0714 140.548 71.0714 139.286C71.6843 139.286 72.2971 139.286 72.9286 139.286C72.9286 136.834 72.9286 134.383 72.9286 131.857Z" fill="#FAFAFA"/>
<path d="M102.643 183.857C103.869 183.857 105.094 183.857 106.357 183.857C106.357 187.534 106.357 191.211 106.357 195C105.744 195 105.131 195 104.5 195C104.5 197.451 104.5 199.903 104.5 202.428C105.113 202.428 105.726 202.428 106.357 202.428C106.357 204.88 106.357 207.331 106.357 209.857C105.131 209.857 103.906 209.857 102.643 209.857C102.643 207.406 102.643 204.954 102.643 202.428C102.03 202.428 101.417 202.428 100.786 202.428C100.786 199.977 100.786 197.526 100.786 195C101.399 195 102.011 195 102.643 195C102.643 191.323 102.643 187.646 102.643 183.857Z" fill="#FAFAFA"/>
<path d="M137.928 72.4287C139.154 72.4287 140.38 72.4287 141.643 72.4287C141.643 76.1059 141.643 79.783 141.643 83.5716C141.03 83.5716 140.417 83.5716 139.786 83.5716C139.786 87.2487 139.786 90.9259 139.786 94.7144C137.334 94.7144 134.883 94.7144 132.357 94.7144C132.357 93.4887 132.357 92.263 132.357 91.0001C133.583 91.0001 134.808 91.0001 136.071 91.0001C136.071 88.5487 136.071 86.0973 136.071 83.5716C136.684 83.5716 137.297 83.5716 137.928 83.5716C137.928 79.8944 137.928 76.2173 137.928 72.4287Z" fill="#FAFAFA"/>
<path d="M149.071 61.2856C157.651 61.2856 166.231 61.2856 175.071 61.2856C175.071 62.5114 175.071 63.7371 175.071 64.9999C166.491 64.9999 157.911 64.9999 149.071 64.9999C149.071 63.7742 149.071 62.5485 149.071 61.2856Z" fill="#FAFAFA"/>
<path d="M84.0713 61.2856C92.6513 61.2856 101.231 61.2856 110.071 61.2856C110.071 62.5114 110.071 63.7371 110.071 64.9999C101.491 64.9999 92.9113 64.9999 84.0713 64.9999C84.0713 63.7742 84.0713 62.5485 84.0713 61.2856Z" fill="#FAFAFA"/>
<path d="M117.5 24.1431C125.467 24.1431 133.434 24.1431 141.643 24.1431C141.643 25.3688 141.643 26.5945 141.643 27.8574C133.676 27.8574 125.709 27.8574 117.5 27.8574C117.5 26.6316 117.5 25.4059 117.5 24.1431Z" fill="#FAFAFA"/>
<path d="M165.786 102.143C166.399 102.143 167.012 102.143 167.643 102.143C167.643 105.207 167.643 108.272 167.643 111.429C168.869 111.429 170.094 111.429 171.357 111.429C171.357 110.203 171.357 108.977 171.357 107.714C172.583 107.714 173.809 107.714 175.072 107.714C175.072 109.553 175.072 111.392 175.072 113.286C174.459 113.286 173.846 113.286 173.214 113.286C173.214 113.899 173.214 114.512 173.214 115.143C170.763 115.143 168.312 115.143 165.786 115.143C165.786 114.53 165.786 113.917 165.786 113.286C165.173 113.286 164.56 113.286 163.929 113.286C163.929 110.222 163.929 107.157 163.929 104C164.542 104 165.154 104 165.786 104C165.786 103.387 165.786 102.774 165.786 102.143Z" fill="#FAFAFA"/>
<path d="M145.357 109.571C147.196 109.571 149.034 109.571 150.928 109.571C150.928 113.861 150.928 118.151 150.928 122.571C149.09 122.571 147.251 122.571 145.357 122.571C145.357 118.281 145.357 113.991 145.357 109.571Z" fill="#FAFAFA"/>
<path d="M108.214 109.571C110.053 109.571 111.891 109.571 113.786 109.571C113.786 113.861 113.786 118.151 113.786 122.571C111.947 122.571 110.109 122.571 108.214 122.571C108.214 118.281 108.214 113.991 108.214 109.571Z" fill="#FAFAFA"/>
<path d="M95.2144 221C98.8915 221 102.569 221 106.357 221C106.357 224.677 106.357 228.354 106.357 232.143C105.131 232.143 103.906 232.143 102.643 232.143C102.643 229.691 102.643 227.24 102.643 224.714C100.191 224.714 97.7401 224.714 95.2144 224.714C95.2144 223.489 95.2144 222.263 95.2144 221Z" fill="#FAFAFA"/>
<path d="M106.357 209.857C107.583 209.857 108.809 209.857 110.072 209.857C110.072 213.534 110.072 217.211 110.072 221C108.846 221 107.62 221 106.357 221C106.357 219.774 106.357 218.548 106.357 217.286C103.906 217.286 101.454 217.286 98.9287 217.286C98.9287 216.06 98.9287 214.834 98.9287 213.571C101.38 213.571 103.832 213.571 106.357 213.571C106.357 212.346 106.357 211.12 106.357 209.857Z" fill="#FAFAFA"/>
<path d="M186.214 113.286C187.44 113.286 188.666 113.286 189.929 113.286C189.929 119.414 189.929 125.543 189.929 131.857C188.703 131.857 187.477 131.857 186.214 131.857C186.214 125.729 186.214 119.6 186.214 113.286Z" fill="#FAFAFA"/>
<path d="M69.2144 113.286C70.4401 113.286 71.6658 113.286 72.9286 113.286C72.9286 119.414 72.9286 125.543 72.9286 131.857C71.7029 131.857 70.4772 131.857 69.2144 131.857C69.2144 125.729 69.2144 119.6 69.2144 113.286Z" fill="#FAFAFA"/>
<path d="M204.786 65C206.011 65 207.237 65 208.5 65C208.5 71.1286 208.5 77.2571 208.5 83.5714C207.274 83.5714 206.049 83.5714 204.786 83.5714C204.786 77.4429 204.786 71.3143 204.786 65Z" fill="#FAFAFA"/>
<path d="M50.6431 65C51.8688 65 53.0945 65 54.3574 65C54.3574 71.1286 54.3574 77.2571 54.3574 83.5714C53.1316 83.5714 51.9059 83.5714 50.6431 83.5714C50.6431 77.4429 50.6431 71.3143 50.6431 65Z" fill="#FAFAFA"/>
<path d="M121.214 217.286C126.73 217.286 132.246 217.286 137.929 217.286C137.929 218.511 137.929 219.737 137.929 221C132.413 221 126.897 221 121.214 221C121.214 219.774 121.214 218.549 121.214 217.286Z" fill="#FAFAFA"/>
<path d="M69.2144 187.571C70.4401 187.571 71.6658 187.571 72.9286 187.571C72.9286 192.474 72.9286 197.377 72.9286 202.428C71.7029 202.428 70.4772 202.428 69.2144 202.428C69.2144 197.526 69.2144 192.623 69.2144 187.571Z" fill="#FAFAFA"/>
<path d="M98.9287 176.429C102.606 176.429 106.283 176.429 110.072 176.429C110.072 178.88 110.072 181.332 110.072 183.857C108.846 183.857 107.62 183.857 106.357 183.857C106.357 182.632 106.357 181.406 106.357 180.143C103.906 180.143 101.454 180.143 98.9287 180.143C98.9287 178.917 98.9287 177.692 98.9287 176.429Z" fill="#FAFAFA"/>
<path d="M149.071 161.571C152.748 161.571 156.426 161.571 160.214 161.571C160.214 162.797 160.214 164.023 160.214 165.286C158.988 165.286 157.763 165.286 156.5 165.286C156.5 166.511 156.5 167.737 156.5 169C155.274 169 154.048 169 152.786 169C152.786 167.774 152.786 166.548 152.786 165.286C151.56 165.286 150.334 165.286 149.071 165.286C149.071 164.06 149.071 162.834 149.071 161.571Z" fill="#FAFAFA"/>
<path d="M212.214 102.143C213.44 102.143 214.666 102.143 215.929 102.143C215.929 107.046 215.929 111.949 215.929 117C214.703 117 213.477 117 212.214 117C212.214 112.097 212.214 107.194 212.214 102.143Z" fill="#FAFAFA"/>
<path d="M43.2144 102.143C44.4401 102.143 45.6658 102.143 46.9286 102.143C46.9286 107.046 46.9286 111.949 46.9286 117C45.7029 117 44.4772 117 43.2144 117C43.2144 112.097 43.2144 107.194 43.2144 102.143Z" fill="#FAFAFA"/>
<path d="M182.5 98.4287C183.726 98.4287 184.951 98.4287 186.214 98.4287C186.214 103.332 186.214 108.234 186.214 113.286C184.989 113.286 183.763 113.286 182.5 113.286C182.5 108.383 182.5 103.48 182.5 98.4287Z" fill="#FAFAFA"/>
<path d="M72.9287 98.4287C74.1544 98.4287 75.3801 98.4287 76.643 98.4287C76.643 103.332 76.643 108.234 76.643 113.286C75.4173 113.286 74.1916 113.286 72.9287 113.286C72.9287 108.383 72.9287 103.48 72.9287 98.4287Z" fill="#FAFAFA"/>
<path d="M186.214 76.1431C187.44 76.1431 188.666 76.1431 189.929 76.1431C189.929 81.0459 189.929 85.9488 189.929 91.0002C188.703 91.0002 187.477 91.0002 186.214 91.0002C186.214 86.0974 186.214 81.1945 186.214 76.1431Z" fill="#FAFAFA"/>
<path d="M69.2144 76.1431C70.4401 76.1431 71.6658 76.1431 72.9286 76.1431C72.9286 81.0459 72.9286 85.9488 72.9286 91.0002C71.7029 91.0002 70.4772 91.0002 69.2144 91.0002C69.2144 86.0974 69.2144 81.1945 69.2144 76.1431Z" fill="#FAFAFA"/>
<path d="M163.929 39C168.832 39 173.734 39 178.786 39C178.786 40.2257 178.786 41.4514 178.786 42.7143C173.883 42.7143 168.98 42.7143 163.929 42.7143C163.929 41.4886 163.929 40.2629 163.929 39Z" fill="#FAFAFA"/>
<path d="M80.3569 39C85.2598 39 90.1626 39 95.2141 39C95.2141 40.2257 95.2141 41.4514 95.2141 42.7143C90.3112 42.7143 85.4084 42.7143 80.3569 42.7143C80.3569 41.4886 80.3569 40.2629 80.3569 39Z" fill="#FAFAFA"/>
<path d="M145.357 235.857C149.034 235.857 152.711 235.857 156.5 235.857C156.5 237.083 156.5 238.308 156.5 239.571C152.823 239.571 149.146 239.571 145.357 239.571C145.357 238.346 145.357 237.12 145.357 235.857Z" fill="#FAFAFA"/>
<path d="M102.643 235.857C106.32 235.857 109.997 235.857 113.786 235.857C113.786 237.083 113.786 238.308 113.786 239.571C110.109 239.571 106.432 239.571 102.643 239.571C102.643 238.346 102.643 237.12 102.643 235.857Z" fill="#FAFAFA"/>
<path d="M152.786 221C154.011 221 155.237 221 156.5 221C156.5 224.677 156.5 228.354 156.5 232.143C155.274 232.143 154.049 232.143 152.786 232.143C152.786 228.466 152.786 224.789 152.786 221Z" fill="#FAFAFA"/>
<path d="M149.071 209.857C150.297 209.857 151.523 209.857 152.786 209.857C152.786 213.534 152.786 217.211 152.786 221C151.56 221 150.334 221 149.071 221C149.071 217.323 149.071 213.646 149.071 209.857Z" fill="#FAFAFA"/>
<path d="M171.357 202.429C175.034 202.429 178.711 202.429 182.5 202.429C182.5 203.654 182.5 204.88 182.5 206.143C178.823 206.143 175.146 206.143 171.357 206.143C171.357 204.917 171.357 203.692 171.357 202.429Z" fill="#FAFAFA"/>
<path d="M72.9287 180.143C75.3801 180.143 77.8316 180.143 80.3573 180.143C80.3573 181.369 80.3573 182.594 80.3573 183.857C79.1316 183.857 77.9059 183.857 76.643 183.857C76.643 185.083 76.643 186.309 76.643 187.572C75.4173 187.572 74.1916 187.572 72.9287 187.572C72.9287 185.12 72.9287 182.669 72.9287 180.143Z" fill="#FAFAFA"/>
<path d="M98.9287 161.571C102.606 161.571 106.283 161.571 110.072 161.571C110.072 162.797 110.072 164.023 110.072 165.286C106.394 165.286 102.717 165.286 98.9287 165.286C98.9287 164.06 98.9287 162.834 98.9287 161.571Z" fill="#FAFAFA"/>
<path d="M61.7856 135.571C63.0114 135.571 64.2371 135.571 65.4999 135.571C65.4999 139.248 65.4999 142.926 65.4999 146.714C64.2742 146.714 63.0485 146.714 61.7856 146.714C61.7856 143.037 61.7856 139.36 61.7856 135.571Z" fill="#FAFAFA"/>
<path d="M154.643 126.286C158.32 126.286 161.997 126.286 165.786 126.286C165.786 127.511 165.786 128.737 165.786 130C162.109 130 158.432 130 154.643 130C154.643 128.774 154.643 127.549 154.643 126.286Z" fill="#F6BDB8"/>
<path d="M93.3569 126.286C97.0341 126.286 100.711 126.286 104.5 126.286C104.5 127.511 104.5 128.737 104.5 130C100.823 130 97.1455 130 93.3569 130C93.3569 128.774 93.3569 127.549 93.3569 126.286Z" fill="#F6BDB8"/>
<path d="M117.5 72.4287C118.726 72.4287 119.951 72.4287 121.214 72.4287C121.214 76.1059 121.214 79.783 121.214 83.5716C119.989 83.5716 118.763 83.5716 117.5 83.5716C117.5 79.8944 117.5 76.2173 117.5 72.4287Z" fill="#FAFAFA"/>
<path d="M141.643 228.429C142.869 228.429 144.094 228.429 145.357 228.429C145.357 230.88 145.357 233.332 145.357 235.857C144.132 235.857 142.906 235.857 141.643 235.857C141.643 233.406 141.643 230.954 141.643 228.429Z" fill="#FAFAFA"/>
<path d="M113.786 228.429C115.011 228.429 116.237 228.429 117.5 228.429C117.5 230.88 117.5 233.332 117.5 235.857C116.274 235.857 115.049 235.857 113.786 235.857C113.786 233.406 113.786 230.954 113.786 228.429Z" fill="#FAFAFA"/>
<path d="M137.929 221C139.154 221 140.38 221 141.643 221C141.643 223.451 141.643 225.903 141.643 228.429C140.417 228.429 139.192 228.429 137.929 228.429C137.929 225.977 137.929 223.526 137.929 221Z" fill="#FAFAFA"/>
<path d="M117.5 221C118.726 221 119.951 221 121.214 221C121.214 223.451 121.214 225.903 121.214 228.429C119.989 228.429 118.763 228.429 117.5 228.429C117.5 225.977 117.5 223.526 117.5 221Z" fill="#FAFAFA"/>
<path d="M182.5 195C183.726 195 184.951 195 186.214 195C186.214 197.451 186.214 199.903 186.214 202.429C184.989 202.429 183.763 202.429 182.5 202.429C182.5 199.977 182.5 197.526 182.5 195Z" fill="#FAFAFA"/>
<path d="M175.071 191.286C177.523 191.286 179.974 191.286 182.5 191.286C182.5 192.511 182.5 193.737 182.5 195C180.048 195 177.597 195 175.071 195C175.071 193.774 175.071 192.549 175.071 191.286Z" fill="#FAFAFA"/>
<path d="M80.3569 183.857C82.8084 183.857 85.2598 183.857 87.7855 183.857C87.7855 185.083 87.7855 186.308 87.7855 187.571C85.3341 187.571 82.8826 187.571 80.3569 187.571C80.3569 186.346 80.3569 185.12 80.3569 183.857Z" fill="#FAFAFA"/>
<path d="M167.643 180.143C168.869 180.143 170.094 180.143 171.357 180.143C171.357 182.594 171.357 185.046 171.357 187.572C170.132 187.572 168.906 187.572 167.643 187.572C167.643 185.12 167.643 182.669 167.643 180.143Z" fill="#FAFAFA"/>
<path d="M149.071 176.429C150.297 176.429 151.523 176.429 152.786 176.429C152.786 178.88 152.786 181.332 152.786 183.857C151.56 183.857 150.334 183.857 149.071 183.857C149.071 181.406 149.071 178.954 149.071 176.429Z" fill="#FAFAFA"/>
<path d="M91.5 172.714C93.9514 172.714 96.4029 172.714 98.9286 172.714C98.9286 173.94 98.9286 175.166 98.9286 176.429C96.4771 176.429 94.0257 176.429 91.5 176.429C91.5 175.203 91.5 173.977 91.5 172.714Z" fill="#FAFAFA"/>
<path d="M84.0713 169C86.5227 169 88.9741 169 91.4999 169C91.4999 170.226 91.4999 171.451 91.4999 172.714C89.0484 172.714 86.597 172.714 84.0713 172.714C84.0713 171.489 84.0713 170.263 84.0713 169Z" fill="#FAFAFA"/>
<path d="M171.357 157.857C173.808 157.857 176.26 157.857 178.786 157.857C178.786 159.083 178.786 160.308 178.786 161.571C176.334 161.571 173.883 161.571 171.357 161.571C171.357 160.346 171.357 159.12 171.357 157.857Z" fill="#FAFAFA"/>
<path d="M160.214 157.857C162.666 157.857 165.117 157.857 167.643 157.857C167.643 159.083 167.643 160.308 167.643 161.571C165.191 161.571 162.74 161.571 160.214 161.571C160.214 160.346 160.214 159.12 160.214 157.857Z" fill="#FAFAFA"/>
<path d="M91.5 157.857C93.9514 157.857 96.4029 157.857 98.9286 157.857C98.9286 159.083 98.9286 160.308 98.9286 161.571C96.4771 161.571 94.0257 161.571 91.5 161.571C91.5 160.346 91.5 159.12 91.5 157.857Z" fill="#FAFAFA"/>
<path d="M178.786 154.143C181.237 154.143 183.689 154.143 186.214 154.143C186.214 155.369 186.214 156.594 186.214 157.857C183.763 157.857 181.311 157.857 178.786 157.857C178.786 156.632 178.786 155.406 178.786 154.143Z" fill="#FAFAFA"/>
<path d="M189.929 143C191.154 143 192.38 143 193.643 143C193.643 145.451 193.643 147.903 193.643 150.429C192.417 150.429 191.192 150.429 189.929 150.429C189.929 147.977 189.929 145.526 189.929 143Z" fill="#FAFAFA"/>
<path d="M178.786 139.286C180.011 139.286 181.237 139.286 182.5 139.286C182.5 141.737 182.5 144.189 182.5 146.714C181.274 146.714 180.049 146.714 178.786 146.714C178.786 144.263 178.786 141.811 178.786 139.286Z" fill="#FAFAFA"/>
<path d="M76.6431 139.286C77.8688 139.286 79.0945 139.286 80.3574 139.286C80.3574 141.737 80.3574 144.189 80.3574 146.714C79.1316 146.714 77.9059 146.714 76.6431 146.714C76.6431 144.263 76.6431 141.811 76.6431 139.286Z" fill="#FAFAFA"/>
<path d="M193.643 135.571C194.869 135.571 196.094 135.571 197.357 135.571C197.357 138.023 197.357 140.474 197.357 143C196.132 143 194.906 143 193.643 143C193.643 140.548 193.643 138.097 193.643 135.571Z" fill="#FAFAFA"/>
<path d="M182.5 131.857C183.726 131.857 184.951 131.857 186.214 131.857C186.214 134.308 186.214 136.76 186.214 139.286C184.989 139.286 183.763 139.286 182.5 139.286C182.5 136.834 182.5 134.383 182.5 131.857Z" fill="#FAFAFA"/>
<path d="M208.5 117C209.726 117 210.951 117 212.214 117C212.214 119.451 212.214 121.903 212.214 124.429C210.989 124.429 209.763 124.429 208.5 124.429C208.5 121.977 208.5 119.526 208.5 117Z" fill="#FAFAFA"/>
<path d="M46.9287 117C48.1544 117 49.3801 117 50.643 117C50.643 119.451 50.643 121.903 50.643 124.429C49.4173 124.429 48.1916 124.429 46.9287 124.429C46.9287 121.977 46.9287 119.526 46.9287 117Z" fill="#FAFAFA"/>
<path d="M143.5 96.5713C144.726 96.5713 145.951 96.5713 147.214 96.5713C147.214 97.1841 147.214 97.797 147.214 98.4284C148.44 98.4284 149.666 98.4284 150.929 98.4284C150.929 99.6541 150.929 100.88 150.929 102.143C149.703 102.143 148.477 102.143 147.214 102.143C147.214 101.53 147.214 100.917 147.214 100.286C145.989 100.286 144.763 100.286 143.5 100.286C143.5 99.0599 143.5 97.8341 143.5 96.5713Z" fill="#FAFAFA"/>
<path d="M111.929 96.5713C113.154 96.5713 114.38 96.5713 115.643 96.5713C115.643 97.797 115.643 99.0227 115.643 100.286C114.417 100.286 113.191 100.286 111.929 100.286C111.929 100.898 111.929 101.511 111.929 102.143C110.703 102.143 109.477 102.143 108.214 102.143C108.214 100.917 108.214 99.6913 108.214 98.4284C109.44 98.4284 110.666 98.4284 111.929 98.4284C111.929 97.8156 111.929 97.2027 111.929 96.5713Z" fill="#FAFAFA"/>
<path d="M208.5 94.7144C209.726 94.7144 210.951 94.7144 212.214 94.7144C212.214 97.1658 212.214 99.6172 212.214 102.143C210.989 102.143 209.763 102.143 208.5 102.143C208.5 99.6915 208.5 97.2401 208.5 94.7144Z" fill="#FAFAFA"/>
<path d="M46.9287 94.7144C48.1544 94.7144 49.3801 94.7144 50.643 94.7144C50.643 97.1658 50.643 99.6172 50.643 102.143C49.4173 102.143 48.1916 102.143 46.9287 102.143C46.9287 99.6915 46.9287 97.2401 46.9287 94.7144Z" fill="#FAFAFA"/>
<path d="M124.929 87.2856C127.38 87.2856 129.832 87.2856 132.357 87.2856C132.357 88.5114 132.357 89.7371 132.357 90.9999C129.906 90.9999 127.454 90.9999 124.929 90.9999C124.929 89.7742 124.929 88.5485 124.929 87.2856Z" fill="#FAFAFA"/>
<path d="M201.071 83.5713C202.297 83.5713 203.523 83.5713 204.786 83.5713C204.786 86.0227 204.786 88.4741 204.786 90.9999C203.56 90.9999 202.334 90.9999 201.071 90.9999C201.071 88.5484 201.071 86.097 201.071 83.5713Z" fill="#FAFAFA"/>
<path d="M54.3569 83.5713C55.5826 83.5713 56.8084 83.5713 58.0712 83.5713C58.0712 86.0227 58.0712 88.4741 58.0712 90.9999C56.8455 90.9999 55.6198 90.9999 54.3569 90.9999C54.3569 88.5484 54.3569 86.097 54.3569 83.5713Z" fill="#FAFAFA"/>
<path d="M201.071 57.5713C202.297 57.5713 203.523 57.5713 204.786 57.5713C204.786 60.0227 204.786 62.4741 204.786 64.9999C203.56 64.9999 202.334 64.9999 201.071 64.9999C201.071 62.5484 201.071 60.097 201.071 57.5713Z" fill="#FAFAFA"/>
<path d="M54.3569 57.5713C55.5826 57.5713 56.8084 57.5713 58.0712 57.5713C58.0712 60.0227 58.0712 62.4741 58.0712 64.9999C56.8455 64.9999 55.6198 64.9999 54.3569 64.9999C54.3569 62.5484 54.3569 60.097 54.3569 57.5713Z" fill="#FAFAFA"/>
<path d="M186.214 46.4287C188.666 46.4287 191.117 46.4287 193.643 46.4287C193.643 47.6544 193.643 48.8801 193.643 50.143C191.191 50.143 188.74 50.143 186.214 50.143C186.214 48.9173 186.214 47.6916 186.214 46.4287Z" fill="#FAFAFA"/>
<path d="M65.5 46.4287C67.9514 46.4287 70.4029 46.4287 72.9286 46.4287C72.9286 47.6544 72.9286 48.8801 72.9286 50.143C70.4771 50.143 68.0257 50.143 65.5 50.143C65.5 48.9173 65.5 47.6916 65.5 46.4287Z" fill="#FAFAFA"/>
<path d="M178.786 42.7144C181.237 42.7144 183.689 42.7144 186.214 42.7144C186.214 43.9401 186.214 45.1658 186.214 46.4286C183.763 46.4286 181.311 46.4286 178.786 46.4286C178.786 45.2029 178.786 43.9772 178.786 42.7144Z" fill="#FAFAFA"/>
<path d="M156.5 42.7144C158.951 42.7144 161.403 42.7144 163.929 42.7144C163.929 43.9401 163.929 45.1658 163.929 46.4286C161.477 46.4286 159.026 46.4286 156.5 46.4286C156.5 45.2029 156.5 43.9772 156.5 42.7144Z" fill="#FAFAFA"/>
<path d="M95.2144 42.7144C97.6658 42.7144 100.117 42.7144 102.643 42.7144C102.643 43.9401 102.643 45.1658 102.643 46.4286C100.191 46.4286 97.7401 46.4286 95.2144 46.4286C95.2144 45.2029 95.2144 43.9772 95.2144 42.7144Z" fill="#FAFAFA"/>
<path d="M72.9287 42.7144C75.3801 42.7144 77.8316 42.7144 80.3573 42.7144C80.3573 43.9401 80.3573 45.1658 80.3573 46.4286C77.9059 46.4286 75.4544 46.4286 72.9287 46.4286C72.9287 45.2029 72.9287 43.9772 72.9287 42.7144Z" fill="#FAFAFA"/>
<path d="M152.786 35.2856C154.011 35.2856 155.237 35.2856 156.5 35.2856C156.5 37.7371 156.5 40.1885 156.5 42.7142C155.274 42.7142 154.049 42.7142 152.786 42.7142C152.786 40.2628 152.786 37.8114 152.786 35.2856Z" fill="#FAFAFA"/>
<path d="M102.643 35.2856C103.869 35.2856 105.094 35.2856 106.357 35.2856C106.357 37.7371 106.357 40.1885 106.357 42.7142C105.132 42.7142 103.906 42.7142 102.643 42.7142C102.643 40.2628 102.643 37.8114 102.643 35.2856Z" fill="#FAFAFA"/>
<path d="M141.643 27.8569C144.094 27.8569 146.546 27.8569 149.072 27.8569C149.072 29.0826 149.072 30.3084 149.072 31.5712C146.62 31.5712 144.169 31.5712 141.643 31.5712C141.643 30.3455 141.643 29.1198 141.643 27.8569Z" fill="#FAFAFA"/>
<path d="M110.071 27.8569C112.523 27.8569 114.974 27.8569 117.5 27.8569C117.5 29.0826 117.5 30.3084 117.5 31.5712C115.048 31.5712 112.597 31.5712 110.071 31.5712C110.071 30.3455 110.071 29.1198 110.071 27.8569Z" fill="#FAFAFA"/>
<path d="M126.786 200.571C127.399 200.571 128.011 200.571 128.643 200.571C128.643 201.184 128.643 201.797 128.643 202.428C129.256 202.428 129.869 202.428 130.5 202.428C130.5 201.816 130.5 201.203 130.5 200.571C131.113 200.571 131.726 200.571 132.357 200.571C132.357 202.41 132.357 204.248 132.357 206.143C131.744 206.143 131.131 206.143 130.5 206.143C130.5 205.53 130.5 204.917 130.5 204.286C129.887 204.286 129.274 204.286 128.643 204.286C128.643 204.898 128.643 205.511 128.643 206.143C128.03 206.143 127.417 206.143 126.786 206.143C126.786 204.304 126.786 202.466 126.786 200.571Z" fill="#FAFAFA"/>
<path d="M156.5 232.143C157.726 232.143 158.951 232.143 160.214 232.143C160.214 233.369 160.214 234.594 160.214 235.857C158.989 235.857 157.763 235.857 156.5 235.857C156.5 234.632 156.5 233.406 156.5 232.143Z" fill="#FAFAFA"/>
<path d="M98.9287 232.143C100.154 232.143 101.38 232.143 102.643 232.143C102.643 233.369 102.643 234.594 102.643 235.857C101.417 235.857 100.192 235.857 98.9287 235.857C98.9287 234.632 98.9287 233.406 98.9287 232.143Z" fill="#FAFAFA"/>
<path d="M91.5 217.286C92.7257 217.286 93.9514 217.286 95.2143 217.286C95.2143 218.511 95.2143 219.737 95.2143 221C93.9886 221 92.7629 221 91.5 221C91.5 219.774 91.5 218.549 91.5 217.286Z" fill="#FAFAFA"/>
<path d="M87.7856 213.571C89.0114 213.571 90.2371 213.571 91.4999 213.571C91.4999 214.797 91.4999 216.023 91.4999 217.286C90.2742 217.286 89.0485 217.286 87.7856 217.286C87.7856 216.06 87.7856 214.834 87.7856 213.571Z" fill="#FAFAFA"/>
<path d="M95.2144 209.857C96.4401 209.857 97.6658 209.857 98.9286 209.857C98.9286 211.083 98.9286 212.308 98.9286 213.571C97.7029 213.571 96.4772 213.571 95.2144 213.571C95.2144 212.346 95.2144 211.12 95.2144 209.857Z" fill="#FAFAFA"/>
<path d="M84.0713 209.857C85.297 209.857 86.5227 209.857 87.7856 209.857C87.7856 211.083 87.7856 212.308 87.7856 213.571C86.5599 213.571 85.3341 213.571 84.0713 213.571C84.0713 212.346 84.0713 211.12 84.0713 209.857Z" fill="#FAFAFA"/>
<path d="M91.5 206.143C92.7257 206.143 93.9514 206.143 95.2143 206.143C95.2143 207.369 95.2143 208.594 95.2143 209.857C93.9886 209.857 92.7629 209.857 91.5 209.857C91.5 208.632 91.5 207.406 91.5 206.143Z" fill="#FAFAFA"/>
<path d="M72.9287 202.429C74.1544 202.429 75.3801 202.429 76.643 202.429C76.643 203.654 76.643 204.88 76.643 206.143C75.4173 206.143 74.1916 206.143 72.9287 206.143C72.9287 204.917 72.9287 203.692 72.9287 202.429Z" fill="#FAFAFA"/>
<path d="M167.643 198.714C168.869 198.714 170.094 198.714 171.357 198.714C171.357 199.94 171.357 201.166 171.357 202.429C170.132 202.429 168.906 202.429 167.643 202.429C167.643 201.203 167.643 199.977 167.643 198.714Z" fill="#FAFAFA"/>
<path d="M163.929 195C165.154 195 166.38 195 167.643 195C167.643 196.226 167.643 197.451 167.643 198.714C166.417 198.714 165.192 198.714 163.929 198.714C163.929 197.489 163.929 196.263 163.929 195Z" fill="#FAFAFA"/>
<path d="M160.214 191.286C161.44 191.286 162.666 191.286 163.929 191.286C163.929 192.511 163.929 193.737 163.929 195C162.703 195 161.477 195 160.214 195C160.214 193.774 160.214 192.549 160.214 191.286Z" fill="#FAFAFA"/>
<path d="M171.357 187.571C172.583 187.571 173.808 187.571 175.071 187.571C175.071 188.797 175.071 190.023 175.071 191.286C173.846 191.286 172.62 191.286 171.357 191.286C171.357 190.06 171.357 188.834 171.357 187.571Z" fill="#FAFAFA"/>
<path d="M163.929 176.429C165.154 176.429 166.38 176.429 167.643 176.429C167.643 177.654 167.643 178.88 167.643 180.143C166.417 180.143 165.192 180.143 163.929 180.143C163.929 178.917 163.929 177.692 163.929 176.429Z" fill="#FAFAFA"/>
<path d="M160.214 172.714C161.44 172.714 162.666 172.714 163.929 172.714C163.929 173.94 163.929 175.166 163.929 176.429C162.703 176.429 161.477 176.429 160.214 176.429C160.214 175.203 160.214 173.977 160.214 172.714Z" fill="#FAFAFA"/>
<path d="M156.5 169C157.726 169 158.951 169 160.214 169C160.214 170.226 160.214 171.451 160.214 172.714C158.989 172.714 157.763 172.714 156.5 172.714C156.5 171.489 156.5 170.263 156.5 169Z" fill="#FAFAFA"/>
<path d="M80.3569 165.286C81.5826 165.286 82.8084 165.286 84.0712 165.286C84.0712 166.511 84.0712 167.737 84.0712 169C82.8455 169 81.6198 169 80.3569 169C80.3569 167.774 80.3569 166.549 80.3569 165.286Z" fill="#FAFAFA"/>
<path d="M76.6431 161.571C77.8688 161.571 79.0945 161.571 80.3574 161.571C80.3574 162.797 80.3574 164.023 80.3574 165.286C79.1316 165.286 77.9059 165.286 76.6431 165.286C76.6431 164.06 76.6431 162.834 76.6431 161.571Z" fill="#FAFAFA"/>
<path d="M72.9287 157.857C74.1544 157.857 75.3801 157.857 76.643 157.857C76.643 159.083 76.643 160.308 76.643 161.571C75.4173 161.571 74.1916 161.571 72.9287 161.571C72.9287 160.346 72.9287 159.12 72.9287 157.857Z" fill="#FAFAFA"/>
<path d="M167.643 154.143C168.869 154.143 170.094 154.143 171.357 154.143C171.357 155.369 171.357 156.594 171.357 157.857C170.132 157.857 168.906 157.857 167.643 157.857C167.643 156.632 167.643 155.406 167.643 154.143Z" fill="#FAFAFA"/>
<path d="M87.7856 154.143C89.0114 154.143 90.2371 154.143 91.4999 154.143C91.4999 155.369 91.4999 156.594 91.4999 157.857C90.2742 157.857 89.0485 157.857 87.7856 157.857C87.7856 156.632 87.7856 155.406 87.7856 154.143Z" fill="#FAFAFA"/>
<path d="M186.214 150.429C187.44 150.429 188.666 150.429 189.929 150.429C189.929 151.654 189.929 152.88 189.929 154.143C188.703 154.143 187.477 154.143 186.214 154.143C186.214 152.917 186.214 151.692 186.214 150.429Z" fill="#FAFAFA"/>
<path d="M171.357 150.429C172.583 150.429 173.808 150.429 175.071 150.429C175.071 151.654 175.071 152.88 175.071 154.143C173.846 154.143 172.62 154.143 171.357 154.143C171.357 152.917 171.357 151.692 171.357 150.429Z" fill="#FAFAFA"/>
<path d="M84.0713 150.429C85.297 150.429 86.5227 150.429 87.7856 150.429C87.7856 151.654 87.7856 152.88 87.7856 154.143C86.5599 154.143 85.3341 154.143 84.0713 154.143C84.0713 152.917 84.0713 151.692 84.0713 150.429Z" fill="#FAFAFA"/>
<path d="M175.071 146.714C176.297 146.714 177.523 146.714 178.786 146.714C178.786 147.94 178.786 149.166 178.786 150.429C177.56 150.429 176.334 150.429 175.071 150.429C175.071 149.203 175.071 147.977 175.071 146.714Z" fill="#FAFAFA"/>
<path d="M80.3569 146.714C81.5826 146.714 82.8084 146.714 84.0712 146.714C84.0712 147.94 84.0712 149.166 84.0712 150.429C82.8455 150.429 81.6198 150.429 80.3569 150.429C80.3569 149.203 80.3569 147.977 80.3569 146.714Z" fill="#FAFAFA"/>
<path d="M197.357 131.857C198.583 131.857 199.808 131.857 201.071 131.857C201.071 133.083 201.071 134.308 201.071 135.571C199.846 135.571 198.62 135.571 197.357 135.571C197.357 134.346 197.357 133.12 197.357 131.857Z" fill="#FAFAFA"/>
<path d="M58.0713 131.857C59.297 131.857 60.5227 131.857 61.7856 131.857C61.7856 133.083 61.7856 134.308 61.7856 135.571C60.5599 135.571 59.3341 135.571 58.0713 135.571C58.0713 134.346 58.0713 133.12 58.0713 131.857Z" fill="#FAFAFA"/>
<path d="M201.071 128.143C202.297 128.143 203.523 128.143 204.786 128.143C204.786 129.369 204.786 130.594 204.786 131.857C203.56 131.857 202.334 131.857 201.071 131.857C201.071 130.632 201.071 129.406 201.071 128.143Z" fill="#FAFAFA"/>
<path d="M54.3569 128.143C55.5826 128.143 56.8084 128.143 58.0712 128.143C58.0712 129.369 58.0712 130.594 58.0712 131.857C56.8455 131.857 55.6198 131.857 54.3569 131.857C54.3569 130.632 54.3569 129.406 54.3569 128.143Z" fill="#FAFAFA"/>
<path d="M139.786 126.286C141.011 126.286 142.237 126.286 143.5 126.286C143.5 127.511 143.5 128.737 143.5 130C142.274 130 141.049 130 139.786 130C139.786 128.774 139.786 127.549 139.786 126.286Z" fill="#FAFAFA"/>
<path d="M115.643 126.286C116.869 126.286 118.094 126.286 119.357 126.286C119.357 127.511 119.357 128.737 119.357 130C118.132 130 116.906 130 115.643 130C115.643 128.774 115.643 127.549 115.643 126.286Z" fill="#FAFAFA"/>
<path d="M204.786 124.429C206.011 124.429 207.237 124.429 208.5 124.429C208.5 125.654 208.5 126.88 208.5 128.143C207.274 128.143 206.049 128.143 204.786 128.143C204.786 126.917 204.786 125.692 204.786 124.429Z" fill="#FAFAFA"/>
<path d="M50.6431 124.429C51.8688 124.429 53.0945 124.429 54.3574 124.429C54.3574 125.654 54.3574 126.88 54.3574 128.143C53.1316 128.143 51.9059 128.143 50.6431 128.143C50.6431 126.917 50.6431 125.692 50.6431 124.429Z" fill="#FAFAFA"/>
<path d="M178.786 94.7144C180.011 94.7144 181.237 94.7144 182.5 94.7144C182.5 95.9401 182.5 97.1658 182.5 98.4286C181.274 98.4286 180.049 98.4286 178.786 98.4286C178.786 97.2029 178.786 95.9772 178.786 94.7144Z" fill="#FAFAFA"/>
<path d="M76.6431 94.7144C77.8688 94.7144 79.0945 94.7144 80.3574 94.7144C80.3574 95.9401 80.3574 97.1658 80.3574 98.4286C79.1316 98.4286 77.9059 98.4286 76.6431 98.4286C76.6431 97.2029 76.6431 95.9772 76.6431 94.7144Z" fill="#FAFAFA"/>
<path d="M204.786 91C206.011 91 207.237 91 208.5 91C208.5 92.2257 208.5 93.4514 208.5 94.7143C207.274 94.7143 206.049 94.7143 204.786 94.7143C204.786 93.4886 204.786 92.2629 204.786 91Z" fill="#FAFAFA"/>
<path d="M182.5 91C183.726 91 184.951 91 186.214 91C186.214 92.2257 186.214 93.4514 186.214 94.7143C184.989 94.7143 183.763 94.7143 182.5 94.7143C182.5 93.4886 182.5 92.2629 182.5 91Z" fill="#FAFAFA"/>
<path d="M72.9287 91C74.1544 91 75.3801 91 76.643 91C76.643 92.2257 76.643 93.4514 76.643 94.7143C75.4173 94.7143 74.1916 94.7143 72.9287 94.7143C72.9287 93.4886 72.9287 92.2629 72.9287 91Z" fill="#FAFAFA"/>
<path d="M50.6431 91C51.8688 91 53.0945 91 54.3574 91C54.3574 92.2257 54.3574 93.4514 54.3574 94.7143C53.1316 94.7143 51.9059 94.7143 50.6431 94.7143C50.6431 93.4886 50.6431 92.2629 50.6431 91Z" fill="#FAFAFA"/>
<path d="M121.214 83.5713C122.44 83.5713 123.666 83.5713 124.929 83.5713C124.929 84.797 124.929 86.0227 124.929 87.2856C123.703 87.2856 122.477 87.2856 121.214 87.2856C121.214 86.0599 121.214 84.8341 121.214 83.5713Z" fill="#FAFAFA"/>
<path d="M182.5 72.4287C183.726 72.4287 184.951 72.4287 186.214 72.4287C186.214 73.6544 186.214 74.8801 186.214 76.143C184.989 76.143 183.763 76.143 182.5 76.143C182.5 74.9173 182.5 73.6916 182.5 72.4287Z" fill="#FAFAFA"/>
<path d="M72.9287 72.4287C74.1544 72.4287 75.3801 72.4287 76.643 72.4287C76.643 73.6544 76.643 74.8801 76.643 76.143C75.4173 76.143 74.1916 76.143 72.9287 76.143C72.9287 74.9173 72.9287 73.6916 72.9287 72.4287Z" fill="#FAFAFA"/>
<path d="M178.786 68.7144C180.011 68.7144 181.237 68.7144 182.5 68.7144C182.5 69.9401 182.5 71.1658 182.5 72.4286C181.274 72.4286 180.049 72.4286 178.786 72.4286C178.786 71.2029 178.786 69.9772 178.786 68.7144Z" fill="#FAFAFA"/>
<path d="M141.643 68.7144C142.869 68.7144 144.094 68.7144 145.357 68.7144C145.357 69.9401 145.357 71.1658 145.357 72.4286C144.132 72.4286 142.906 72.4286 141.643 72.4286C141.643 71.2029 141.643 69.9772 141.643 68.7144Z" fill="#FAFAFA"/>
<path d="M113.786 68.7144C115.011 68.7144 116.237 68.7144 117.5 68.7144C117.5 69.9401 117.5 71.1658 117.5 72.4286C116.274 72.4286 115.049 72.4286 113.786 72.4286C113.786 71.2029 113.786 69.9772 113.786 68.7144Z" fill="#FAFAFA"/>
<path d="M76.6431 68.7144C77.8688 68.7144 79.0945 68.7144 80.3574 68.7144C80.3574 69.9401 80.3574 71.1658 80.3574 72.4286C79.1316 72.4286 77.9059 72.4286 76.6431 72.4286C76.6431 71.2029 76.6431 69.9772 76.6431 68.7144Z" fill="#FAFAFA"/>
<path d="M175.071 65C176.297 65 177.523 65 178.786 65C178.786 66.2257 178.786 67.4514 178.786 68.7143C177.56 68.7143 176.334 68.7143 175.071 68.7143C175.071 67.4886 175.071 66.2629 175.071 65Z" fill="#FAFAFA"/>
<path d="M145.357 65C146.583 65 147.808 65 149.071 65C149.071 66.2257 149.071 67.4514 149.071 68.7143C147.846 68.7143 146.62 68.7143 145.357 68.7143C145.357 67.4886 145.357 66.2629 145.357 65Z" fill="#FAFAFA"/>
<path d="M110.071 65C111.297 65 112.523 65 113.786 65C113.786 66.2257 113.786 67.4514 113.786 68.7143C112.56 68.7143 111.334 68.7143 110.071 68.7143C110.071 67.4886 110.071 66.2629 110.071 65Z" fill="#FAFAFA"/>
<path d="M80.3569 65C81.5826 65 82.8084 65 84.0712 65C84.0712 66.2257 84.0712 67.4514 84.0712 68.7143C82.8455 68.7143 81.6198 68.7143 80.3569 68.7143C80.3569 67.4886 80.3569 66.2629 80.3569 65Z" fill="#FAFAFA"/>
<path d="M197.357 53.8569C198.583 53.8569 199.808 53.8569 201.071 53.8569C201.071 55.0826 201.071 56.3084 201.071 57.5712C199.846 57.5712 198.62 57.5712 197.357 57.5712C197.357 56.3455 197.357 55.1198 197.357 53.8569Z" fill="#FAFAFA"/>
<path d="M58.0713 53.8569C59.297 53.8569 60.5227 53.8569 61.7856 53.8569C61.7856 55.0826 61.7856 56.3084 61.7856 57.5712C60.5599 57.5712 59.3341 57.5712 58.0713 57.5712C58.0713 56.3455 58.0713 55.1198 58.0713 53.8569Z" fill="#FAFAFA"/>
<path d="M193.643 50.1431C194.869 50.1431 196.094 50.1431 197.357 50.1431C197.357 51.3688 197.357 52.5945 197.357 53.8574C196.132 53.8574 194.906 53.8574 193.643 53.8574C193.643 52.6316 193.643 51.4059 193.643 50.1431Z" fill="#FAFAFA"/>
<path d="M61.7856 50.1431C63.0114 50.1431 64.2371 50.1431 65.4999 50.1431C65.4999 51.3688 65.4999 52.5945 65.4999 53.8574C64.2742 53.8574 63.0485 53.8574 61.7856 53.8574C61.7856 52.6316 61.7856 51.4059 61.7856 50.1431Z" fill="#FAFAFA"/>
<path d="M149.071 31.5713C150.297 31.5713 151.523 31.5713 152.786 31.5713C152.786 32.797 152.786 34.0227 152.786 35.2856C151.56 35.2856 150.334 35.2856 149.071 35.2856C149.071 34.0599 149.071 32.8341 149.071 31.5713Z" fill="#FAFAFA"/>
<path d="M106.357 31.5713C107.583 31.5713 108.808 31.5713 110.071 31.5713C110.071 32.797 110.071 34.0227 110.071 35.2856C108.846 35.2856 107.62 35.2856 106.357 35.2856C106.357 34.0599 106.357 32.8341 106.357 31.5713Z" fill="#FAFAFA"/>
</svg>
