<svg width="24" height="24" viewBox="0 0 24 24" fill="none" xmlns="http://www.w3.org/2000/svg">
<path d="M3 9L12 2L21 9V20C21 20.5304 20.7893 21.0391 20.4142 21.4142C20.0391 21.7893 19.5304 22 19 22H5C4.46957 22 3.96086 21.7893 3.58579 21.4142C3.21071 21.0391 3 20.5304 3 20V9Z" fill="#601C56" stroke="#601C56" stroke-width="2" stroke-linecap="round" stroke-linejoin="round"/>
<mask id="path-2-inside-1_238_2192" fill="white">
<path d="M9 21V13C9 12.4477 9.44772 12 10 12H14C14.5523 12 15 12.4477 15 13V21"/>
</mask>
<path d="M9 21V13C9 12.4477 9.44772 12 10 12H14C14.5523 12 15 12.4477 15 13V21" fill="#FAFAFA"/>
<path d="M7 21C7 22.1046 7.89543 23 9 23C10.1046 23 11 22.1046 11 21H9H7ZM13 21C13 22.1046 13.8954 23 15 23C16.1046 23 17 22.1046 17 21H15H13ZM9 21H11V13H9H7V21H9ZM10 12V14H14V12V10H10V12ZM15 13H13V21H15H17V13H15ZM14 12V14C13.4477 14 13 13.5523 13 13H15H17C17 11.3431 15.6569 10 14 10V12ZM9 13H11C11 13.5523 10.5523 14 10 14V12V10C8.34315 10 7 11.3431 7 13H9Z" fill="#FAFAFA" mask="url(#path-2-inside-1_238_2192)"/>
</svg>
