<svg width="41" height="40" viewBox="0 0 41 40" fill="none" xmlns="http://www.w3.org/2000/svg">
<g id="nrk:instagram">
<path id="Vector" fill-rule="evenodd" clip-rule="evenodd" d="M20.5001 2.89014C15.8535 2.89014 15.2701 2.91014 13.4451 2.99347C11.6251 3.0768 10.3801 3.36514 9.2918 3.78847C8.14955 4.21655 7.1152 4.89019 6.2618 5.7618C5.39019 6.6152 4.71655 7.64955 4.28847 8.7918C3.86514 9.88014 3.5768 11.1251 3.49347 12.9451C3.41014 14.7701 3.39014 15.3535 3.39014 20.0001C3.39014 24.6468 3.41014 25.2301 3.49347 27.0551C3.5768 28.8751 3.86514 30.1201 4.28847 31.2085C4.71655 32.3507 5.39019 33.3851 6.2618 34.2385C7.1152 35.1101 8.14955 35.7837 9.2918 36.2118C10.3801 36.6351 11.6251 36.9235 13.4451 37.0068C15.2701 37.0901 15.8535 37.1101 20.5001 37.1101C25.1468 37.1101 25.7301 37.0901 27.5551 37.0068C29.3751 36.9235 30.6201 36.6351 31.7085 36.2118C32.8335 35.7751 33.7868 35.1901 34.7385 34.2385C35.6901 33.2868 36.2751 32.3335 36.7118 31.2085C37.1351 30.1201 37.4235 28.8751 37.5068 27.0551C37.5901 25.2301 37.6101 24.6468 37.6101 20.0001C37.6101 15.3535 37.5901 14.7701 37.5068 12.9451C37.4235 11.1251 37.1351 9.88014 36.7118 8.7918C36.2837 7.64955 35.6101 6.6152 34.7385 5.7618C33.8851 4.89019 32.8507 4.21655 31.7085 3.78847C30.6201 3.36514 29.3751 3.0768 27.5551 2.99347C25.7301 2.91014 25.1468 2.89014 20.5001 2.89014ZM20.5001 5.97347C25.0685 5.97347 25.6101 5.99014 27.4135 6.07347C29.0818 6.14847 29.9885 6.42847 30.5918 6.6618C31.3901 6.9718 31.9585 7.34347 32.5585 7.9418C33.1585 8.54014 33.5285 9.11014 33.8385 9.90847C34.0718 10.5118 34.3518 11.4185 34.4268 13.0868C34.5101 14.8901 34.5268 15.4318 34.5268 20.0001C34.5268 24.5685 34.5101 25.1101 34.4268 26.9135C34.3518 28.5818 34.0718 29.4885 33.8385 30.0918C33.5285 30.8901 33.1568 31.4585 32.5585 32.0585C31.9601 32.6585 31.3901 33.0285 30.5918 33.3385C29.9885 33.5718 29.0818 33.8518 27.4135 33.9268C25.6101 34.0101 25.0685 34.0268 20.5001 34.0268C15.9318 34.0268 15.3901 34.0101 13.5868 33.9268C11.9185 33.8518 11.0118 33.5718 10.4085 33.3385C9.61014 33.0285 9.0418 32.6568 8.4418 32.0585C7.8418 31.4601 7.4718 30.8901 7.1618 30.0918C6.92847 29.4885 6.64847 28.5818 6.57347 26.9135C6.49014 25.1101 6.47347 24.5685 6.47347 20.0001C6.47347 15.4318 6.49014 14.8901 6.57347 13.0868C6.64847 11.4185 6.92847 10.5118 7.1618 9.90847C7.43718 9.16602 7.87443 8.4942 8.4418 7.9418C9.0418 7.3418 9.61014 6.9718 10.4085 6.6618C11.0118 6.42847 11.9185 6.14847 13.5868 6.07347C15.3901 5.99014 15.9318 5.97347 20.5001 5.97347ZM11.7135 20.0001C11.7135 18.8463 11.9407 17.7037 12.3823 16.6376C12.8239 15.5716 13.4711 14.6029 14.287 13.787C15.1029 12.9711 16.0716 12.3239 17.1376 11.8823C18.2037 11.4407 19.3463 11.2135 20.5001 11.2135C21.654 11.2135 22.7966 11.4407 23.8626 11.8823C24.9287 12.3239 25.8973 12.9711 26.7132 13.787C27.5292 14.6029 28.1764 15.5716 28.618 16.6376C29.0595 17.7037 29.2868 18.8463 29.2868 20.0001C29.2868 22.3305 28.3611 24.5654 26.7132 26.2132C25.0654 27.8611 22.8305 28.7868 20.5001 28.7868C18.1698 28.7868 15.9348 27.8611 14.287 26.2132C12.6392 24.5654 11.7135 22.3305 11.7135 20.0001ZM20.5001 25.7035C18.9875 25.7035 17.5369 25.1026 16.4673 24.033C15.3977 22.9634 14.7968 21.5128 14.7968 20.0001C14.7968 18.4875 15.3977 17.0369 16.4673 15.9673C17.5369 14.8977 18.9875 14.2968 20.5001 14.2968C22.0128 14.2968 23.4634 14.8977 24.533 15.9673C25.6026 17.0369 26.2035 18.4875 26.2035 20.0001C26.2035 21.5128 25.6026 22.9634 24.533 24.033C23.4634 25.1026 22.0128 25.7035 20.5001 25.7035ZM29.6335 12.9201C30.178 12.9201 30.7003 12.7038 31.0854 12.3187C31.4705 11.9337 31.6868 11.4114 31.6868 10.8668C31.6868 10.3222 31.4705 9.79995 31.0854 9.41488C30.7003 9.0298 30.178 8.81347 29.6335 8.81347C29.0889 8.81347 28.5666 9.0298 28.1815 9.41488C27.7965 9.79995 27.5801 10.3222 27.5801 10.8668C27.5801 11.4114 27.7965 11.9337 28.1815 12.3187C28.5666 12.7038 29.0889 12.9201 29.6335 12.9201Z" fill="#D3D4D4"/>
</g>
</svg>
