<svg width="89" height="52" viewBox="0 0 89 52" fill="none" xmlns="http://www.w3.org/2000/svg">
<path d="M74.9711 35.7571C74.85 35.2001 74.73 34.6159 74.6133 34.0165L83.6147 31.73L82.2837 29.0007C81.1651 26.7072 80.084 24.359 79.0711 22.022C78.9489 21.741 78.6593 21.0748 78.6593 21.0738C78.165 19.9377 77.7345 18.9491 77.2842 17.8442C77.9943 17.7866 78.7045 17.7573 79.4003 17.7573H79.5148C79.6039 17.7573 79.6931 17.7583 79.7834 17.7603L83.1028 17.8099L82.4873 14.4104L82.4026 13.8656C82.1383 12.1694 81.84 10.2479 81.7112 8.65681L81.4271 5.13307L77.8633 6.46736C77.5297 6.59169 77.2534 6.69278 77.0596 6.76252C75.0746 7.47718 70.542 8.91356 62.5006 10.5066C62.199 10.5663 61.9578 10.6138 61.8279 10.639L58.4964 11.287L59.8341 14.1628C60.0565 14.6399 60.258 15.1312 60.4341 15.6234C60.4848 15.7629 60.5354 15.9105 60.5861 16.0601C58.9577 14.8077 57.1026 14.1112 55.2002 14.0425C55.122 14.0395 55.0207 14.0374 54.8996 14.0374C54.2335 14.0374 53.5311 14.1193 52.8662 14.274L50.8844 13.2217L52.5788 4.26679L44.8358 10.4652L31.2676 3.71387L38.9875 15.018L34.7368 18.201L34.5353 18.2344C34.4043 18.2556 34.281 18.2758 34.1973 18.29C34.0365 18.3173 33.8769 18.3446 33.7173 18.3709L30.5906 18.8803L32.3917 24.1922L29.788 25.4194C29.4808 24.0467 29.2001 22.6608 28.9523 21.2992C28.4877 18.7469 28.1134 16.144 27.8393 13.5634L27.5156 10.5107L11.8611 14.5408L13.0094 17.1933C13.1437 17.5026 13.2692 17.8008 13.3904 18.0979L5.38531 20.1034L5.48 20.2621C5.79927 20.7989 6.08552 21.3589 6.33324 21.927C6.48076 22.2666 6.61728 22.6153 6.74059 22.9701C6.7582 23.0136 6.77692 23.0581 6.79344 23.1036C6.81105 23.1511 6.82867 23.2036 6.84848 23.2623L7.25804 24.4833C7.62686 25.5801 8.31275 27.623 8.46578 28.0869C9.60637 31.5612 11.3316 36.8104 12.2233 43.2777C12.2729 43.6375 12.3103 43.9307 12.3334 44.1106L12.7034 47.0662L25.1254 44.0257C25.1474 44.0641 25.1695 44.1015 25.1926 44.1389C26.8154 46.8267 29.6889 47.9436 30.9814 48.1589C31.6673 48.2732 32.3422 48.2853 32.6009 48.2853H32.6405C32.8629 48.2833 33.2351 48.2802 33.7052 48.2135C33.9022 48.1852 34.6057 48.07 35.3676 47.7647C37.3856 46.9561 38.7299 45.178 39.1075 44.6301C40.0632 44.3623 41.0188 44.0934 41.9744 43.8255C43.7965 43.309 45.667 42.8683 47.5331 42.5175C49.0734 42.2284 50.6444 41.9929 52.2056 41.818L55.4776 41.4521L54.5572 38.5621C54.7136 38.5702 54.871 38.5743 55.0273 38.5753H55.0505C55.9984 38.5753 57.8414 38.4196 59.5324 37.3744C59.9497 37.1167 60.3427 36.8154 60.7017 36.4788C61.0661 37.8566 61.3721 39.2556 61.6121 40.6414L62.0834 43.3666L71.7266 41.3035L70.9537 38.9473L75.5778 38.551L74.9722 35.7561L74.9711 35.7571Z" fill="white"/>
<path d="M74.0531 35.9308C73.8792 35.1272 73.7074 34.2751 73.5434 33.3957L82.3114 31.1678L81.4295 29.3604C80.3054 27.0557 79.2199 24.6965 78.2015 22.3483C78.0595 22.0198 77.923 21.7064 77.7897 21.4022C77.1545 19.9415 76.5996 18.6679 75.9919 17.1132C77.1336 16.9687 78.283 16.8959 79.4126 16.8959H79.5282C79.6217 16.8959 79.7142 16.8979 79.8067 16.8989L81.9921 16.9313L81.5605 14.5478L81.4735 13.9938C81.2071 12.2835 80.9065 10.3447 80.7755 8.72641L80.5873 6.39241L78.2268 7.27587C77.8877 7.40222 77.607 7.50432 77.411 7.57508C75.3996 8.29883 70.8141 9.75341 62.7067 11.3596C62.4017 11.4203 62.1573 11.4678 62.0296 11.492L59.8233 11.9206L60.7095 13.825C60.9837 14.4396 61.1918 14.9632 61.3382 15.3554C61.7015 16.3905 61.9206 17.1982 62.0076 17.5964C62.0857 17.9532 62.1419 18.2989 62.1419 18.2989C62.1727 18.4839 62.1947 18.6406 62.209 18.7558C62.1353 18.6699 62.0263 18.5466 61.8909 18.401C60.9352 17.3781 60.0049 16.7554 59.7132 16.5664C57.8581 15.3635 56.025 14.943 55.1706 14.9117C55.0407 14.9066 54.9075 14.9066 54.9075 14.9066C54.2866 14.9066 53.6304 14.9875 53.0117 15.1391C52.928 15.1593 52.841 15.1826 52.7463 15.2099L49.8486 13.6714L51.2006 6.52988L44.9703 11.5163L33.9839 6.05176L40.2384 15.2099L35.1531 19.0176C35.0309 19.0389 34.8625 19.0662 34.7072 19.0924C34.5795 19.1137 34.4606 19.1329 34.3791 19.147C34.2151 19.1753 34.0521 19.2026 33.8892 19.2289L31.8183 19.5665L34.5322 27.5692H33.6558C33.5028 27.2812 33.3652 27.0153 33.2363 26.7626L32.4238 25.1594L29.1254 26.7141C28.7136 24.9633 28.3448 23.1934 28.0277 21.4467C27.5598 18.8751 27.1822 16.252 26.9059 13.6522L26.6912 11.6305L13.1329 15.1199L13.8937 16.8767C14.1601 17.4933 14.399 18.0766 14.6368 18.6911L6.79913 20.6653L6.96538 20.9766C7.08538 21.202 7.19217 21.4305 7.28355 21.6569C7.343 21.8065 7.38264 21.9197 7.47622 22.1927C7.52686 22.3423 7.59512 22.5394 7.69091 22.8153L7.76357 23.0236L8.12798 24.1082C8.51002 25.2433 9.22013 27.358 9.37757 27.8381C10.5281 31.3396 12.2665 36.6313 13.1693 43.1724C13.2199 43.5363 13.2573 43.8325 13.2804 44.0144L13.526 45.9714L25.6497 43.0036C25.7664 43.2563 25.893 43.4958 26.0273 43.7203C27.3727 45.9491 29.8333 47.0863 31.1588 47.3077C31.7864 47.4118 32.4282 47.4199 32.6099 47.4199H32.6407C32.8499 47.4179 33.167 47.4158 33.571 47.3582C33.691 47.341 34.3252 47.242 34.999 46.9721C36.94 46.1937 38.2336 44.2984 38.3745 44.0852C38.6629 43.6485 39.0009 43.044 39.3841 41.8714L39.9367 43.5009L41.7038 42.9995C43.5545 42.4749 45.4547 42.0271 47.3517 41.6713C48.9172 41.3772 50.5147 41.1376 52.099 40.9607L54.2657 40.7181L53.6535 38.7945C53.5192 38.373 53.3948 37.9454 53.2803 37.5168C53.855 37.6442 54.4429 37.7099 55.0352 37.7119H55.0584C55.8984 37.7119 57.53 37.5754 59.013 36.6586C59.8695 36.1289 60.5917 35.4042 61.1323 34.5359C61.7279 36.4938 62.2057 38.5034 62.5525 40.5099L62.8641 42.3152L70.5378 40.6736L69.722 38.187L74.4528 37.7816L74.052 35.9308H74.0531Z" fill="#4F75F9"/>
<path d="M38.0306 19.0826L44.7839 18.2558L47.6948 21.7795C47.7707 20.2713 47.8467 18.7632 47.9227 17.256L51.874 16.781L48.0129 14.7108L49.3605 9.72336L45.1967 13.5524L37.6739 9.32812L42.7185 15.6286L38.0295 19.0836L38.0306 19.0826Z" fill="white"/>
<path d="M26.2117 29.792C26.5596 29.6323 26.9768 29.4079 27.4095 29.0925C27.5394 28.9975 27.6605 28.9025 27.7728 28.8075C27.2135 26.5796 26.7027 24.2527 26.2612 21.8277C25.7614 19.0803 25.3904 16.438 25.1228 13.917L15.6777 16.348C16.4 18.0169 16.8635 19.3128 17.5262 21.2243C18.4929 24.0162 18.8518 25.6638 19.4111 28.112C18.4852 28.4375 17.7784 28.6619 16.8525 28.9884C15.9266 26.1197 15.2726 23.9424 15.0458 23.0609C14.9214 22.5757 14.8212 22.13 14.8212 22.13C14.677 21.4891 14.5801 20.9594 14.5184 20.6006C12.7811 21.0352 11.0449 21.4709 9.30762 21.9056C9.38689 22.0754 9.39129 22.0855 9.39129 22.0855C9.47606 22.2725 9.53441 22.4443 9.59497 22.6212C9.60377 22.6475 9.60818 22.6596 9.60818 22.6596C9.70726 22.9568 10.9888 26.7656 11.2123 27.4459C12.4773 31.2972 14.165 36.51 15.0678 43.0581C15.1196 43.4301 15.1581 43.7334 15.1812 43.9204C18.0547 43.2168 20.9271 42.5133 23.8006 41.8098C23.0596 40.6948 22.289 39.3656 21.591 37.8241C20.6243 35.6882 20.0606 33.7211 19.7226 32.0876C20.9755 31.7429 22.0071 31.4993 23.26 31.1556C23.6409 32.2888 23.9635 33.3289 24.2366 34.2569C24.2366 34.2569 24.8817 36.4473 24.9654 37.9545C24.9819 38.2446 24.972 38.5226 24.972 38.5226C24.9643 38.7308 24.9467 38.9087 24.9302 39.0452C26.7324 38.5246 28.5347 38.003 30.3358 37.4824C29.836 36.0157 29.3494 34.4883 28.8848 32.9013C28.7582 32.7457 28.6316 32.59 28.5017 32.4343C27.7321 31.5054 26.9658 30.625 26.2106 29.791L26.2117 29.792Z" fill="white"/>
<path d="M73.7152 16.1168C75.5923 15.7418 77.5652 15.5305 79.624 15.5396C79.7242 15.5396 79.8255 15.5406 79.9246 15.5426C79.9114 15.4618 79.8938 15.3496 79.8817 15.2677C79.5943 13.4341 79.3246 11.6055 79.0725 9.78295C79.0427 9.50093 79.0163 9.22396 78.9943 8.95508C78.6453 9.08547 78.3557 9.1906 78.1554 9.26338C77.0544 9.65963 72.4348 11.2901 63.1659 13.1268C62.8576 13.1874 62.611 13.2359 62.4822 13.2612C62.7189 13.7697 62.9512 14.3256 63.167 14.9291C63.4543 15.7307 63.789 16.7839 63.9453 17.4743C63.9894 17.6967 64.0422 17.909 64.0775 18.1213C64.1182 18.101 64.1832 18.0687 64.2624 18.0303C65.0771 17.6371 65.7575 17.4198 66.3719 17.2358C67.8691 16.787 69.3675 16.416 69.8046 16.3099C70.5291 20.5523 71.0751 24.6553 71.641 29.1302C71.7687 30.138 71.8898 31.1417 72.0065 32.1404C73.4356 31.7776 74.8657 31.4147 76.2947 31.0508C77.464 30.7536 78.6343 30.4564 79.8035 30.1592C78.7047 27.9051 77.6137 25.5448 76.5458 23.0804C75.469 20.5968 74.5927 18.4255 73.7152 16.1178V16.1168Z" fill="white"/>
<path d="M64.8344 21.2267L64.7727 19.1191L63.456 20.9841L61.6592 20.2118L62.8152 21.7786L61.6317 23.1584L63.4802 22.6459L65.255 24.4452L64.9489 22.3983L67.557 21.3753L64.8344 21.2267Z" fill="white"/>
<path d="M70.4212 23.1251C69.6847 23.1766 69.0384 23.2625 68.5012 23.3535C67.9243 23.4506 67.42 23.5617 67.0039 23.6659C66.5382 23.7821 66.1066 23.9074 65.7113 24.0358C66.2585 26.3476 66.8057 28.6583 67.3518 30.9701C66.9037 31.0762 66.4567 31.1814 66.0086 31.2875C65.6662 29.7328 65.3238 28.1792 64.9825 26.6246C64.4948 26.6933 63.9421 26.7964 63.3443 26.95C63.4159 27.2472 63.5006 27.5181 63.5887 27.7577C63.0019 27.8557 62.4019 27.9649 61.7875 28.0872C61.4484 28.1549 61.1149 28.2247 60.7868 28.2955C61.542 30.0017 62.2885 31.9334 62.9457 34.0764C63.6404 36.3406 64.1161 38.4512 64.4441 40.3475C65.7146 40.0756 66.9851 39.8037 68.2556 39.5318C67.6138 37.5759 66.973 35.6209 66.3312 33.665C67.0248 33.4113 67.7184 33.1585 68.412 32.9048C68.6168 34.1522 68.8215 35.3985 69.0263 36.6459C70.1163 36.5529 71.2062 36.4589 72.2961 36.3659C71.9659 34.8436 71.6631 33.2576 71.3956 31.61C70.9111 28.623 70.6018 25.7846 70.4212 23.123V23.1251Z" fill="white"/>
<path d="M63.1059 27.0108C63.085 26.56 63.063 26.1092 63.042 25.6583C63.0156 25.0913 62.9881 24.5252 62.9617 23.9581C60.4196 25.1165 57.8786 26.2739 55.3365 27.4323C55.4422 27.8619 55.5479 28.2915 55.6524 28.7201C56.5629 28.6352 57.4734 28.5503 58.3839 28.4654C58.418 29.2276 58.3509 29.9099 58.2034 30.4729C58.1461 30.6346 58.0767 30.7913 57.9931 30.9389C57.2378 32.258 56.3295 31.8658 56.3295 31.8658C56.3295 31.8658 55.1097 31.7748 54.1155 28.0924C53.0916 24.2957 53.5661 20.9367 53.597 20.7032C53.7203 19.7884 54.1287 19.2183 54.5284 19.2183C55.0579 19.2183 55.5831 20.401 55.8385 21.8627C56.0928 23.3243 56.0235 24.0491 56.0235 24.0491L57.3534 23.572C58.8089 23.0514 60.2643 22.5308 61.7198 22.0092C61.6703 21.8667 61.5833 21.6322 61.4523 21.3512C60.4845 19.2739 58.134 16.8217 55.1581 16.7145C54.9126 16.7054 54.3082 16.6994 53.5518 16.8854C49.737 17.8244 48.3102 22.1164 48.0647 22.917C47.9491 23.295 47.8643 23.6609 47.8026 24.0157C48.0151 24.5959 48.243 25.1873 48.4951 25.7907C49.431 28.0317 50.4846 30.012 51.5393 31.7304C51.0218 31.8021 50.457 31.9073 49.857 32.0579C49.5708 32.1296 49.2988 32.2075 49.0357 32.2883C49.3374 32.8756 49.7337 33.4366 50.2765 33.9714C50.3436 34.0381 50.4405 34.1321 50.5649 34.2453C50.6354 34.217 50.7081 34.1887 50.7774 34.1614C50.7906 34.2625 50.8038 34.3636 50.8182 34.4667C51.6108 35.1298 53.0927 36.1073 55.0965 36.1123C55.4796 36.1123 56.8382 36.0891 58.036 35.3491C60.1201 34.0623 60.9701 31.2088 60.1564 28.1824C60.3073 28.152 60.4581 28.1217 60.6089 28.0924C60.6354 28.0873 60.6618 28.0823 60.6871 28.0762C61.5018 27.9135 62.3165 27.7507 63.1323 27.588C63.1235 27.3949 63.1136 27.2029 63.1048 27.0098L63.1059 27.0108Z" fill="white"/>
<path d="M51.3605 37.3297C51.1171 36.3209 50.9432 35.3637 50.8199 34.4701C50.8056 34.368 50.7913 34.2659 50.7791 34.1648C50.7098 34.1931 50.6382 34.2214 50.5667 34.2487C49.7024 34.5914 48.7182 34.931 47.6172 35.2302C46.5207 35.5284 45.4968 35.7346 44.5764 35.8792C43.1165 27.082 42.0794 20.8482 41.999 20.4024C41.9913 20.363 41.9627 20.2043 41.9396 19.989C41.9044 19.6655 41.9022 19.3926 41.9088 19.1904C39.6672 19.9 37.2914 20.4924 34.7834 20.926C34.6138 20.9553 34.4443 20.9836 34.2747 21.0109C35.1786 23.6755 36.0825 26.341 36.9853 29.0056C37.8517 28.948 38.7336 28.9035 39.6309 28.8762C39.7905 28.8711 39.9491 28.8671 40.1076 28.863C39.959 30.0386 39.8203 31.2355 39.6925 32.4505C39.567 33.6554 39.458 34.8411 39.3612 36.0126C39.9788 37.8351 40.5975 39.6577 41.2152 41.4792C42.9745 40.9798 44.9199 40.5078 47.0392 40.1095C48.7644 39.785 50.4026 39.5485 51.934 39.3767C51.7293 38.7348 51.5366 38.0515 51.3615 37.3287L51.3605 37.3297Z" fill="white"/>
<path d="M47.6911 24.972C47.5965 24.7628 47.5018 24.5535 47.4082 24.3433C47.2375 23.9622 47.068 23.5801 46.8985 23.196C46.4955 22.2812 46.1036 21.3725 45.7204 20.4678C44.6734 20.7003 43.6264 20.9317 42.5794 21.1642C42.6587 21.4766 42.7666 21.9031 42.8899 22.4096C43.2664 23.9501 43.404 24.6263 43.8521 26.6288C43.8521 26.6288 44.6503 30.197 44.9828 32.2874C45.0477 32.6968 45.0731 33.1001 45.0731 33.1001C45.0764 33.1617 45.0797 33.2103 45.0797 33.2295C45.8151 33.002 46.5495 32.7736 47.2849 32.5462C47.8277 32.3784 48.3704 32.2095 48.9132 32.0418C49.5297 31.8507 50.1452 31.6597 50.7617 31.4686C49.7202 29.361 48.6952 27.1948 47.6911 24.971V24.972Z" fill="white"/>
<path d="M37.1044 29.3519C36.85 29.3559 36.5957 29.36 36.3414 29.363C36.3293 29.363 36.3172 29.363 36.3051 29.363C36.4823 30.3991 36.5935 31.2977 36.6662 32.0144C36.7157 32.5006 36.7884 33.2244 36.8247 34.1877C36.85 34.868 36.85 35.4522 36.8412 35.9051C36.0463 34.8609 35.2394 33.7237 34.4412 32.4925C33.3303 30.7772 32.3989 29.1275 31.6161 27.585C30.5867 28.0702 29.5573 28.5554 28.5268 29.0406C28.3188 29.1386 28.1107 29.2367 27.9026 29.3347C27.482 29.5328 27.0626 29.7309 26.642 29.9291C27.2971 30.6003 27.9609 31.3028 28.6314 32.0346C29.0685 32.5117 29.5067 33.002 29.9482 33.5064C30.5548 34.1988 31.1636 34.9145 31.7735 35.6574C33.2863 37.5002 34.6349 39.2944 35.835 41.0077C35.8052 41.121 35.3098 42.8929 33.9887 43.1072C33.8907 43.1234 33.6716 43.1578 33.4481 43.0931C32.5949 42.8485 32.1732 41.309 32.291 39.3409C30.4249 39.449 28.5588 39.5572 26.6926 39.6654C26.7169 39.9211 26.762 40.2789 26.8545 40.6984C26.9437 41.1058 27.1605 42.0954 27.7055 42.9981C28.7988 44.8085 30.7772 45.608 31.5467 45.7354C32.0862 45.8253 32.6807 45.8203 32.6807 45.8203C32.8712 45.8183 33.0771 45.8162 33.3424 45.7788C33.3424 45.7788 33.8257 45.7101 34.3134 45.515C35.7722 44.9298 36.8467 43.3043 36.8467 43.3043C37.1836 42.7949 37.7275 41.8558 38.4696 38.3351C38.5609 37.8994 38.6655 37.4031 38.7734 36.8229C38.867 36.3205 38.9628 35.7555 39.0564 35.1126C39.096 34.8407 39.1356 34.5556 39.1731 34.2544C39.4241 32.2772 39.5188 30.5891 39.5518 29.3125C38.7349 29.3246 37.918 29.3367 37.1011 29.3489L37.1044 29.3519Z" fill="white"/>
</svg>
