<svg
   version="1.1"
   id="svg1"
   width="1333.3333"
   height="505.67999"
   viewBox="0 0 1333.3333 505.67999"
   xmlns:inkscape="http://www.inkscape.org/namespaces/inkscape"
   xmlns:sodipodi="http://sodipodi.sourceforge.net/DTD/sodipodi-0.dtd"
   xmlns:xlink="http://www.w3.org/1999/xlink"
   xmlns="http://www.w3.org/2000/svg"
   xmlns:svg="http://www.w3.org/2000/svg">
  <defs
     id="defs1">
    <clipPath
       clipPathUnits="userSpaceOnUse"
       id="clipPath2">
      <path
         d="M 0,379.26 H 1000 V 0 H 0 Z"
         transform="translate(-777.09219,-232.69651)"
         id="path2" />
    </clipPath>
    <clipPath
       clipPathUnits="userSpaceOnUse"
       id="clipPath4">
      <path
         d="M 0,379.26 H 1000 V 0 H 0 Z"
         transform="translate(-222.6577,-232.69651)"
         id="path4" />
    </clipPath>
    <clipPath
       clipPathUnits="userSpaceOnUse"
       id="clipPath6">
      <path
         d="M 0,379.26 H 1000 V 0 H 0 Z"
         transform="translate(-385.48691,-205.38411)"
         id="path6" />
    </clipPath>
    <clipPath
       clipPathUnits="userSpaceOnUse"
       id="clipPath8">
      <path
         d="M 0,379.26 H 1000 V 0 H 0 Z"
         transform="translate(-444.29491,-133.5184)"
         id="path8" />
    </clipPath>
    <clipPath
       clipPathUnits="userSpaceOnUse"
       id="clipPath10">
      <path
         d="M 0,379.26 H 1000 V 0 H 0 Z"
         transform="translate(-491.97631,-200.77741)"
         id="path10" />
    </clipPath>
    <clipPath
       clipPathUnits="userSpaceOnUse"
       id="clipPath12">
      <path
         d="M 0,379.26 H 1000 V 0 H 0 Z"
         transform="translate(-820.9222,-144.13791)"
         id="path12" />
    </clipPath>
    <clipPath
       clipPathUnits="userSpaceOnUse"
       id="clipPath14">
      <path
         d="M 0,379.26 H 1000 V 0 H 0 Z"
         transform="translate(-802.5298,-144.2206)"
         id="path14" />
    </clipPath>
    <clipPath
       clipPathUnits="userSpaceOnUse"
       id="clipPath16">
      <path
         d="M 0,379.26 H 1000 V 0 H 0 Z"
         transform="translate(-302.51351,-111.4705)"
         id="path16" />
    </clipPath>
    <clipPath
       clipPathUnits="userSpaceOnUse"
       id="clipPath18">
      <path
         d="M 0,379.26 H 1000 V 0 H 0 Z"
         transform="translate(-287.91421,-156.0271)"
         id="path18" />
    </clipPath>
    <clipPath
       clipPathUnits="userSpaceOnUse"
       id="clipPath20">
      <path
         d="M 0,379.26 H 1000 V 0 H 0 Z"
         transform="translate(-632.18552,-142.93521)"
         id="path20" />
    </clipPath>
  </defs>
  <g
     id="layer-MC1"
     inkscape:groupmode="layer"
     inkscape:label="레이어 1">
    <path
       id="path1"
       d="m 0,0 c 0,0 42.947,-3.299 70.155,13.961 20.018,12.699 34.166,23.884 47.635,22.065 10.865,-1.466 17.311,-12.615 13.861,-23.021 -3.305,-9.967 -9.928,-20.817 -37.462,-26.251 -3.654,-0.722 -14.891,-0.497 -14.891,-0.497 0,0 33.989,-13.577 60.385,3.804 0,0 8.496,5.808 15.546,17.241 1.249,2.025 -0.772,4.562 -2.991,3.705 -2.35,-0.908 -4.885,-0.944 -7.103,1.117 0,0 3.74,3.448 -2.459,8.691 -6.199,5.243 6.064,18.901 16.058,7.218 1.972,-2.305 3.75,-4.159 5.298,-5.639 2.736,-2.617 7.293,-0.351 6.795,3.403 -0.942,7.108 -4.737,16.977 -17.558,23.223 0,0 11.635,12.279 -16.844,6.179 0,0 4.768,9.117 -13.746,3.729 0,0 -16.012,4.672 -30.463,-4.966 0,0 9.591,14.446 22.513,12.054 0,0 -25.602,8.225 -53.399,-25.163 C 49.652,26.826 35.413,15.079 19,7.096 12.893,4.125 6.416,1.56 0,0"
       style="fill:#601C56;fill-opacity:1;fill-rule:nonzero;stroke:none"
       transform="matrix(1.3333333,0,0,-1.3333333,1036.1229,195.418)"
       clip-path="url(#clipPath2)" />
    <path
       id="path3"
       d="m 0,0 c 0,0 -42.947,-3.299 -70.155,13.961 -20.018,12.699 -34.166,23.884 -47.635,22.065 -10.865,-1.466 -17.311,-12.615 -13.861,-23.021 3.305,-9.967 9.928,-20.817 37.462,-26.251 3.654,-0.722 14.891,-0.497 14.891,-0.497 0,0 -33.989,-13.577 -60.385,3.804 0,0 -8.496,5.808 -15.546,17.241 -1.248,2.025 0.772,4.562 2.991,3.705 2.35,-0.908 4.885,-0.944 7.103,1.117 0,0 -3.74,3.448 2.459,8.691 6.199,5.243 -6.064,18.901 -16.058,7.218 -1.971,-2.305 -3.75,-4.159 -5.297,-5.639 -2.737,-2.617 -7.294,-0.351 -6.796,3.403 0.942,7.108 4.737,16.977 17.558,23.223 0,0 -11.635,12.279 16.844,6.179 0,0 -4.768,9.117 13.746,3.729 0,0 16.012,4.672 30.463,-4.966 0,0 -9.591,14.446 -22.513,12.054 0,0 25.602,8.225 53.399,-25.163 C -49.652,26.826 -35.413,15.079 -19,7.096 -12.893,4.125 -6.416,1.56 0,0"
       style="fill:#601C56;fill-opacity:1;fill-rule:nonzero;stroke:none"
       transform="matrix(1.3333333,0,0,-1.3333333,296.87693,195.418)"
       clip-path="url(#clipPath4)" />
    <path
       id="path5"
       d="m 0,0 c 0,0 14.713,-22.151 6.658,-48.463 0,0 -7.807,52.403 -46.767,48.594 -23.283,-2.276 -20.673,-31.305 -7.645,-41.478 21.099,-16.475 67.972,-27.616 72.901,-57.275 4.929,-29.659 -16.808,-45.935 -45.708,-46.957 -40.936,-1.448 -38.314,22.52 -56.498,4.798 0,0 -8.082,24.219 21.164,51.299 0,0 -8.923,-33.559 18.987,-45.606 6.417,-2.769 17.532,-2.738 22.868,1.722 6.991,5.843 10.351,13.5 7.049,27.8 -2.082,9.021 -19.103,28.687 -41.045,40.866 -6.076,3.372 -37.07,20.917 -34.113,49.609 2.957,28.692 43.266,32.79 64.324,15.711 C -7.749,-7.551 -0.382,-7.875 0,0"
       style="fill:#601C56;fill-opacity:1;fill-rule:nonzero;stroke:none"
       transform="matrix(1.3333333,0,0,-1.3333333,513.98253,231.83453)"
       clip-path="url(#clipPath6)" />
    <path
       id="path7"
       d="m 0,0 c -1.479,11.047 -5.59,38.064 -8.599,51.401 -0.684,3.037 0.708,5.363 3.788,5.814 8.51,1.247 18.913,0.534 23.522,-0.898 C 33.217,51.808 37.943,38.477 38.686,31.797 41.95,2.452 5.196,0 0,0 m 56.198,26.785 c 0.61,21.292 -8.642,36.443 -30.123,41.101 -23.226,5.036 -46.965,-3.264 -58.928,0.697 -4.107,1.36 -15.043,5.488 -15.043,5.488 0,0 13.598,-16.455 14.55,-32.957 0,0 12.012,-86.322 7.569,-98.699 0,0 -1.531,-9.885 -8.831,-13.059 0,0 31.188,1.587 54.038,0 0,0 -14.925,3.499 -16.195,15.559 -0.777,7.383 0.022,23.616 -2.683,48.189 21.427,1.256 54.859,6.207 55.646,33.681"
       style="fill:#601C56;fill-opacity:1;fill-rule:nonzero;stroke:none"
       transform="matrix(1.3333333,0,0,-1.3333333,592.3932,327.65547)"
       clip-path="url(#clipPath8)" />
    <path
       id="path9"
       d="m 0,0 c 0,0 21.742,-1.298 25.841,-1.525 21.967,-1.215 55.048,1.973 68.216,6.9 0,0 -3.101,-11.007 7.235,-38.028 0,0 -10.526,29.768 -61.535,13.354 0,0 -5.183,-35.286 11.212,-39.418 16.395,-4.132 28.317,7.593 30.69,14.711 0,0 -3.423,-11.95 2.711,-34.913 0,0 -8.101,22.032 -24.032,16.609 -7.966,-2.712 -25.848,-18.815 -15.451,-48.311 3.217,-9.126 15.516,-16.417 38.039,-11.711 11.908,2.488 21.003,19.333 25.433,28.661 0,0 -7.657,-21.164 -4.254,-44.855 0,0 -56.07,4.506 -93.502,0.623 0,0 6.986,3.012 8.205,14.457 0.508,4.767 3.33,62.139 -3.993,105.778 0,0 -1.635,14.679 -14.815,17.668"
       style="fill:#601C56;fill-opacity:1;fill-rule:nonzero;stroke:none"
       transform="matrix(1.3333333,0,0,-1.3333333,655.9684,237.9768)"
       clip-path="url(#clipPath10)" />
    <path
       id="path11"
       d="m 0,0 c -0.2,-44.392 -18.727,-80.297 -41.382,-80.195 -22.655,0.102 -40.858,36.172 -40.659,80.564 0.2,44.392 18.728,80.297 41.383,80.195 C -18.004,80.462 0.2,44.392 0,0 m -40.615,90.303 c -38.08,0.172 -69.133,-40.037 -69.357,-89.808 -0.224,-49.771 30.465,-90.258 68.546,-90.429 38.081,-0.172 69.133,40.037 69.357,89.808 0.224,49.771 -30.465,90.258 -68.546,90.429"
       style="fill:#601C56;fill-opacity:1;fill-rule:nonzero;stroke:none"
       transform="matrix(1.3333333,0,0,-1.3333333,1094.5629,313.49613)"
       clip-path="url(#clipPath12)" />
    <path
       id="path13"
       d="m 0,0 c -21.44,-0.698 -21.977,-1.34 -22.751,-27.237 -0.541,25.903 -1.071,26.55 -22.505,27.441 21.441,0.698 21.977,1.34 22.751,27.237 C -21.964,1.538 -21.433,0.891 0,0"
       style="fill:#601C56;fill-opacity:1;fill-rule:nonzero;stroke:none"
       transform="matrix(1.3333333,0,0,-1.3333333,1070.0397,313.38587)"
       clip-path="url(#clipPath14)" />
    <path
       id="path15"
       d="m 0,0 c -0.739,-7.188 -6.637,-24.45 -26.991,-24.291 -27.05,0.21 -35.645,1.836 -35.645,1.836 -1.298,16.675 -5.016,40.117 -5.016,40.117 0,0 -3.633,24.522 23.002,22.182 0,0 13.137,-1.619 16.017,-19.436 0,0 0.074,23.239 13.865,23.239 -11.246,0 -15.754,10.361 -17.603,15.893 0,0 -0.299,-17.583 -27.679,-15.176 -1.468,0.129 -13.859,2.887 -17.29,10.777 -0.836,2.845 -13.592,39.659 -13.592,39.659 1.379,11.179 29.034,9.482 29.034,9.482 51.983,-1.396 56.753,-46.436 56.753,-46.436 -6.328,25.29 -3.14,48.146 -3.14,48.146 -62.915,30.876 -143.333,10.419 -143.333,10.419 13.485,-5.398 19.521,-9.891 24.734,-19.593 22.875,-45.749 23.233,-105.898 22.809,-121.572 -0.423,-15.673 -10.692,-32.447 -10.692,-32.447 41.06,13.574 110.867,8.273 110.867,8.273 C -4.451,-28.418 0.238,-15.143 0,0"
       style="fill:#601C56;fill-opacity:1;fill-rule:nonzero;stroke:none"
       transform="matrix(1.3333333,0,0,-1.3333333,403.35133,357.05267)"
       clip-path="url(#clipPath16)" />
    <path
       id="path17"
       d="M 0,0 C 0.337,-0.008 0.67,-0.018 1.019,-0.018 1.019,-0.018 0.64,0.008 0,0"
       style="fill:#601C56;fill-opacity:1;fill-rule:nonzero;stroke:none"
       transform="matrix(1.3333333,0,0,-1.3333333,383.8856,297.64387)"
       clip-path="url(#clipPath18)" />
    <path
       id="path19"
       d="m 0,0 c -2.748,29.284 -4.112,54.715 -4.112,54.715 l 31.497,3.553 c 0,0 8.82,0.634 15.558,-4.942 C 51.342,46.374 58.972,16.975 38.799,7.586 22.666,0.076 5.518,-0.203 0,0 M 110.281,-83.178 C 84.818,-68.965 83.104,-49.109 75.977,-32.223 62.305,0.165 39.482,-4.891 32.802,-4.79 c 8.414,0.551 38.305,7.769 39.164,37.776 0.485,16.966 -6.281,26.087 -13.375,30.983 -6.061,4.183 -13.537,5.8 -20.846,4.889 -25.7,-3.201 -79.301,-7.373 -79.301,-7.373 l 5.652,-5.429 c 2.298,-2.208 3.973,-4.985 4.839,-8.051 16.376,-58.004 3.675,-129.17 3.675,-129.17 14.918,0.725 47.669,-0.692 47.669,-0.692 -6.962,4.641 -9.179,12.195 -9.179,12.195 -4.315,11.878 -6.975,36.522 -9.447,60.588 l 16.971,1.277 c 0.994,0.119 2.006,0.083 2.978,-0.158 27.453,-6.798 37.591,-37.271 37.591,-37.272 10.774,-28.254 0.102,-36.63 0.102,-36.63 23.981,0.369 50.986,-1.321 50.986,-1.321"
       style="fill:#601C56;fill-opacity:1;fill-rule:nonzero;stroke:none"
       transform="matrix(1.3333333,0,0,-1.3333333,842.914,315.09973)"
       clip-path="url(#clipPath20)" />
  </g>
</svg>
