<svg width="436" height="436" viewBox="0 0 436 436" fill="none" xmlns="http://www.w3.org/2000/svg">
<rect width="436" height="436" fill="white"/>
<path d="M318.689 146.981L248.033 148.334L226.574 165.428L229.563 215.431L224.138 232.636L272.426 257.1L286.12 256.507L343.058 234.415L344.584 217.155L336.621 162.74L318.689 146.981Z" fill="#FCCFE6"/>
<path d="M229.26 162.74C220.927 163.926 211.486 165.776 201.278 168.694C189.829 171.968 179.874 175.866 171.509 179.708C178.783 185.678 187.299 191.988 197.111 198.163C208.711 205.461 219.733 211.083 229.561 215.432" fill="#FCCFE6"/>
<path d="M229.776 161.016C209.194 163.997 189.127 169.848 170.198 178.474C169.62 178.735 167.114 180.04 168.3 181.005C186.114 195.553 205.779 207.651 226.787 216.997C228.653 217.827 234.947 215.028 232.306 213.858C211.598 204.646 192.258 192.746 174.705 178.411L172.807 180.941C190.605 172.829 209.368 167.27 228.724 164.463C231.879 164.005 234.544 160.32 229.76 161.008L229.776 161.016Z" fill="#221F20"/>
<path d="M333.153 157.982C341.724 159.516 351.125 161.62 361.135 164.529C372.347 167.795 382.397 171.503 391.197 175.243C384.927 183.039 377.992 191.12 370.362 199.351C360.922 209.527 351.607 218.636 342.68 226.74" fill="#FCCFE6"/>
<path d="M331.952 160.441C351.616 163.999 370.79 169.763 389.205 177.528L388.328 174.254C373.668 192.416 357.673 209.487 340.404 225.206C336.973 228.329 342.42 230.575 344.943 228.274C362.615 212.183 379.045 194.828 394.06 176.231C395.096 174.95 394.677 173.59 393.183 172.957C374.261 164.979 354.55 159.176 334.348 155.515C331.003 154.914 327.366 159.611 331.952 160.441Z" fill="#221F20"/>
<path d="M242.139 150.912C257.098 127.469 272.05 104.033 287.01 80.5889C289.058 89.3892 292.474 100.309 298.396 112.066C307.086 129.327 317.752 141.638 325.856 149.576" fill="#FCCFE6"/>
<path d="M245.521 150.272C260.481 126.828 275.432 103.392 290.392 79.9481L283.577 81.5137C289.799 107.82 303.359 131.762 322.613 150.714C323.799 151.885 329.974 149.299 329.112 148.445C310.001 129.627 296.623 105.772 290.455 79.6714C290.092 78.1295 284.209 80.3355 283.64 81.2369C268.68 104.681 253.728 128.117 238.768 151.561C238.144 152.533 241.235 152.098 241.472 152.059C242.659 151.845 244.801 151.41 245.529 150.28L245.521 150.272Z" fill="#221F20"/>
<path d="M286.117 256.508C293.605 262.517 303.204 269.19 314.993 275.263C330.981 283.502 345.774 287.945 357.263 290.444C353.444 282.395 349.388 271.989 346.549 259.489C344.264 249.431 343.299 240.338 342.975 232.7" fill="#FCCFE6"/>
<path d="M282.915 257.829C304.066 274.678 328.736 286.404 355.137 292.24C356.188 292.469 361.62 291.496 360.695 289.528C352.171 271.389 347.325 251.804 346.407 231.776C346.312 229.744 339.418 231.08 339.536 233.618C340.454 253.638 345.3 273.224 353.824 291.37L359.383 288.658C333.788 283.004 309.807 271.532 289.312 255.196C287.493 253.749 281.16 256.429 282.915 257.829Z" fill="#221F20"/>
<path d="M258.81 279.516C256.628 300.999 256.976 322.633 259.751 344.044L260.898 341.506C253.536 348.14 244.372 351.698 234.457 351.714C230.496 351.722 229.215 356.869 233.88 356.861C241.858 356.846 249.875 354.845 256.841 350.923C259.696 349.318 262.519 347.468 264.93 345.238C267.721 342.661 266.219 339.197 265.847 335.734C263.815 316.892 263.871 297.876 265.784 279.026C266.148 275.437 259.134 276.33 258.81 279.516Z" fill="#090B10"/>
<path d="M286.531 274.766C284.657 299.554 285.843 324.468 290.112 348.956C290.215 349.525 290.998 349.873 291.464 349.984C299.363 351.723 307.468 351.921 315.43 350.498C316.585 350.292 319.241 349.644 319.312 348.086C319.384 346.528 317.478 346.267 316.308 346.481C309.389 347.722 302.495 347.612 295.623 346.101L296.976 347.129C292.769 322.974 291.559 298.431 293.41 273.975C293.631 271.057 286.705 272.33 286.523 274.781L286.531 274.766Z" fill="#090B10"/>
<path d="M224.204 230.614C220.219 239.541 215.681 248.903 210.51 258.597C204.501 269.856 198.381 280.174 192.356 289.552C206.438 285.804 222.244 280.657 239.093 273.477C251.444 268.211 262.561 262.629 272.428 257.102" fill="#FCCFE6"/>
<path d="M220.797 231.152C211.641 251.559 201.006 271.247 188.948 290.089C188.023 291.544 192.553 290.92 192.712 290.88C221.216 283.25 248.692 272.149 274.468 257.79C278.469 255.56 272.254 255.394 270.388 256.438C245.648 270.22 219.358 280.91 192 288.239L195.764 289.03C207.821 270.188 218.456 250.5 227.612 230.092C228.292 228.582 221.666 229.222 220.797 231.168V231.152Z" fill="#221F20"/>
<path d="M264.925 167.246C263.794 171.634 262.774 176.892 262.244 182.87C261.675 189.322 261.825 195.062 262.244 199.838" fill="#090B10"/>
<path d="M261.438 167.499C258.703 178.418 257.888 189.551 258.805 200.763C259.066 203.926 265.953 202.273 265.676 198.921C264.799 188.191 265.787 177.422 268.404 166.993C269.242 163.656 262.205 164.439 261.438 167.499Z" fill="#090B10"/>
<path d="M290.205 167.175C289.359 171.223 288.663 176.054 288.521 181.502C288.363 187.377 288.869 192.564 289.588 196.857" fill="#090B10"/>
<path d="M286.735 167.467C284.71 177.485 284.536 187.692 286.157 197.774C286.64 200.794 293.534 199.086 293.028 195.931C291.471 186.237 291.732 176.496 293.677 166.881C294.333 163.624 287.32 164.525 286.727 167.467H286.735Z" fill="#090B10"/>
<path d="M267.294 216.484C267.624 216.668 267.965 216.834 268.314 216.979C266.794 217.57 265.692 218.831 265.1 220.315C264.242 222.464 264.414 225.156 265.934 227.134C267.474 229.138 269.851 229.677 272.111 229.331C274.222 229.008 276.306 227.909 277.678 226.411L277.944 226.106C278.038 225.992 278.24 225.871 278.54 225.797C278.832 225.725 279.15 225.715 279.406 225.76C279.533 225.782 279.63 225.815 279.694 225.85C279.733 225.87 279.752 225.888 279.762 225.897C279.76 225.923 279.747 225.982 279.677 226.084L279.604 226.181C277.907 228.246 274.811 229.88 271.679 230.328C268.55 230.775 265.529 230.025 263.819 227.525H263.819C262.282 225.277 262.154 222.094 263.55 219.76L263.69 219.536C264.58 218.178 265.847 217.142 267.294 216.484ZM271.939 215.724C272.026 215.742 272.072 215.77 272.092 215.787C272.111 215.803 272.12 215.819 272.125 215.836C272.134 215.865 272.139 215.93 272.104 216.019L272.053 216.115L272.052 216.116C271.952 216.273 271.758 216.415 271.482 216.514C271.419 216.536 271.354 216.554 271.289 216.57L271.925 215.72L271.939 215.724ZM270.085 216.51C269.573 216.384 269.073 216.216 268.593 216.008C269.282 215.813 269.995 215.699 270.715 215.668L270.085 216.51ZM268.461 202.605C269.73 202.236 271.094 202.125 272.333 202.234L272.856 202.294C275.407 202.66 277.791 203.934 279.657 205.737V205.736C279.672 205.751 279.68 205.762 279.686 205.77C279.683 205.776 279.68 205.786 279.672 205.798C279.605 205.903 279.42 206.058 279.113 206.192C278.82 206.321 278.483 206.4 278.187 206.405C277.954 206.409 277.795 206.368 277.696 206.314L277.618 206.259L277.345 206.004C276.05 204.83 274.453 203.908 272.753 203.446L272.387 203.354C271.293 203.103 270.026 203.073 268.887 203.402C267.812 203.713 266.828 204.353 266.254 205.444L266.145 205.669C265.136 207.917 265.523 210.221 266.686 212.056C267.388 213.164 268.379 214.108 269.531 214.782C268.792 214.898 268.066 215.093 267.371 215.365C266.067 214.547 264.988 213.404 264.322 211.993L264.216 211.759C263.307 209.645 263.421 206.913 264.736 205.054L264.868 204.877C265.72 203.776 267.011 203.028 268.461 202.605Z" fill="black" stroke="black"/>
<path d="M132.338 222.174C111.26 213.477 100.537 201.444 96.4486 189.259C91.8326 175.541 101.168 153.152 117.809 146.537C138.008 138.49 162.471 153.17 162.471 153.17" fill="#EEC0CB"/>
<path d="M133.355 221.315C120.366 215.83 107.459 207.558 101.059 194.323C95.5063 182.851 98.3954 169.307 106.018 158.996C119.681 140.481 143.818 143.632 160.835 153.751C162.305 154.628 167.209 154.438 164.113 152.595C151.085 144.848 133.052 139.832 117.916 144.564C106.66 148.073 98.2504 158.119 94.5301 169.256C91.0812 179.572 92.5402 189.206 98.1554 198.036C105.831 210.1 118.504 217.64 131.313 223.043C133.52 223.976 136.888 222.815 133.351 221.323L133.355 221.315Z" fill="black"/>
<path d="M243.336 204.377C244.46 202.442 243.864 200.003 242.003 198.922L168.008 155.947C149.947 145.615 126.34 153.101 116.58 172.869C108.331 189.567 113.307 209.839 128.114 219.924C145.68 231.892 169.711 225.688 180.621 206.902C180.997 206.254 181.357 205.597 181.688 204.934C183.267 201.824 186.957 200.501 189.98 201.965L229.412 221.142C231.249 222.04 233.506 221.303 234.571 219.469L243.336 204.377Z" fill="#C2435B"/>
<path d="M246.064 205.084C248.247 199.5 243.253 197.162 239.451 194.954L169.274 154.197C168.32 153.642 166.208 153.552 165.529 154.722C166.773 154.555 168.026 154.372 169.274 154.197C150.78 144.052 126.02 150.226 115.067 169.831C104.078 189.516 111.606 214.24 130.787 223.985C139.76 228.544 150.368 229.373 160.169 226.357C165.101 224.833 169.81 222.314 173.847 218.977C178.368 215.235 180.797 210.773 184.165 206.148C186.643 202.738 188.462 203.592 191.257 204.946L199.182 208.794L219.832 218.841C223.858 220.797 230.22 225.471 234.888 222.725C237.618 221.116 239.18 216.993 240.694 214.386L245.805 205.586C247.329 202.961 242.186 200.863 240.852 203.159C238.155 207.803 235.8 213.051 232.61 217.352C231.466 218.893 231.22 219.279 229.594 218.874C227.612 218.375 225.528 216.895 223.707 216.007C213.245 210.921 202.858 205.631 192.305 200.739C186.159 197.889 181.575 199.727 178.129 205.68C173.028 214.463 164.514 220.982 154.759 223.136C132.589 228.036 113.103 208.776 115.57 186.234C118.305 161.237 145.405 146.004 166.722 157.698C167.691 158.227 169.778 158.359 170.467 157.173C169.223 157.34 167.97 157.523 166.722 157.698L231.744 195.462C234.576 197.107 242.257 199.419 240.591 203.683C239.597 206.233 245.016 207.726 246.041 205.104L246.064 205.084Z" fill="black"/>
<path d="M44.2388 185.345C51.6371 182.939 59.2853 181.764 67.0611 181.869C69.4457 181.899 68.314 176.955 66.2657 176.925C58.216 176.816 50.2388 178.014 42.5785 180.506C40.5267 181.171 42.1594 186.024 44.2388 185.345Z" fill="black"/>
<path d="M53.7499 138.343C60.9785 141.219 67.6128 145.202 73.528 150.25C75.3432 151.797 77.6311 147.27 76.0748 145.938C69.9515 140.712 63.0496 136.537 55.5643 133.56C53.5608 132.761 51.7167 137.537 53.7499 138.343Z" fill="black"/>
<path d="M105.931 101.666C105.444 109.409 106.157 117.112 108.083 124.644C108.672 126.954 103.829 126.994 103.319 125.011C101.324 117.214 100.555 109.186 101.06 101.168C101.193 99.0211 106.069 99.4888 105.931 101.666Z" fill="black"/>
</svg>
