<svg width="41" height="40" viewBox="0 0 41 40" fill="none" xmlns="http://www.w3.org/2000/svg">
<mask id="path-1-inside-1_6251_10383" fill="white">
<path d="M25.5001 1.66699V3.33301H28.8331V5H30.5001V6.66699H32.1671V10H33.8331V20H32.1671V23.333H30.5001V25H28.8331V28.333H27.1671V30H25.5001V33.333H23.8331V35H22.1671V38.333H18.8331V35H17.1671V33.333H15.5001V30H13.8331V28.333H12.1671V25H10.5001V23.333H8.83313V20H7.16711V10H8.83313V6.66699H10.5001V5H12.1671V3.33301H15.5001V1.66699H25.5001Z"/>
</mask>
<path d="M25.5001 1.66699V3.33301H28.8331V5H30.5001V6.66699H32.1671V10H33.8331V20H32.1671V23.333H30.5001V25H28.8331V28.333H27.1671V30H25.5001V33.333H23.8331V35H22.1671V38.333H18.8331V35H17.1671V33.333H15.5001V30H13.8331V28.333H12.1671V25H10.5001V23.333H8.83313V20H7.16711V10H8.83313V6.66699H10.5001V5H12.1671V3.33301H15.5001V1.66699H25.5001Z" fill="#3A64F8"/>
<path d="M25.5001 1.66699H26.9287V0.238421H25.5001V1.66699ZM25.5001 3.33301H24.0716V4.76158H25.5001V3.33301ZM28.8331 3.33301H30.2617V1.90444H28.8331V3.33301ZM28.8331 5H27.4046V6.42857H28.8331V5ZM30.5001 5H31.9287V3.57143H30.5001V5ZM30.5001 6.66699H29.0716V8.09556H30.5001V6.66699ZM32.1671 6.66699H33.5957V5.23842H32.1671V6.66699ZM32.1671 10H30.7385V11.4286H32.1671V10ZM33.8331 10H35.2617V8.57143H33.8331V10ZM33.8331 20V21.4286H35.2617V20H33.8331ZM32.1671 20V18.5714H30.7385V20H32.1671ZM32.1671 23.333V24.7616H33.5957V23.333H32.1671ZM30.5001 23.333V21.9044H29.0716V23.333H30.5001ZM30.5001 25V26.4286H31.9287V25H30.5001ZM28.8331 25V23.5714H27.4046V25H28.8331ZM28.8331 28.333V29.7616H30.2617V28.333H28.8331ZM27.1671 28.333V26.9044H25.7385V28.333H27.1671ZM27.1671 30V31.4286H28.5957V30H27.1671ZM25.5001 30V28.5714H24.0716V30H25.5001ZM25.5001 33.333V34.7616H26.9287V33.333H25.5001ZM23.8331 33.333V31.9044H22.4046V33.333H23.8331ZM23.8331 35V36.4286H25.2617V35H23.8331ZM22.1671 35V33.5714H20.7385V35H22.1671ZM22.1671 38.333V39.7616H23.5957V38.333H22.1671ZM18.8331 38.333H17.4046V39.7616H18.8331V38.333ZM18.8331 35H20.2617V33.5714H18.8331V35ZM17.1671 35H15.7385V36.4286H17.1671V35ZM17.1671 33.333H18.5957V31.9044H17.1671V33.333ZM15.5001 33.333H14.0716V34.7616H15.5001V33.333ZM15.5001 30H16.9287V28.5714H15.5001V30ZM13.8331 30H12.4046V31.4286H13.8331V30ZM13.8331 28.333H15.2617V26.9044H13.8331V28.333ZM12.1671 28.333H10.7385V29.7616H12.1671V28.333ZM12.1671 25H13.5957V23.5714H12.1671V25ZM10.5001 25H9.07155V26.4286H10.5001V25ZM10.5001 23.333H11.9287V21.9044H10.5001V23.333ZM8.83313 23.333H7.40456V24.7616H8.83313V23.333ZM8.83313 20H10.2617V18.5714H8.83313V20ZM7.16711 20H5.73854V21.4286H7.16711V20ZM7.16711 10V8.57143H5.73854V10H7.16711ZM8.83313 10V11.4286H10.2617V10H8.83313ZM8.83313 6.66699V5.23842H7.40456V6.66699H8.83313ZM10.5001 6.66699V8.09556H11.9287V6.66699H10.5001ZM10.5001 5V3.57143H9.07155V5H10.5001ZM12.1671 5V6.42857H13.5957V5H12.1671ZM12.1671 3.33301V1.90444H10.7385V3.33301H12.1671ZM15.5001 3.33301V4.76158H16.9287V3.33301H15.5001ZM15.5001 1.66699V0.238421H14.0716V1.66699H15.5001ZM25.5001 1.66699H24.0716V3.33301H25.5001H26.9287V1.66699H25.5001ZM25.5001 3.33301V4.76158H28.8331V3.33301V1.90444H25.5001V3.33301ZM28.8331 3.33301H27.4046V5H28.8331H30.2617V3.33301H28.8331ZM28.8331 5V6.42857H30.5001V5V3.57143H28.8331V5ZM30.5001 5H29.0716V6.66699H30.5001H31.9287V5H30.5001ZM30.5001 6.66699V8.09556H32.1671V6.66699V5.23842H30.5001V6.66699ZM32.1671 6.66699H30.7385V10H32.1671H33.5957V6.66699H32.1671ZM32.1671 10V11.4286H33.8331V10V8.57143H32.1671V10ZM33.8331 10H32.4046V20H33.8331H35.2617V10H33.8331ZM33.8331 20V18.5714H32.1671V20V21.4286H33.8331V20ZM32.1671 20H30.7385V23.333H32.1671H33.5957V20H32.1671ZM32.1671 23.333V21.9044H30.5001V23.333V24.7616H32.1671V23.333ZM30.5001 23.333H29.0716V25H30.5001H31.9287V23.333H30.5001ZM30.5001 25V23.5714H28.8331V25V26.4286H30.5001V25ZM28.8331 25H27.4046V28.333H28.8331H30.2617V25H28.8331ZM28.8331 28.333V26.9044H27.1671V28.333V29.7616H28.8331V28.333ZM27.1671 28.333H25.7385V30H27.1671H28.5957V28.333H27.1671ZM27.1671 30V28.5714H25.5001V30V31.4286H27.1671V30ZM25.5001 30H24.0716V33.333H25.5001H26.9287V30H25.5001ZM25.5001 33.333V31.9044H23.8331V33.333V34.7616H25.5001V33.333ZM23.8331 33.333H22.4046V35H23.8331H25.2617V33.333H23.8331ZM23.8331 35V33.5714H22.1671V35V36.4286H23.8331V35ZM22.1671 35H20.7385V38.333H22.1671H23.5957V35H22.1671ZM22.1671 38.333V36.9044H18.8331V38.333V39.7616H22.1671V38.333ZM18.8331 38.333H20.2617V35H18.8331H17.4046V38.333H18.8331ZM18.8331 35V33.5714H17.1671V35V36.4286H18.8331V35ZM17.1671 35H18.5957V33.333H17.1671H15.7385V35H17.1671ZM17.1671 33.333V31.9044H15.5001V33.333V34.7616H17.1671V33.333ZM15.5001 33.333H16.9287V30H15.5001H14.0716V33.333H15.5001ZM15.5001 30V28.5714H13.8331V30V31.4286H15.5001V30ZM13.8331 30H15.2617V28.333H13.8331H12.4046V30H13.8331ZM13.8331 28.333V26.9044H12.1671V28.333V29.7616H13.8331V28.333ZM12.1671 28.333H13.5957V25H12.1671H10.7385V28.333H12.1671ZM12.1671 25V23.5714H10.5001V25V26.4286H12.1671V25ZM10.5001 25H11.9287V23.333H10.5001H9.07155V25H10.5001ZM10.5001 23.333V21.9044H8.83313V23.333V24.7616H10.5001V23.333ZM8.83313 23.333H10.2617V20H8.83313H7.40456V23.333H8.83313ZM8.83313 20V18.5714H7.16711V20V21.4286H8.83313V20ZM7.16711 20H8.59569V10H7.16711H5.73854V20H7.16711ZM7.16711 10V11.4286H8.83313V10V8.57143H7.16711V10ZM8.83313 10H10.2617V6.66699H8.83313H7.40456V10H8.83313ZM8.83313 6.66699V8.09556H10.5001V6.66699V5.23842H8.83313V6.66699ZM10.5001 6.66699H11.9287V5H10.5001H9.07155V6.66699H10.5001ZM10.5001 5V6.42857H12.1671V5V3.57143H10.5001V5ZM12.1671 5H13.5957V3.33301H12.1671H10.7385V5H12.1671ZM12.1671 3.33301V4.76158H15.5001V3.33301V1.90444H12.1671V3.33301ZM15.5001 3.33301H16.9287V1.66699H15.5001H14.0716V3.33301H15.5001ZM15.5001 1.66699V3.09556H25.5001V1.66699V0.238421H15.5001V1.66699Z" fill="#17171B" mask="url(#path-1-inside-1_6251_10383)"/>
<path d="M24.9424 14.0079H16.0575V10.3059H24.9424M23.8318 18.4504C23.5372 18.4504 23.2547 18.3334 23.0465 18.1251C22.8382 17.9168 22.7212 17.6343 22.7212 17.3398C22.7212 17.0452 22.8382 16.7627 23.0465 16.5544C23.2547 16.3462 23.5372 16.2292 23.8318 16.2292C24.1263 16.2292 24.4088 16.3462 24.6171 16.5544C24.8254 16.7627 24.9424 17.0452 24.9424 17.3398C24.9424 17.6343 24.8254 17.9168 24.6171 18.1251C24.4088 18.3334 24.1263 18.4504 23.8318 18.4504ZM17.1681 18.4504C16.8735 18.4504 16.5911 18.3334 16.3828 18.1251C16.1745 17.9168 16.0575 17.6343 16.0575 17.3398C16.0575 17.0452 16.1745 16.7627 16.3828 16.5544C16.5911 16.3462 16.8735 16.2292 17.1681 16.2292C17.4626 16.2292 17.7451 16.3462 17.9534 16.5544C18.1617 16.7627 18.2787 17.0452 18.2787 17.3398C18.2787 17.6343 18.1617 17.9168 17.9534 18.1251C17.7451 18.3334 17.4626 18.4504 17.1681 18.4504ZM14.5767 17.71C14.5767 18.3615 14.8654 18.9465 15.3171 19.3537V20.6716C15.3171 20.868 15.3951 21.0563 15.5339 21.1952C15.6728 21.334 15.8611 21.412 16.0575 21.412H16.7979C16.9943 21.412 17.1826 21.334 17.3214 21.1952C17.4603 21.0563 17.5383 20.868 17.5383 20.6716V19.9312H23.4616V20.6716C23.4616 20.868 23.5396 21.0563 23.6784 21.1952C23.8173 21.334 24.0056 21.412 24.202 21.412H24.9424C25.1388 21.412 25.3271 21.334 25.4659 21.1952C25.6048 21.0563 25.6828 20.868 25.6828 20.6716V19.3537C26.1345 18.9465 26.4232 18.3615 26.4232 17.71V10.3059C26.4232 7.71444 23.7725 7.34424 20.4999 7.34424C17.2273 7.34424 14.5767 7.71444 14.5767 10.3059V17.71Z" fill="white"/>
</svg>
