<svg width="41" height="40" viewBox="0 0 41 40" fill="none" xmlns="http://www.w3.org/2000/svg">
<mask id="path-1-inside-1_6251_10393" fill="white">
<path d="M25.5001 1.66699V3.33301H28.8331V5H30.5001V6.66699H32.1671V10H33.8331V20H32.1671V23.333H30.5001V25H28.8331V28.333H27.1671V30H25.5001V33.333H23.8331V35H22.1671V38.333H18.8331V35H17.1671V33.333H15.5001V30H13.8331V28.333H12.1671V25H10.5001V23.333H8.83313V20H7.16711V10H8.83313V6.66699H10.5001V5H12.1671V3.33301H15.5001V1.66699H25.5001Z"/>
</mask>
<path d="M25.5001 1.66699V3.33301H28.8331V5H30.5001V6.66699H32.1671V10H33.8331V20H32.1671V23.333H30.5001V25H28.8331V28.333H27.1671V30H25.5001V33.333H23.8331V35H22.1671V38.333H18.8331V35H17.1671V33.333H15.5001V30H13.8331V28.333H12.1671V25H10.5001V23.333H8.83313V20H7.16711V10H8.83313V6.66699H10.5001V5H12.1671V3.33301H15.5001V1.66699H25.5001Z" fill="#3A64F8"/>
<path d="M25.5001 1.66699H26.9287V0.238421H25.5001V1.66699ZM25.5001 3.33301H24.0716V4.76158H25.5001V3.33301ZM28.8331 3.33301H30.2617V1.90444H28.8331V3.33301ZM28.8331 5H27.4046V6.42857H28.8331V5ZM30.5001 5H31.9287V3.57143H30.5001V5ZM30.5001 6.66699H29.0716V8.09556H30.5001V6.66699ZM32.1671 6.66699H33.5957V5.23842H32.1671V6.66699ZM32.1671 10H30.7385V11.4286H32.1671V10ZM33.8331 10H35.2617V8.57143H33.8331V10ZM33.8331 20V21.4286H35.2617V20H33.8331ZM32.1671 20V18.5714H30.7385V20H32.1671ZM32.1671 23.333V24.7616H33.5957V23.333H32.1671ZM30.5001 23.333V21.9044H29.0716V23.333H30.5001ZM30.5001 25V26.4286H31.9287V25H30.5001ZM28.8331 25V23.5714H27.4046V25H28.8331ZM28.8331 28.333V29.7616H30.2617V28.333H28.8331ZM27.1671 28.333V26.9044H25.7385V28.333H27.1671ZM27.1671 30V31.4286H28.5957V30H27.1671ZM25.5001 30V28.5714H24.0716V30H25.5001ZM25.5001 33.333V34.7616H26.9287V33.333H25.5001ZM23.8331 33.333V31.9044H22.4046V33.333H23.8331ZM23.8331 35V36.4286H25.2617V35H23.8331ZM22.1671 35V33.5714H20.7385V35H22.1671ZM22.1671 38.333V39.7616H23.5957V38.333H22.1671ZM18.8331 38.333H17.4046V39.7616H18.8331V38.333ZM18.8331 35H20.2617V33.5714H18.8331V35ZM17.1671 35H15.7385V36.4286H17.1671V35ZM17.1671 33.333H18.5957V31.9044H17.1671V33.333ZM15.5001 33.333H14.0716V34.7616H15.5001V33.333ZM15.5001 30H16.9287V28.5714H15.5001V30ZM13.8331 30H12.4046V31.4286H13.8331V30ZM13.8331 28.333H15.2617V26.9044H13.8331V28.333ZM12.1671 28.333H10.7385V29.7616H12.1671V28.333ZM12.1671 25H13.5957V23.5714H12.1671V25ZM10.5001 25H9.07155V26.4286H10.5001V25ZM10.5001 23.333H11.9287V21.9044H10.5001V23.333ZM8.83313 23.333H7.40456V24.7616H8.83313V23.333ZM8.83313 20H10.2617V18.5714H8.83313V20ZM7.16711 20H5.73854V21.4286H7.16711V20ZM7.16711 10V8.57143H5.73854V10H7.16711ZM8.83313 10V11.4286H10.2617V10H8.83313ZM8.83313 6.66699V5.23842H7.40456V6.66699H8.83313ZM10.5001 6.66699V8.09556H11.9287V6.66699H10.5001ZM10.5001 5V3.57143H9.07155V5H10.5001ZM12.1671 5V6.42857H13.5957V5H12.1671ZM12.1671 3.33301V1.90444H10.7385V3.33301H12.1671ZM15.5001 3.33301V4.76158H16.9287V3.33301H15.5001ZM15.5001 1.66699V0.238421H14.0716V1.66699H15.5001ZM25.5001 1.66699H24.0716V3.33301H25.5001H26.9287V1.66699H25.5001ZM25.5001 3.33301V4.76158H28.8331V3.33301V1.90444H25.5001V3.33301ZM28.8331 3.33301H27.4046V5H28.8331H30.2617V3.33301H28.8331ZM28.8331 5V6.42857H30.5001V5V3.57143H28.8331V5ZM30.5001 5H29.0716V6.66699H30.5001H31.9287V5H30.5001ZM30.5001 6.66699V8.09556H32.1671V6.66699V5.23842H30.5001V6.66699ZM32.1671 6.66699H30.7385V10H32.1671H33.5957V6.66699H32.1671ZM32.1671 10V11.4286H33.8331V10V8.57143H32.1671V10ZM33.8331 10H32.4046V20H33.8331H35.2617V10H33.8331ZM33.8331 20V18.5714H32.1671V20V21.4286H33.8331V20ZM32.1671 20H30.7385V23.333H32.1671H33.5957V20H32.1671ZM32.1671 23.333V21.9044H30.5001V23.333V24.7616H32.1671V23.333ZM30.5001 23.333H29.0716V25H30.5001H31.9287V23.333H30.5001ZM30.5001 25V23.5714H28.8331V25V26.4286H30.5001V25ZM28.8331 25H27.4046V28.333H28.8331H30.2617V25H28.8331ZM28.8331 28.333V26.9044H27.1671V28.333V29.7616H28.8331V28.333ZM27.1671 28.333H25.7385V30H27.1671H28.5957V28.333H27.1671ZM27.1671 30V28.5714H25.5001V30V31.4286H27.1671V30ZM25.5001 30H24.0716V33.333H25.5001H26.9287V30H25.5001ZM25.5001 33.333V31.9044H23.8331V33.333V34.7616H25.5001V33.333ZM23.8331 33.333H22.4046V35H23.8331H25.2617V33.333H23.8331ZM23.8331 35V33.5714H22.1671V35V36.4286H23.8331V35ZM22.1671 35H20.7385V38.333H22.1671H23.5957V35H22.1671ZM22.1671 38.333V36.9044H18.8331V38.333V39.7616H22.1671V38.333ZM18.8331 38.333H20.2617V35H18.8331H17.4046V38.333H18.8331ZM18.8331 35V33.5714H17.1671V35V36.4286H18.8331V35ZM17.1671 35H18.5957V33.333H17.1671H15.7385V35H17.1671ZM17.1671 33.333V31.9044H15.5001V33.333V34.7616H17.1671V33.333ZM15.5001 33.333H16.9287V30H15.5001H14.0716V33.333H15.5001ZM15.5001 30V28.5714H13.8331V30V31.4286H15.5001V30ZM13.8331 30H15.2617V28.333H13.8331H12.4046V30H13.8331ZM13.8331 28.333V26.9044H12.1671V28.333V29.7616H13.8331V28.333ZM12.1671 28.333H13.5957V25H12.1671H10.7385V28.333H12.1671ZM12.1671 25V23.5714H10.5001V25V26.4286H12.1671V25ZM10.5001 25H11.9287V23.333H10.5001H9.07155V25H10.5001ZM10.5001 23.333V21.9044H8.83313V23.333V24.7616H10.5001V23.333ZM8.83313 23.333H10.2617V20H8.83313H7.40456V23.333H8.83313ZM8.83313 20V18.5714H7.16711V20V21.4286H8.83313V20ZM7.16711 20H8.59569V10H7.16711H5.73854V20H7.16711ZM7.16711 10V11.4286H8.83313V10V8.57143H7.16711V10ZM8.83313 10H10.2617V6.66699H8.83313H7.40456V10H8.83313ZM8.83313 6.66699V8.09556H10.5001V6.66699V5.23842H8.83313V6.66699ZM10.5001 6.66699H11.9287V5H10.5001H9.07155V6.66699H10.5001ZM10.5001 5V6.42857H12.1671V5V3.57143H10.5001V5ZM12.1671 5H13.5957V3.33301H12.1671H10.7385V5H12.1671ZM12.1671 3.33301V4.76158H15.5001V3.33301V1.90444H12.1671V3.33301ZM15.5001 3.33301H16.9287V1.66699H15.5001H14.0716V3.33301H15.5001ZM15.5001 1.66699V3.09556H25.5001V1.66699V0.238421H15.5001V1.66699Z" fill="#17171B" mask="url(#path-1-inside-1_6251_10393)"/>
<path d="M12.8942 17.4485H23.7667V19.623H12.8942V17.4485ZM26.3036 17.4485H27.3909V19.623H26.3036V17.4485ZM24.4915 17.4485H25.5788V19.623H24.4915V17.4485ZM25.1076 11.4541C25.557 11.0119 25.8325 10.4031 25.8325 9.72898C25.8325 8.38803 24.7452 7.30078 23.4043 7.30078V8.38803C24.1291 8.38803 24.7452 8.98965 24.7452 9.72898C24.7452 10.4683 24.1291 11.0699 23.4043 11.0699V12.1572C25.0279 12.1572 26.3036 13.4836 26.3036 15.1072V16.7236H27.3909V15.1C27.3909 13.4909 26.4631 12.0992 25.1076 11.4541ZM23.0636 13.2444H21.9546C21.2298 13.2444 20.6137 12.5341 20.6137 11.7948C20.6137 11.0554 21.2298 10.5263 21.9546 10.5263V9.43904C21.3106 9.43904 20.693 9.69487 20.2376 10.1502C19.7822 10.6056 19.5264 11.2232 19.5264 11.8672C19.5264 12.5112 19.7822 13.1289 20.2376 13.5842C20.693 14.0396 21.3106 14.2954 21.9546 14.2954H23.0636C23.8247 14.2954 24.4915 14.8318 24.4915 15.7813V16.7236H25.5788V15.5349C25.5788 14.2229 24.419 13.2444 23.0636 13.2444Z" fill="white"/>
</svg>
