<svg width="41" height="40" viewBox="0 0 41 40" fill="none" xmlns="http://www.w3.org/2000/svg">
<mask id="path-1-inside-1_6251_10362" fill="white">
<path d="M25.5001 1.66699V3.33301H28.8331V5H30.5001V6.66699H32.1671V10H33.8331V20H32.1671V23.333H30.5001V25H28.8331V28.333H27.1671V30H25.5001V33.333H23.8331V35H22.1671V38.333H18.8331V35H17.1671V33.333H15.5001V30H13.8331V28.333H12.1671V25H10.5001V23.333H8.83313V20H7.16711V10H8.83313V6.66699H10.5001V5H12.1671V3.33301H15.5001V1.66699H25.5001Z"/>
</mask>
<path d="M25.5001 1.66699V3.33301H28.8331V5H30.5001V6.66699H32.1671V10H33.8331V20H32.1671V23.333H30.5001V25H28.8331V28.333H27.1671V30H25.5001V33.333H23.8331V35H22.1671V38.333H18.8331V35H17.1671V33.333H15.5001V30H13.8331V28.333H12.1671V25H10.5001V23.333H8.83313V20H7.16711V10H8.83313V6.66699H10.5001V5H12.1671V3.33301H15.5001V1.66699H25.5001Z" fill="#3A64F8"/>
<path d="M25.5001 1.66699H26.9287V0.238421H25.5001V1.66699ZM25.5001 3.33301H24.0716V4.76158H25.5001V3.33301ZM28.8331 3.33301H30.2617V1.90444H28.8331V3.33301ZM28.8331 5H27.4046V6.42857H28.8331V5ZM30.5001 5H31.9287V3.57143H30.5001V5ZM30.5001 6.66699H29.0716V8.09556H30.5001V6.66699ZM32.1671 6.66699H33.5957V5.23842H32.1671V6.66699ZM32.1671 10H30.7385V11.4286H32.1671V10ZM33.8331 10H35.2617V8.57143H33.8331V10ZM33.8331 20V21.4286H35.2617V20H33.8331ZM32.1671 20V18.5714H30.7385V20H32.1671ZM32.1671 23.333V24.7616H33.5957V23.333H32.1671ZM30.5001 23.333V21.9044H29.0716V23.333H30.5001ZM30.5001 25V26.4286H31.9287V25H30.5001ZM28.8331 25V23.5714H27.4046V25H28.8331ZM28.8331 28.333V29.7616H30.2617V28.333H28.8331ZM27.1671 28.333V26.9044H25.7385V28.333H27.1671ZM27.1671 30V31.4286H28.5957V30H27.1671ZM25.5001 30V28.5714H24.0716V30H25.5001ZM25.5001 33.333V34.7616H26.9287V33.333H25.5001ZM23.8331 33.333V31.9044H22.4046V33.333H23.8331ZM23.8331 35V36.4286H25.2617V35H23.8331ZM22.1671 35V33.5714H20.7385V35H22.1671ZM22.1671 38.333V39.7616H23.5957V38.333H22.1671ZM18.8331 38.333H17.4046V39.7616H18.8331V38.333ZM18.8331 35H20.2617V33.5714H18.8331V35ZM17.1671 35H15.7385V36.4286H17.1671V35ZM17.1671 33.333H18.5957V31.9044H17.1671V33.333ZM15.5001 33.333H14.0716V34.7616H15.5001V33.333ZM15.5001 30H16.9287V28.5714H15.5001V30ZM13.8331 30H12.4046V31.4286H13.8331V30ZM13.8331 28.333H15.2617V26.9044H13.8331V28.333ZM12.1671 28.333H10.7385V29.7616H12.1671V28.333ZM12.1671 25H13.5957V23.5714H12.1671V25ZM10.5001 25H9.07155V26.4286H10.5001V25ZM10.5001 23.333H11.9287V21.9044H10.5001V23.333ZM8.83313 23.333H7.40456V24.7616H8.83313V23.333ZM8.83313 20H10.2617V18.5714H8.83313V20ZM7.16711 20H5.73854V21.4286H7.16711V20ZM7.16711 10V8.57143H5.73854V10H7.16711ZM8.83313 10V11.4286H10.2617V10H8.83313ZM8.83313 6.66699V5.23842H7.40456V6.66699H8.83313ZM10.5001 6.66699V8.09556H11.9287V6.66699H10.5001ZM10.5001 5V3.57143H9.07155V5H10.5001ZM12.1671 5V6.42857H13.5957V5H12.1671ZM12.1671 3.33301V1.90444H10.7385V3.33301H12.1671ZM15.5001 3.33301V4.76158H16.9287V3.33301H15.5001ZM15.5001 1.66699V0.238421H14.0716V1.66699H15.5001ZM25.5001 1.66699H24.0716V3.33301H25.5001H26.9287V1.66699H25.5001ZM25.5001 3.33301V4.76158H28.8331V3.33301V1.90444H25.5001V3.33301ZM28.8331 3.33301H27.4046V5H28.8331H30.2617V3.33301H28.8331ZM28.8331 5V6.42857H30.5001V5V3.57143H28.8331V5ZM30.5001 5H29.0716V6.66699H30.5001H31.9287V5H30.5001ZM30.5001 6.66699V8.09556H32.1671V6.66699V5.23842H30.5001V6.66699ZM32.1671 6.66699H30.7385V10H32.1671H33.5957V6.66699H32.1671ZM32.1671 10V11.4286H33.8331V10V8.57143H32.1671V10ZM33.8331 10H32.4046V20H33.8331H35.2617V10H33.8331ZM33.8331 20V18.5714H32.1671V20V21.4286H33.8331V20ZM32.1671 20H30.7385V23.333H32.1671H33.5957V20H32.1671ZM32.1671 23.333V21.9044H30.5001V23.333V24.7616H32.1671V23.333ZM30.5001 23.333H29.0716V25H30.5001H31.9287V23.333H30.5001ZM30.5001 25V23.5714H28.8331V25V26.4286H30.5001V25ZM28.8331 25H27.4046V28.333H28.8331H30.2617V25H28.8331ZM28.8331 28.333V26.9044H27.1671V28.333V29.7616H28.8331V28.333ZM27.1671 28.333H25.7385V30H27.1671H28.5957V28.333H27.1671ZM27.1671 30V28.5714H25.5001V30V31.4286H27.1671V30ZM25.5001 30H24.0716V33.333H25.5001H26.9287V30H25.5001ZM25.5001 33.333V31.9044H23.8331V33.333V34.7616H25.5001V33.333ZM23.8331 33.333H22.4046V35H23.8331H25.2617V33.333H23.8331ZM23.8331 35V33.5714H22.1671V35V36.4286H23.8331V35ZM22.1671 35H20.7385V38.333H22.1671H23.5957V35H22.1671ZM22.1671 38.333V36.9044H18.8331V38.333V39.7616H22.1671V38.333ZM18.8331 38.333H20.2617V35H18.8331H17.4046V38.333H18.8331ZM18.8331 35V33.5714H17.1671V35V36.4286H18.8331V35ZM17.1671 35H18.5957V33.333H17.1671H15.7385V35H17.1671ZM17.1671 33.333V31.9044H15.5001V33.333V34.7616H17.1671V33.333ZM15.5001 33.333H16.9287V30H15.5001H14.0716V33.333H15.5001ZM15.5001 30V28.5714H13.8331V30V31.4286H15.5001V30ZM13.8331 30H15.2617V28.333H13.8331H12.4046V30H13.8331ZM13.8331 28.333V26.9044H12.1671V28.333V29.7616H13.8331V28.333ZM12.1671 28.333H13.5957V25H12.1671H10.7385V28.333H12.1671ZM12.1671 25V23.5714H10.5001V25V26.4286H12.1671V25ZM10.5001 25H11.9287V23.333H10.5001H9.07155V25H10.5001ZM10.5001 23.333V21.9044H8.83313V23.333V24.7616H10.5001V23.333ZM8.83313 23.333H10.2617V20H8.83313H7.40456V23.333H8.83313ZM8.83313 20V18.5714H7.16711V20V21.4286H8.83313V20ZM7.16711 20H8.59569V10H7.16711H5.73854V20H7.16711ZM7.16711 10V11.4286H8.83313V10V8.57143H7.16711V10ZM8.83313 10H10.2617V6.66699H8.83313H7.40456V10H8.83313ZM8.83313 6.66699V8.09556H10.5001V6.66699V5.23842H8.83313V6.66699ZM10.5001 6.66699H11.9287V5H10.5001H9.07155V6.66699H10.5001ZM10.5001 5V6.42857H12.1671V5V3.57143H10.5001V5ZM12.1671 5H13.5957V3.33301H12.1671H10.7385V5H12.1671ZM12.1671 3.33301V4.76158H15.5001V3.33301V1.90444H12.1671V3.33301ZM15.5001 3.33301H16.9287V1.66699H15.5001H14.0716V3.33301H15.5001ZM15.5001 1.66699V3.09556H25.5001V1.66699V0.238421H15.5001V1.66699Z" fill="#17171B" mask="url(#path-1-inside-1_6251_10362)"/>
<path d="M14.9133 8.06494H26.0874C26.3135 8.06494 26.5032 8.14156 26.6564 8.29481C26.8097 8.44805 26.886 8.63748 26.8855 8.86309C26.885 9.0887 26.8084 9.27839 26.6556 9.43216C26.5029 9.58594 26.3135 9.66229 26.0874 9.66123H14.9133C14.6872 9.66123 14.4978 9.58461 14.3451 9.43137C14.1923 9.27812 14.1157 9.0887 14.1152 8.86309C14.1147 8.63748 14.1913 8.44805 14.3451 8.29481C14.4988 8.14156 14.6883 8.06494 14.9133 8.06494ZM14.9133 20.8353C14.6872 20.8353 14.4978 20.7586 14.3451 20.6054C14.1923 20.4521 14.1157 20.2627 14.1152 20.0371V16.0464H13.9755C13.7228 16.0464 13.5166 15.9498 13.357 15.7567C13.1973 15.5635 13.1441 15.3408 13.1973 15.0886L13.9955 11.0979C14.0354 10.9117 14.1285 10.7587 14.2748 10.639C14.4211 10.5192 14.5874 10.4594 14.7737 10.4594H26.227C26.4133 10.4594 26.5795 10.5192 26.7259 10.639C26.8722 10.7587 26.9653 10.9117 27.0052 11.0979L27.8034 15.0886C27.8566 15.3414 27.8034 15.564 27.6437 15.7567C27.4841 15.9493 27.2779 16.0459 27.0252 16.0464H26.8855V20.0371C26.8855 20.2633 26.8089 20.4529 26.6556 20.6062C26.5024 20.7594 26.313 20.8358 26.0874 20.8353C25.8618 20.8347 25.6723 20.7581 25.5191 20.6054C25.3658 20.4527 25.2892 20.2633 25.2892 20.0371V16.0464H22.0966V20.0371C22.0966 20.2633 22.02 20.4529 21.8668 20.6062C21.7135 20.7594 21.5241 20.8358 21.2985 20.8353H14.9133ZM15.7115 19.239H20.5003V16.0464H15.7115V19.239Z" fill="white"/>
</svg>
