<svg width="41" height="40" viewBox="0 0 41 40" fill="none" xmlns="http://www.w3.org/2000/svg">
<mask id="path-1-inside-1_6251_10352" fill="white">
<path d="M25.5001 1.66699V3.33301H28.8331V5H30.5001V6.66699H32.1671V10H33.8331V20H32.1671V23.333H30.5001V25H28.8331V28.333H27.1671V30H25.5001V33.333H23.8331V35H22.1671V38.333H18.8331V35H17.1671V33.333H15.5001V30H13.8331V28.333H12.1671V25H10.5001V23.333H8.83307V20H7.16705V10H8.83307V6.66699H10.5001V5H12.1671V3.33301H15.5001V1.66699H25.5001Z"/>
</mask>
<path d="M25.5001 1.66699V3.33301H28.8331V5H30.5001V6.66699H32.1671V10H33.8331V20H32.1671V23.333H30.5001V25H28.8331V28.333H27.1671V30H25.5001V33.333H23.8331V35H22.1671V38.333H18.8331V35H17.1671V33.333H15.5001V30H13.8331V28.333H12.1671V25H10.5001V23.333H8.83307V20H7.16705V10H8.83307V6.66699H10.5001V5H12.1671V3.33301H15.5001V1.66699H25.5001Z" fill="#3A64F8"/>
<path d="M25.5001 1.66699H26.9286V0.238421H25.5001V1.66699ZM25.5001 3.33301H24.0715V4.76158H25.5001V3.33301ZM28.8331 3.33301H30.2616V1.90444H28.8331V3.33301ZM28.8331 5H27.4045V6.42857H28.8331V5ZM30.5001 5H31.9286V3.57143H30.5001V5ZM30.5001 6.66699H29.0715V8.09556H30.5001V6.66699ZM32.1671 6.66699H33.5956V5.23842H32.1671V6.66699ZM32.1671 10H30.7385V11.4286H32.1671V10ZM33.8331 10H35.2616V8.57143H33.8331V10ZM33.8331 20V21.4286H35.2616V20H33.8331ZM32.1671 20V18.5714H30.7385V20H32.1671ZM32.1671 23.333V24.7616H33.5956V23.333H32.1671ZM30.5001 23.333V21.9044H29.0715V23.333H30.5001ZM30.5001 25V26.4286H31.9286V25H30.5001ZM28.8331 25V23.5714H27.4045V25H28.8331ZM28.8331 28.333V29.7616H30.2616V28.333H28.8331ZM27.1671 28.333V26.9044H25.7385V28.333H27.1671ZM27.1671 30V31.4286H28.5956V30H27.1671ZM25.5001 30V28.5714H24.0715V30H25.5001ZM25.5001 33.333V34.7616H26.9286V33.333H25.5001ZM23.8331 33.333V31.9044H22.4045V33.333H23.8331ZM23.8331 35V36.4286H25.2616V35H23.8331ZM22.1671 35V33.5714H20.7385V35H22.1671ZM22.1671 38.333V39.7616H23.5956V38.333H22.1671ZM18.8331 38.333H17.4045V39.7616H18.8331V38.333ZM18.8331 35H20.2616V33.5714H18.8331V35ZM17.1671 35H15.7385V36.4286H17.1671V35ZM17.1671 33.333H18.5956V31.9044H17.1671V33.333ZM15.5001 33.333H14.0715V34.7616H15.5001V33.333ZM15.5001 30H16.9286V28.5714H15.5001V30ZM13.8331 30H12.4045V31.4286H13.8331V30ZM13.8331 28.333H15.2616V26.9044H13.8331V28.333ZM12.1671 28.333H10.7385V29.7616H12.1671V28.333ZM12.1671 25H13.5956V23.5714H12.1671V25ZM10.5001 25H9.07149V26.4286H10.5001V25ZM10.5001 23.333H11.9286V21.9044H10.5001V23.333ZM8.83307 23.333H7.4045V24.7616H8.83307V23.333ZM8.83307 20H10.2616V18.5714H8.83307V20ZM7.16705 20H5.73848V21.4286H7.16705V20ZM7.16705 10V8.57143H5.73848V10H7.16705ZM8.83307 10V11.4286H10.2616V10H8.83307ZM8.83307 6.66699V5.23842H7.4045V6.66699H8.83307ZM10.5001 6.66699V8.09556H11.9286V6.66699H10.5001ZM10.5001 5V3.57143H9.07149V5H10.5001ZM12.1671 5V6.42857H13.5956V5H12.1671ZM12.1671 3.33301V1.90444H10.7385V3.33301H12.1671ZM15.5001 3.33301V4.76158H16.9286V3.33301H15.5001ZM15.5001 1.66699V0.238421H14.0715V1.66699H15.5001ZM25.5001 1.66699H24.0715V3.33301H25.5001H26.9286V1.66699H25.5001ZM25.5001 3.33301V4.76158H28.8331V3.33301V1.90444H25.5001V3.33301ZM28.8331 3.33301H27.4045V5H28.8331H30.2616V3.33301H28.8331ZM28.8331 5V6.42857H30.5001V5V3.57143H28.8331V5ZM30.5001 5H29.0715V6.66699H30.5001H31.9286V5H30.5001ZM30.5001 6.66699V8.09556H32.1671V6.66699V5.23842H30.5001V6.66699ZM32.1671 6.66699H30.7385V10H32.1671H33.5956V6.66699H32.1671ZM32.1671 10V11.4286H33.8331V10V8.57143H32.1671V10ZM33.8331 10H32.4045V20H33.8331H35.2616V10H33.8331ZM33.8331 20V18.5714H32.1671V20V21.4286H33.8331V20ZM32.1671 20H30.7385V23.333H32.1671H33.5956V20H32.1671ZM32.1671 23.333V21.9044H30.5001V23.333V24.7616H32.1671V23.333ZM30.5001 23.333H29.0715V25H30.5001H31.9286V23.333H30.5001ZM30.5001 25V23.5714H28.8331V25V26.4286H30.5001V25ZM28.8331 25H27.4045V28.333H28.8331H30.2616V25H28.8331ZM28.8331 28.333V26.9044H27.1671V28.333V29.7616H28.8331V28.333ZM27.1671 28.333H25.7385V30H27.1671H28.5956V28.333H27.1671ZM27.1671 30V28.5714H25.5001V30V31.4286H27.1671V30ZM25.5001 30H24.0715V33.333H25.5001H26.9286V30H25.5001ZM25.5001 33.333V31.9044H23.8331V33.333V34.7616H25.5001V33.333ZM23.8331 33.333H22.4045V35H23.8331H25.2616V33.333H23.8331ZM23.8331 35V33.5714H22.1671V35V36.4286H23.8331V35ZM22.1671 35H20.7385V38.333H22.1671H23.5956V35H22.1671ZM22.1671 38.333V36.9044H18.8331V38.333V39.7616H22.1671V38.333ZM18.8331 38.333H20.2616V35H18.8331H17.4045V38.333H18.8331ZM18.8331 35V33.5714H17.1671V35V36.4286H18.8331V35ZM17.1671 35H18.5956V33.333H17.1671H15.7385V35H17.1671ZM17.1671 33.333V31.9044H15.5001V33.333V34.7616H17.1671V33.333ZM15.5001 33.333H16.9286V30H15.5001H14.0715V33.333H15.5001ZM15.5001 30V28.5714H13.8331V30V31.4286H15.5001V30ZM13.8331 30H15.2616V28.333H13.8331H12.4045V30H13.8331ZM13.8331 28.333V26.9044H12.1671V28.333V29.7616H13.8331V28.333ZM12.1671 28.333H13.5956V25H12.1671H10.7385V28.333H12.1671ZM12.1671 25V23.5714H10.5001V25V26.4286H12.1671V25ZM10.5001 25H11.9286V23.333H10.5001H9.07149V25H10.5001ZM10.5001 23.333V21.9044H8.83307V23.333V24.7616H10.5001V23.333ZM8.83307 23.333H10.2616V20H8.83307H7.4045V23.333H8.83307ZM8.83307 20V18.5714H7.16705V20V21.4286H8.83307V20ZM7.16705 20H8.59562V10H7.16705H5.73848V20H7.16705ZM7.16705 10V11.4286H8.83307V10V8.57143H7.16705V10ZM8.83307 10H10.2616V6.66699H8.83307H7.4045V10H8.83307ZM8.83307 6.66699V8.09556H10.5001V6.66699V5.23842H8.83307V6.66699ZM10.5001 6.66699H11.9286V5H10.5001H9.07149V6.66699H10.5001ZM10.5001 5V6.42857H12.1671V5V3.57143H10.5001V5ZM12.1671 5H13.5956V3.33301H12.1671H10.7385V5H12.1671ZM12.1671 3.33301V4.76158H15.5001V3.33301V1.90444H12.1671V3.33301ZM15.5001 3.33301H16.9286V1.66699H15.5001H14.0715V3.33301H15.5001ZM15.5001 1.66699V3.09556H25.5001V1.66699V0.238421H15.5001V1.66699Z" fill="#17171B" mask="url(#path-1-inside-1_6251_10352)"/>
<path d="M15.9684 12.5537H25.0317C25.1024 12.5537 25.1702 12.5256 25.2202 12.4756C25.2702 12.4256 25.2983 12.3578 25.2983 12.2871V9.35485C25.2983 9.07205 25.186 8.80084 24.986 8.60088C24.786 8.40091 24.5148 8.28857 24.232 8.28857H16.7681C16.4853 8.28857 16.2141 8.40091 16.0141 8.60088C15.8141 8.80084 15.7018 9.07205 15.7018 9.35485V12.2871C15.7018 12.3578 15.7299 12.4256 15.7799 12.4756C15.8299 12.5256 15.8977 12.5537 15.9684 12.5537ZM17.8343 9.88799H18.8826C19.0204 9.88595 19.1538 9.93616 19.2561 10.0285C19.3583 10.1209 19.4218 10.2485 19.4338 10.3858C19.4386 10.4587 19.4284 10.5319 19.4038 10.6007C19.3792 10.6695 19.3407 10.7325 19.2907 10.7858C19.2407 10.8391 19.1802 10.8816 19.1132 10.9106C19.0461 10.9396 18.9737 10.9544 18.9006 10.9543H17.8523C17.7146 10.9563 17.5811 10.9061 17.4789 10.8137C17.3766 10.7214 17.3132 10.5937 17.3012 10.4564C17.2964 10.3835 17.3066 10.3104 17.3312 10.2416C17.3558 10.1727 17.3943 10.1097 17.4443 10.0564C17.4943 10.0031 17.5547 9.96064 17.6218 9.93167C17.6889 9.90269 17.7613 9.88782 17.8343 9.88799ZM26.8977 14.1571C26.8982 14.0867 26.8848 14.017 26.8583 13.9518C26.8317 13.8867 26.7925 13.8274 26.743 13.7775C26.6934 13.7276 26.6345 13.6879 26.5695 13.6609C26.5046 13.6339 26.4349 13.6199 26.3646 13.6199H14.6355C14.5652 13.6199 14.4955 13.6339 14.4306 13.6609C14.3656 13.6879 14.3067 13.7276 14.2571 13.7775C14.2075 13.8274 14.1684 13.8867 14.1418 13.9518C14.1152 14.017 14.1018 14.0867 14.1024 14.1571C14.104 15.3265 14.4259 16.4732 15.033 17.4727C15.6402 18.4722 16.5094 19.2864 17.5465 19.827L17.3152 21.4444C17.2803 21.6724 17.3183 21.9057 17.4238 22.1108C17.5139 22.2832 17.6495 22.4277 17.8158 22.5286C17.9822 22.6295 18.1729 22.683 18.3675 22.6833H22.6099C22.8415 22.6864 23.0682 22.6165 23.2577 22.4833C23.4151 22.3695 23.5384 22.2147 23.6143 22.0358C23.6902 21.8569 23.7157 21.6607 23.6882 21.4684L23.4536 19.829C24.491 19.2883 25.3604 18.4738 25.9676 17.4739C26.5747 16.474 26.8964 15.3269 26.8977 14.1571ZM18.3675 21.617L18.5627 20.2508C19.8233 20.6507 21.1768 20.6507 22.4373 20.2508L22.6326 21.617H18.3675Z" fill="white"/>
</svg>
