<svg width="64" height="64" viewBox="0 0 64 64" fill="none" xmlns="http://www.w3.org/2000/svg">
<path d="M32.5 2C20.0781 2 10 11.833 10 23.9728C10 37.8718 24.0859 54.532 29.9688 60.8816C31.3516 62.3728 33.6484 62.3728 35.0312 60.8816C40.9141 54.532 55 37.8718 55 23.9728C55 11.833 44.9219 2 32.5 2Z" fill="#FAFAFA"/>
<path d="M32.5 2C20.0781 2 10 11.833 10 23.9728C10 37.8718 24.0859 54.532 29.9688 60.8816C31.3516 62.3728 33.6484 62.3728 35.0312 60.8816C40.9141 54.532 55 37.8718 55 23.9728C55 11.833 44.9219 2 32.5 2Z" fill="#7E419A" fill-opacity="0.2"/>
<path d="M32.5 2C20.0781 2 10 11.833 10 23.9728C10 37.8718 24.0859 54.532 29.9688 60.8816C31.3516 62.3728 33.6484 62.3728 35.0312 60.8816C40.9141 54.532 55 37.8718 55 23.9728C55 11.833 44.9219 2 32.5 2Z" stroke="#7E419A" stroke-width="2"/>
<path d="M32.7941 43.2799C32.8497 42.9067 33.3975 42.9067 33.4531 43.2799V43.2799C33.7477 45.258 35.1499 46.8084 36.9389 47.1342V47.1342C37.35 47.209 37.35 47.7879 36.9389 47.8628V47.8628C35.1499 48.1886 33.7477 49.739 33.4531 51.7171V51.7171C33.3975 52.0902 32.8497 52.0902 32.7941 51.7171V51.7171C32.4995 49.739 31.0973 48.1886 29.3083 47.8628V47.8628C28.8972 47.7879 28.8972 47.209 29.3083 47.1342V47.1342C31.0973 46.8084 32.4995 45.258 32.7941 43.2799V43.2799Z" fill="#7E419A"/>
<path d="M31 16C31 15.7348 31.1054 15.4804 31.2929 15.2929C31.4804 15.1054 31.7348 15 32 15H34C34.2652 15 34.5196 15.1054 34.7071 15.2929C34.8946 15.4804 35 15.7348 35 16V18C35 19.2982 35.4211 20.5614 36.2 21.6L36.8 22.4C37.5789 23.4386 38 24.7018 38 26V34C38 34.2652 37.8946 34.5196 37.7071 34.7071C37.5196 34.8946 37.2652 35 37 35H29C28.7348 35 28.4804 34.8946 28.2929 34.7071C28.1054 34.5196 28 34.2652 28 34V26C28 24.7018 28.4211 23.4386 29.2 22.4L29.8 21.6C30.5789 20.5614 31 19.2982 31 18V16Z" stroke="#7E419A" stroke-width="2" stroke-linecap="round" stroke-linejoin="round"/>
<path d="M38 26H34C33.7348 26 33.4804 26.1054 33.2929 26.2929C33.1054 26.4804 33 26.7348 33 27V30C33 30.2652 33.1054 30.5196 33.2929 30.7071C33.4804 30.8946 33.7348 31 34 31H38" stroke="#7E419A" stroke-width="2" stroke-linecap="round" stroke-linejoin="round"/>
</svg>
