<svg width="41" height="40" viewBox="0 0 41 40" fill="none" xmlns="http://www.w3.org/2000/svg">
<mask id="path-1-inside-1_6251_10347" fill="white">
<path d="M25.5001 1.66699V3.33301H28.8331V5H30.5001V6.66699H32.1671V10H33.8331V20H32.1671V23.333H30.5001V25H28.8331V28.333H27.1671V30H25.5001V33.333H23.8331V35H22.1671V38.333H18.8331V35H17.1671V33.333H15.5001V30H13.8331V28.333H12.1671V25H10.5001V23.333H8.83307V20H7.16705V10H8.83307V6.66699H10.5001V5H12.1671V3.33301H15.5001V1.66699H25.5001Z"/>
</mask>
<path d="M25.5001 1.66699V3.33301H28.8331V5H30.5001V6.66699H32.1671V10H33.8331V20H32.1671V23.333H30.5001V25H28.8331V28.333H27.1671V30H25.5001V33.333H23.8331V35H22.1671V38.333H18.8331V35H17.1671V33.333H15.5001V30H13.8331V28.333H12.1671V25H10.5001V23.333H8.83307V20H7.16705V10H8.83307V6.66699H10.5001V5H12.1671V3.33301H15.5001V1.66699H25.5001Z" fill="#FC78FF"/>
<path d="M25.5001 1.66699H26.9286V0.238421H25.5001V1.66699ZM25.5001 3.33301H24.0715V4.76158H25.5001V3.33301ZM28.8331 3.33301H30.2616V1.90444H28.8331V3.33301ZM28.8331 5H27.4045V6.42857H28.8331V5ZM30.5001 5H31.9286V3.57143H30.5001V5ZM30.5001 6.66699H29.0715V8.09556H30.5001V6.66699ZM32.1671 6.66699H33.5956V5.23842H32.1671V6.66699ZM32.1671 10H30.7385V11.4286H32.1671V10ZM33.8331 10H35.2616V8.57143H33.8331V10ZM33.8331 20V21.4286H35.2616V20H33.8331ZM32.1671 20V18.5714H30.7385V20H32.1671ZM32.1671 23.333V24.7616H33.5956V23.333H32.1671ZM30.5001 23.333V21.9044H29.0715V23.333H30.5001ZM30.5001 25V26.4286H31.9286V25H30.5001ZM28.8331 25V23.5714H27.4045V25H28.8331ZM28.8331 28.333V29.7616H30.2616V28.333H28.8331ZM27.1671 28.333V26.9044H25.7385V28.333H27.1671ZM27.1671 30V31.4286H28.5956V30H27.1671ZM25.5001 30V28.5714H24.0715V30H25.5001ZM25.5001 33.333V34.7616H26.9286V33.333H25.5001ZM23.8331 33.333V31.9044H22.4045V33.333H23.8331ZM23.8331 35V36.4286H25.2616V35H23.8331ZM22.1671 35V33.5714H20.7385V35H22.1671ZM22.1671 38.333V39.7616H23.5956V38.333H22.1671ZM18.8331 38.333H17.4045V39.7616H18.8331V38.333ZM18.8331 35H20.2616V33.5714H18.8331V35ZM17.1671 35H15.7385V36.4286H17.1671V35ZM17.1671 33.333H18.5956V31.9044H17.1671V33.333ZM15.5001 33.333H14.0715V34.7616H15.5001V33.333ZM15.5001 30H16.9286V28.5714H15.5001V30ZM13.8331 30H12.4045V31.4286H13.8331V30ZM13.8331 28.333H15.2616V26.9044H13.8331V28.333ZM12.1671 28.333H10.7385V29.7616H12.1671V28.333ZM12.1671 25H13.5956V23.5714H12.1671V25ZM10.5001 25H9.07149V26.4286H10.5001V25ZM10.5001 23.333H11.9286V21.9044H10.5001V23.333ZM8.83307 23.333H7.4045V24.7616H8.83307V23.333ZM8.83307 20H10.2616V18.5714H8.83307V20ZM7.16705 20H5.73848V21.4286H7.16705V20ZM7.16705 10V8.57143H5.73848V10H7.16705ZM8.83307 10V11.4286H10.2616V10H8.83307ZM8.83307 6.66699V5.23842H7.4045V6.66699H8.83307ZM10.5001 6.66699V8.09556H11.9286V6.66699H10.5001ZM10.5001 5V3.57143H9.07149V5H10.5001ZM12.1671 5V6.42857H13.5956V5H12.1671ZM12.1671 3.33301V1.90444H10.7385V3.33301H12.1671ZM15.5001 3.33301V4.76158H16.9286V3.33301H15.5001ZM15.5001 1.66699V0.238421H14.0715V1.66699H15.5001ZM25.5001 1.66699H24.0715V3.33301H25.5001H26.9286V1.66699H25.5001ZM25.5001 3.33301V4.76158H28.8331V3.33301V1.90444H25.5001V3.33301ZM28.8331 3.33301H27.4045V5H28.8331H30.2616V3.33301H28.8331ZM28.8331 5V6.42857H30.5001V5V3.57143H28.8331V5ZM30.5001 5H29.0715V6.66699H30.5001H31.9286V5H30.5001ZM30.5001 6.66699V8.09556H32.1671V6.66699V5.23842H30.5001V6.66699ZM32.1671 6.66699H30.7385V10H32.1671H33.5956V6.66699H32.1671ZM32.1671 10V11.4286H33.8331V10V8.57143H32.1671V10ZM33.8331 10H32.4045V20H33.8331H35.2616V10H33.8331ZM33.8331 20V18.5714H32.1671V20V21.4286H33.8331V20ZM32.1671 20H30.7385V23.333H32.1671H33.5956V20H32.1671ZM32.1671 23.333V21.9044H30.5001V23.333V24.7616H32.1671V23.333ZM30.5001 23.333H29.0715V25H30.5001H31.9286V23.333H30.5001ZM30.5001 25V23.5714H28.8331V25V26.4286H30.5001V25ZM28.8331 25H27.4045V28.333H28.8331H30.2616V25H28.8331ZM28.8331 28.333V26.9044H27.1671V28.333V29.7616H28.8331V28.333ZM27.1671 28.333H25.7385V30H27.1671H28.5956V28.333H27.1671ZM27.1671 30V28.5714H25.5001V30V31.4286H27.1671V30ZM25.5001 30H24.0715V33.333H25.5001H26.9286V30H25.5001ZM25.5001 33.333V31.9044H23.8331V33.333V34.7616H25.5001V33.333ZM23.8331 33.333H22.4045V35H23.8331H25.2616V33.333H23.8331ZM23.8331 35V33.5714H22.1671V35V36.4286H23.8331V35ZM22.1671 35H20.7385V38.333H22.1671H23.5956V35H22.1671ZM22.1671 38.333V36.9044H18.8331V38.333V39.7616H22.1671V38.333ZM18.8331 38.333H20.2616V35H18.8331H17.4045V38.333H18.8331ZM18.8331 35V33.5714H17.1671V35V36.4286H18.8331V35ZM17.1671 35H18.5956V33.333H17.1671H15.7385V35H17.1671ZM17.1671 33.333V31.9044H15.5001V33.333V34.7616H17.1671V33.333ZM15.5001 33.333H16.9286V30H15.5001H14.0715V33.333H15.5001ZM15.5001 30V28.5714H13.8331V30V31.4286H15.5001V30ZM13.8331 30H15.2616V28.333H13.8331H12.4045V30H13.8331ZM13.8331 28.333V26.9044H12.1671V28.333V29.7616H13.8331V28.333ZM12.1671 28.333H13.5956V25H12.1671H10.7385V28.333H12.1671ZM12.1671 25V23.5714H10.5001V25V26.4286H12.1671V25ZM10.5001 25H11.9286V23.333H10.5001H9.07149V25H10.5001ZM10.5001 23.333V21.9044H8.83307V23.333V24.7616H10.5001V23.333ZM8.83307 23.333H10.2616V20H8.83307H7.4045V23.333H8.83307ZM8.83307 20V18.5714H7.16705V20V21.4286H8.83307V20ZM7.16705 20H8.59562V10H7.16705H5.73848V20H7.16705ZM7.16705 10V11.4286H8.83307V10V8.57143H7.16705V10ZM8.83307 10H10.2616V6.66699H8.83307H7.4045V10H8.83307ZM8.83307 6.66699V8.09556H10.5001V6.66699V5.23842H8.83307V6.66699ZM10.5001 6.66699H11.9286V5H10.5001H9.07149V6.66699H10.5001ZM10.5001 5V6.42857H12.1671V5V3.57143H10.5001V5ZM12.1671 5H13.5956V3.33301H12.1671H10.7385V5H12.1671ZM12.1671 3.33301V4.76158H15.5001V3.33301V1.90444H12.1671V3.33301ZM15.5001 3.33301H16.9286V1.66699H15.5001H14.0715V3.33301H15.5001ZM15.5001 1.66699V3.09556H25.5001V1.66699V0.238421H15.5001V1.66699Z" fill="#FAFAFA" mask="url(#path-1-inside-1_6251_10347)"/>
<path d="M23.7724 14.9147C23.0834 14.8256 22.4806 14.5584 22.05 14.0238C21.6195 13.4893 21.275 12.8657 21.1889 12.2421C20.8444 12.153 20.5861 11.9749 20.3277 11.7076C19.9832 11.2622 19.811 10.8168 19.7249 10.3713L18.9499 11.1731L18.2609 10.5495C17.7442 9.92589 16.7969 9.92589 16.1941 10.5495L14.0412 12.7766C13.4384 13.4002 13.4384 14.3802 14.0412 15.0038L14.644 15.7165L14.1273 16.251C13.5245 16.8746 13.5245 17.8545 14.1273 18.4781L17.8303 22.3088C18.4332 22.9324 19.3804 22.9324 19.8971 22.3088L25.4086 16.5182C24.978 16.4292 24.5474 16.251 24.2029 15.8946C24.1168 15.5383 23.9446 15.182 23.7724 14.9147ZM14.9885 13.4002L16.7108 11.6185C16.9692 11.3513 17.3998 11.3513 17.572 11.6185L18.0026 12.064L15.5052 14.8256L14.9885 14.2911C14.8163 14.0238 14.8163 13.6675 14.9885 13.4002ZM15.5052 17.5873C15.2469 17.32 15.2469 16.9637 15.5052 16.7855L19.2082 12.8657C19.4666 12.5985 19.811 12.5985 19.9832 12.8657C20.2416 13.133 20.2416 13.4893 19.9832 13.6675L16.2802 17.4982C16.0219 17.7654 15.6774 17.7654 15.5052 17.5873ZM17.0553 19.1908C16.7969 18.9236 16.7969 18.5672 17.0553 18.389L20.7583 14.5584C21.0166 14.2911 21.3611 14.2911 21.5333 14.5584C21.7917 14.8256 21.7917 15.182 21.5333 15.3601L17.8303 19.1908C17.6581 19.4581 17.3136 19.4581 17.0553 19.1908ZM23.1696 16.9637L19.4666 20.8835C19.2082 21.1507 18.8637 21.1507 18.6915 20.8835C18.4332 20.6162 18.4332 20.2599 18.6915 20.0817L22.3945 16.251C22.6529 15.9837 22.9973 15.9837 23.1696 16.251C23.3418 16.3401 23.3418 16.7855 23.1696 16.9637ZM26.9587 13.0439C26.7864 12.8657 26.5281 12.6876 26.3559 12.6876C26.7003 11.7967 26.5281 10.7277 25.8392 10.1041C25.1502 9.39138 24.2029 9.2132 23.3418 9.56955C23.2557 9.30229 23.0834 9.03503 22.9112 8.85686C22.3084 8.23326 21.3611 8.23326 20.8444 8.85686C20.2416 9.48046 20.2416 10.4604 20.8444 11.084C21.1028 11.3513 21.5333 11.5294 21.8778 11.5294C21.7917 12.2421 22.05 12.9548 22.5667 13.4893C23.0834 14.0238 23.7724 14.202 24.4613 14.202C24.4613 14.6474 24.6335 15.0038 24.8919 15.271C25.4947 15.8946 26.442 15.8946 26.9587 15.271C27.5615 14.6474 27.5615 13.6675 26.9587 13.0439Z" fill="white"/>
</svg>
