<svg width="41" height="40" viewBox="0 0 41 40" fill="none" xmlns="http://www.w3.org/2000/svg">
<mask id="path-1-inside-1_6251_10378" fill="white">
<path d="M25.5001 1.66699V3.33301H28.8331V5H30.5001V6.66699H32.1671V10H33.8331V20H32.1671V23.333H30.5001V25H28.8331V28.333H27.1671V30H25.5001V33.333H23.8331V35H22.1671V38.333H18.8331V35H17.1671V33.333H15.5001V30H13.8331V28.333H12.1671V25H10.5001V23.333H8.83313V20H7.16711V10H8.83313V6.66699H10.5001V5H12.1671V3.33301H15.5001V1.66699H25.5001Z"/>
</mask>
<path d="M25.5001 1.66699V3.33301H28.8331V5H30.5001V6.66699H32.1671V10H33.8331V20H32.1671V23.333H30.5001V25H28.8331V28.333H27.1671V30H25.5001V33.333H23.8331V35H22.1671V38.333H18.8331V35H17.1671V33.333H15.5001V30H13.8331V28.333H12.1671V25H10.5001V23.333H8.83313V20H7.16711V10H8.83313V6.66699H10.5001V5H12.1671V3.33301H15.5001V1.66699H25.5001Z" fill="#3A64F8"/>
<path d="M25.5001 1.66699H26.9287V0.238421H25.5001V1.66699ZM25.5001 3.33301H24.0716V4.76158H25.5001V3.33301ZM28.8331 3.33301H30.2617V1.90444H28.8331V3.33301ZM28.8331 5H27.4046V6.42857H28.8331V5ZM30.5001 5H31.9287V3.57143H30.5001V5ZM30.5001 6.66699H29.0716V8.09556H30.5001V6.66699ZM32.1671 6.66699H33.5957V5.23842H32.1671V6.66699ZM32.1671 10H30.7385V11.4286H32.1671V10ZM33.8331 10H35.2617V8.57143H33.8331V10ZM33.8331 20V21.4286H35.2617V20H33.8331ZM32.1671 20V18.5714H30.7385V20H32.1671ZM32.1671 23.333V24.7616H33.5957V23.333H32.1671ZM30.5001 23.333V21.9044H29.0716V23.333H30.5001ZM30.5001 25V26.4286H31.9287V25H30.5001ZM28.8331 25V23.5714H27.4046V25H28.8331ZM28.8331 28.333V29.7616H30.2617V28.333H28.8331ZM27.1671 28.333V26.9044H25.7385V28.333H27.1671ZM27.1671 30V31.4286H28.5957V30H27.1671ZM25.5001 30V28.5714H24.0716V30H25.5001ZM25.5001 33.333V34.7616H26.9287V33.333H25.5001ZM23.8331 33.333V31.9044H22.4046V33.333H23.8331ZM23.8331 35V36.4286H25.2617V35H23.8331ZM22.1671 35V33.5714H20.7385V35H22.1671ZM22.1671 38.333V39.7616H23.5957V38.333H22.1671ZM18.8331 38.333H17.4046V39.7616H18.8331V38.333ZM18.8331 35H20.2617V33.5714H18.8331V35ZM17.1671 35H15.7385V36.4286H17.1671V35ZM17.1671 33.333H18.5957V31.9044H17.1671V33.333ZM15.5001 33.333H14.0716V34.7616H15.5001V33.333ZM15.5001 30H16.9287V28.5714H15.5001V30ZM13.8331 30H12.4046V31.4286H13.8331V30ZM13.8331 28.333H15.2617V26.9044H13.8331V28.333ZM12.1671 28.333H10.7385V29.7616H12.1671V28.333ZM12.1671 25H13.5957V23.5714H12.1671V25ZM10.5001 25H9.07155V26.4286H10.5001V25ZM10.5001 23.333H11.9287V21.9044H10.5001V23.333ZM8.83313 23.333H7.40456V24.7616H8.83313V23.333ZM8.83313 20H10.2617V18.5714H8.83313V20ZM7.16711 20H5.73854V21.4286H7.16711V20ZM7.16711 10V8.57143H5.73854V10H7.16711ZM8.83313 10V11.4286H10.2617V10H8.83313ZM8.83313 6.66699V5.23842H7.40456V6.66699H8.83313ZM10.5001 6.66699V8.09556H11.9287V6.66699H10.5001ZM10.5001 5V3.57143H9.07155V5H10.5001ZM12.1671 5V6.42857H13.5957V5H12.1671ZM12.1671 3.33301V1.90444H10.7385V3.33301H12.1671ZM15.5001 3.33301V4.76158H16.9287V3.33301H15.5001ZM15.5001 1.66699V0.238421H14.0716V1.66699H15.5001ZM25.5001 1.66699H24.0716V3.33301H25.5001H26.9287V1.66699H25.5001ZM25.5001 3.33301V4.76158H28.8331V3.33301V1.90444H25.5001V3.33301ZM28.8331 3.33301H27.4046V5H28.8331H30.2617V3.33301H28.8331ZM28.8331 5V6.42857H30.5001V5V3.57143H28.8331V5ZM30.5001 5H29.0716V6.66699H30.5001H31.9287V5H30.5001ZM30.5001 6.66699V8.09556H32.1671V6.66699V5.23842H30.5001V6.66699ZM32.1671 6.66699H30.7385V10H32.1671H33.5957V6.66699H32.1671ZM32.1671 10V11.4286H33.8331V10V8.57143H32.1671V10ZM33.8331 10H32.4046V20H33.8331H35.2617V10H33.8331ZM33.8331 20V18.5714H32.1671V20V21.4286H33.8331V20ZM32.1671 20H30.7385V23.333H32.1671H33.5957V20H32.1671ZM32.1671 23.333V21.9044H30.5001V23.333V24.7616H32.1671V23.333ZM30.5001 23.333H29.0716V25H30.5001H31.9287V23.333H30.5001ZM30.5001 25V23.5714H28.8331V25V26.4286H30.5001V25ZM28.8331 25H27.4046V28.333H28.8331H30.2617V25H28.8331ZM28.8331 28.333V26.9044H27.1671V28.333V29.7616H28.8331V28.333ZM27.1671 28.333H25.7385V30H27.1671H28.5957V28.333H27.1671ZM27.1671 30V28.5714H25.5001V30V31.4286H27.1671V30ZM25.5001 30H24.0716V33.333H25.5001H26.9287V30H25.5001ZM25.5001 33.333V31.9044H23.8331V33.333V34.7616H25.5001V33.333ZM23.8331 33.333H22.4046V35H23.8331H25.2617V33.333H23.8331ZM23.8331 35V33.5714H22.1671V35V36.4286H23.8331V35ZM22.1671 35H20.7385V38.333H22.1671H23.5957V35H22.1671ZM22.1671 38.333V36.9044H18.8331V38.333V39.7616H22.1671V38.333ZM18.8331 38.333H20.2617V35H18.8331H17.4046V38.333H18.8331ZM18.8331 35V33.5714H17.1671V35V36.4286H18.8331V35ZM17.1671 35H18.5957V33.333H17.1671H15.7385V35H17.1671ZM17.1671 33.333V31.9044H15.5001V33.333V34.7616H17.1671V33.333ZM15.5001 33.333H16.9287V30H15.5001H14.0716V33.333H15.5001ZM15.5001 30V28.5714H13.8331V30V31.4286H15.5001V30ZM13.8331 30H15.2617V28.333H13.8331H12.4046V30H13.8331ZM13.8331 28.333V26.9044H12.1671V28.333V29.7616H13.8331V28.333ZM12.1671 28.333H13.5957V25H12.1671H10.7385V28.333H12.1671ZM12.1671 25V23.5714H10.5001V25V26.4286H12.1671V25ZM10.5001 25H11.9287V23.333H10.5001H9.07155V25H10.5001ZM10.5001 23.333V21.9044H8.83313V23.333V24.7616H10.5001V23.333ZM8.83313 23.333H10.2617V20H8.83313H7.40456V23.333H8.83313ZM8.83313 20V18.5714H7.16711V20V21.4286H8.83313V20ZM7.16711 20H8.59569V10H7.16711H5.73854V20H7.16711ZM7.16711 10V11.4286H8.83313V10V8.57143H7.16711V10ZM8.83313 10H10.2617V6.66699H8.83313H7.40456V10H8.83313ZM8.83313 6.66699V8.09556H10.5001V6.66699V5.23842H8.83313V6.66699ZM10.5001 6.66699H11.9287V5H10.5001H9.07155V6.66699H10.5001ZM10.5001 5V6.42857H12.1671V5V3.57143H10.5001V5ZM12.1671 5H13.5957V3.33301H12.1671H10.7385V5H12.1671ZM12.1671 3.33301V4.76158H15.5001V3.33301V1.90444H12.1671V3.33301ZM15.5001 3.33301H16.9287V1.66699H15.5001H14.0716V3.33301H15.5001ZM15.5001 1.66699V3.09556H25.5001V1.66699V0.238421H15.5001V1.66699Z" fill="#17171B" mask="url(#path-1-inside-1_6251_10378)"/>
<path d="M19.4016 9.62137C19.3748 9.59455 19.3424 9.57393 19.3068 9.56098C19.2711 9.54802 19.2331 9.54303 19.1953 9.54637C19.1575 9.54971 19.1209 9.56129 19.0881 9.5803C19.0553 9.59931 19.0271 9.62528 19.0054 9.65639C18.4582 10.4374 18.1649 11.368 18.1656 12.3216C18.166 12.5259 18.1797 12.73 18.2064 12.9325L13.6989 19.0801C13.5513 19.2796 13.4805 19.5256 13.4995 19.7731C13.5184 20.0205 13.6258 20.2529 13.802 20.4276L14.7286 21.3543C14.9034 21.5305 15.1358 21.6379 15.3832 21.6568C15.6307 21.6757 15.8766 21.605 16.0762 21.4574L22.2244 16.9486C22.4267 16.9757 22.6305 16.9898 22.8346 16.9907C23.7879 16.9916 24.7183 16.6988 25.4992 16.1522C25.5304 16.1305 25.5563 16.1023 25.5753 16.0695C25.5943 16.0366 25.6059 16.0001 25.6093 15.9623C25.6126 15.9245 25.6076 15.8865 25.5947 15.8508C25.5817 15.8152 25.5611 15.7828 25.5343 15.756L19.4016 9.62137ZM19.5708 16.3189L18.5333 17.3564C18.4856 17.4066 18.4283 17.4468 18.3649 17.4745C18.3014 17.5022 18.233 17.517 18.1638 17.5179C18.0946 17.5188 18.0259 17.5058 17.9617 17.4797C17.8976 17.4536 17.8393 17.4149 17.7903 17.366C17.7414 17.317 17.7027 17.2587 17.6766 17.1946C17.6505 17.1304 17.6375 17.0617 17.6384 16.9925C17.6393 16.9232 17.6541 16.8549 17.6818 16.7914C17.7095 16.728 17.7496 16.6707 17.7998 16.623L18.8374 15.5854C18.9355 15.4923 19.0661 15.4411 19.2014 15.4428C19.3367 15.4445 19.4659 15.4991 19.5616 15.5947C19.6572 15.6904 19.7117 15.8196 19.7135 15.9549C19.7152 16.0902 19.664 16.2208 19.5708 16.3189ZM26.6652 14.9856C26.6435 15.0168 26.6153 15.0429 26.5824 15.062C26.5495 15.081 26.5128 15.0927 26.475 15.096C26.4371 15.0993 26.399 15.0943 26.3633 15.0813C26.3276 15.0683 26.2952 15.0476 26.2683 15.0206L20.1357 8.88794C20.1087 8.86112 20.088 8.82872 20.075 8.79301C20.062 8.7573 20.0569 8.71917 20.0603 8.68131C20.0636 8.64345 20.0752 8.60678 20.0943 8.57391C20.1134 8.54103 20.1395 8.51275 20.1707 8.49107C21.069 7.86428 22.1592 7.57359 23.2502 7.66995C24.3413 7.7663 25.3637 8.24355 26.1382 9.01807C26.9127 9.79259 27.39 10.815 27.4863 11.9061C27.5827 12.9971 27.292 14.0873 26.6652 14.9856Z" fill="white"/>
</svg>
