<svg width="64" height="64" viewBox="0 0 64 64" fill="none" xmlns="http://www.w3.org/2000/svg">
<g clip-path="url(#clip0_782_9627)">
<g filter="url(#filter0_g_782_9627)">
<path d="M32 20L36.2426 27.7574L44 32L36.2426 36.2426L32 44L27.7574 36.2426L20 32L27.7574 27.7574L32 20Z" fill="#F893AD"/>
</g>
<g filter="url(#filter1_g_782_9627)">
<path d="M32 2L42.6066 21.3934L62 32L42.6066 42.6066L32 62L21.3934 42.6066L2 32L21.3934 21.3934L32 2Z" fill="#F893AD" fill-opacity="0.2"/>
</g>
<g filter="url(#filter2_g_782_9627)">
<path d="M42.6064 21.3936L62 32L42.6064 42.6064L32 62L21.3936 42.6064L2 32L21.3936 21.3936L32 2L42.6064 21.3936ZM22.9727 22.9727L6.46484 32L22.9727 41.0273L32 57.5342L41.0273 41.0273L57.5342 32L41.0273 22.9727L32 6.46484L22.9727 22.9727Z" fill="#F893AD"/>
</g>
</g>
<defs>
<filter id="filter0_g_782_9627" x="17.5" y="17.5" width="29" height="29" filterUnits="userSpaceOnUse" color-interpolation-filters="sRGB">
<feFlood flood-opacity="0" result="BackgroundImageFix"/>
<feBlend mode="normal" in="SourceGraphic" in2="BackgroundImageFix" result="shape"/>
<feTurbulence type="fractalNoise" baseFrequency="4 4" numOctaves="3" seed="2692" />
<feDisplacementMap in="shape" scale="5.0000004768371582" xChannelSelector="R" yChannelSelector="G" result="displacedImage" width="100%" height="100%" />
<feMerge result="effect1_texture_782_9627">
<feMergeNode in="displacedImage"/>
</feMerge>
</filter>
<filter id="filter1_g_782_9627" x="-4.25" y="-4.25" width="72.5" height="72.5" filterUnits="userSpaceOnUse" color-interpolation-filters="sRGB">
<feFlood flood-opacity="0" result="BackgroundImageFix"/>
<feBlend mode="normal" in="SourceGraphic" in2="BackgroundImageFix" result="shape"/>
<feTurbulence type="fractalNoise" baseFrequency="1.6000000238418579 1.6000000238418579" numOctaves="3" seed="2692" />
<feDisplacementMap in="shape" scale="12.500000953674316" xChannelSelector="R" yChannelSelector="G" result="displacedImage" width="100%" height="100%" />
<feMerge result="effect1_texture_782_9627">
<feMergeNode in="displacedImage"/>
</feMerge>
</filter>
<filter id="filter2_g_782_9627" x="-4.25" y="-4.25" width="72.5" height="72.5" filterUnits="userSpaceOnUse" color-interpolation-filters="sRGB">
<feFlood flood-opacity="0" result="BackgroundImageFix"/>
<feBlend mode="normal" in="SourceGraphic" in2="BackgroundImageFix" result="shape"/>
<feTurbulence type="fractalNoise" baseFrequency="1.6000000238418579 1.6000000238418579" numOctaves="3" seed="2692" />
<feDisplacementMap in="shape" scale="12.500000953674316" xChannelSelector="R" yChannelSelector="G" result="displacedImage" width="100%" height="100%" />
<feMerge result="effect1_texture_782_9627">
<feMergeNode in="displacedImage"/>
</feMerge>
</filter>
<clipPath id="clip0_782_9627">
<rect width="64" height="64" fill="white"/>
</clipPath>
</defs>
</svg>
