<svg width="100%" height="100%" viewBox="0 0 25 24" fill="current" xmlns="http://www.w3.org/2000/svg">
<g id="nrk:hardware-camera">
<path id="Vector" fill-rule="evenodd" clip-rule="evenodd" d="M8.5 5V3H16.5V5H23.5V21H1.5V5H8.5ZM14.5 7H21.5V19H3.5V7H10.5V5H14.5V7ZM14.5 13C14.5 13.5304 14.2893 14.0391 13.9142 14.4142C13.5391 14.7893 13.0304 15 12.5 15C11.9696 15 11.4609 14.7893 11.0858 14.4142C10.7107 14.0391 10.5 13.5304 10.5 13C10.5 12.4696 10.7107 11.9609 11.0858 11.5858C11.4609 11.2107 11.9696 11 12.5 11C13.0304 11 13.5391 11.2107 13.9142 11.5858C14.2893 11.9609 14.5 12.4696 14.5 13ZM16.5 13C16.5 14.0609 16.0786 15.0783 15.3284 15.8284C14.5783 16.5786 13.5609 17 12.5 17C11.4391 17 10.4217 16.5786 9.67157 15.8284C8.92143 15.0783 8.5 14.0609 8.5 13C8.5 11.9391 8.92143 10.9217 9.67157 10.1716C10.4217 9.42143 11.4391 9 12.5 9C13.5609 9 14.5783 9.42143 15.3284 10.1716C16.0786 10.9217 16.5 11.9391 16.5 13Z" fill="current"/>
</g>
</svg>
