<svg width="18" height="18" viewBox="0 0 18 18" fill="current" xmlns="http://www.w3.org/2000/svg">
<path fill-rule="evenodd" clip-rule="evenodd" d="M15.75 9C15.75 9.88642 15.5754 10.7642 15.2362 11.5831C14.897 12.4021 14.3998 13.1462 13.773 13.773C13.1462 14.3998 12.4021 14.897 11.5831 15.2362C10.7642 15.5754 9.88642 15.75 9 15.75C8.11358 15.75 7.23583 15.5754 6.41689 15.2362C5.59794 14.897 4.85382 14.3998 4.22703 13.773C3.60023 13.1462 3.10303 12.4021 2.76381 11.5831C2.42459 10.7642 2.25 9.88642 2.25 9C2.25 7.20979 2.96116 5.4929 4.22703 4.22703C5.4929 2.96116 7.20979 2.25 9 2.25C10.7902 2.25 12.5071 2.96116 13.773 4.22703C15.0388 5.4929 15.75 7.20979 15.75 9ZM9 17.25C13.5562 17.25 17.25 13.5562 17.25 9C17.25 4.44375 13.5562 0.75 9 0.75C4.44375 0.75 0.75 4.44375 0.75 9C0.75 13.5562 4.44375 17.25 9 17.25ZM8.3955 10.5H9.645V10.3035C9.645 10.0865 9.70625 9.873 9.82875 9.663C10.0125 9.348 10.1002 9.25875 10.275 9.08025C10.45 8.90175 10.625 8.718 10.8 8.529C10.975 8.34 11.1237 8.116 11.2462 7.857C11.3687 7.598 11.43 7.3215 11.43 7.0275C11.43 6.3975 11.2077 5.91275 10.7632 5.57325C10.3182 5.23325 9.767 5.0635 9.1095 5.064C8.3465 5.064 7.7375 5.2635 7.2825 5.6625C6.8275 6.0615 6.6 6.6565 6.6 7.4475H7.8915C7.8915 7.0625 7.9965 6.76675 8.2065 6.56025C8.4165 6.35375 8.6895 6.2505 9.0255 6.2505C9.333 6.2505 9.57625 6.3275 9.75525 6.4815C9.93375 6.6355 10.023 6.863 10.023 7.164C10.023 7.36 9.967 7.5525 9.855 7.7415C9.687 8.025 9.60825 8.10525 9.45075 8.2665C9.29325 8.4275 9.134 8.5955 8.973 8.7705C8.80473 8.9561 8.66656 9.1669 8.5635 9.39525C8.451 9.63675 8.395 9.894 8.3955 10.167V10.5ZM9 13.275C9.23869 13.275 9.46761 13.1802 9.6364 13.0114C9.80518 12.8426 9.9 12.6137 9.9 12.375C9.9 12.1363 9.80518 11.9074 9.6364 11.7386C9.46761 11.5698 9.23869 11.475 9 11.475C8.76131 11.475 8.53239 11.5698 8.3636 11.7386C8.19482 11.9074 8.1 12.1363 8.1 12.375C8.1 12.6137 8.19482 12.8426 8.3636 13.0114C8.53239 13.1802 8.76131 13.275 9 13.275Z" fill="current"/>
</svg>
