<svg width="24" height="25" viewBox="0 0 24 25" fill="none" xmlns="http://www.w3.org/2000/svg">
<g id="pixelarticons:sun">
<path id="Vector" d="M13 0.666992H11V4.66699H13V0.666992ZM0 11.667V13.667H4V11.667H0ZM24 11.667V13.667H20V11.667H24ZM13 24.667H11V20.667H13V24.667ZM8 6.66699H16V8.66699H8V6.66699ZM6 8.66699H8V16.667H6V8.66699ZM8 18.667V16.667H16V18.667H8ZM18 16.667H16V8.66699H18V16.667ZM20 2.66699H22V4.66699H20V2.66699ZM20 4.66699V6.66699H18V4.66699H20ZM22 22.667H20V20.667H22V22.667ZM20 20.667H18V18.667H20V20.667ZM4 2.66699H2V4.66699H4V6.66699H6V4.66699H4V2.66699ZM2 22.667H4V20.667H6V18.667H4V20.667H2V22.667Z" fill="#FAFAFA"/>
</g>
</svg>
