<svg width="24" height="25" viewBox="0 0 24 25" fill="none" xmlns="http://www.w3.org/2000/svg">
<g id="pixelarticons:moon">
<path id="Vector" d="M6 2.66699H14V4.66699H12V6.66699H10V4.66699H6V2.66699ZM4 6.66699V4.66699H6V6.66699H4ZM4 16.667H2V6.66699H4V16.667ZM6 18.667H4V16.667H6V18.667ZM8 20.667H6V18.667H8V20.667ZM18 20.667V22.667H8V20.667H18ZM20 18.667V20.667H18V18.667H20ZM18 14.667H20V18.667H22V10.667H20V12.667H18V14.667ZM12 14.667V16.667H18V14.667H12ZM10 12.667H12V14.667H10V12.667ZM10 12.667V6.66699H8V12.667H10Z" fill="#FAFAFA"/>
</g>
</svg>
