<svg width="25" height="24" viewBox="0 0 25 24" fill="none" xmlns="http://www.w3.org/2000/svg">
<path d="M17.5 11H18.5C19.2956 11 20.0587 11.3161 20.6213 11.8787C21.1839 12.4413 21.5 13.2044 21.5 14C21.5 14.7956 21.1839 15.5587 20.6213 16.1213C20.0587 16.6839 19.2956 17 18.5 17H17.5M9.5 12V18M13.5 12V18M14.5 7.5C13.5 7.5 13.06 8 11.5 8C9.94 8 9.5 7.5 8.5 7.5C7.5 7.5 6.78 8 6 8C5.33696 8 4.70107 7.73661 4.23223 7.26777C3.76339 6.79893 3.5 6.16304 3.5 5.5C3.5 4.83696 3.76339 4.20107 4.23223 3.73223C4.70107 3.26339 5.33696 3 6 3C6.78 3 7.57 3.5 8.5 3.5C9.43 3.5 9.94 2 11.5 2C13.06 2 13.5 3.5 14.5 3.5C15.5 3.5 16.22 3 17 3C17.663 3 18.2989 3.26339 18.7678 3.73223C19.2366 4.20107 19.5 4.83696 19.5 5.5C19.5 6.16304 19.2366 6.79893 18.7678 7.26777C18.2989 7.73661 17.663 8 17 8C16.22 8 15.5 7.5 14.5 7.5Z" stroke="#7E419A" stroke-width="2" stroke-linecap="round" stroke-linejoin="round"/>
<path d="M5.5 9V20.1429C5.5 20.6354 5.71071 21.1078 6.08579 21.4561C6.46086 21.8043 6.96957 22 7.5 22H15.5C16.0304 22 16.5391 21.8043 16.9142 21.4561C17.2893 21.1078 17.5 20.6354 17.5 20.1429V9" stroke="#7E419A" stroke-width="2" stroke-linecap="round" stroke-linejoin="round"/>
<path d="M6.5 9H11.7778H16.5V20C16.5 20.5304 16.3829 21.0391 16.1746 21.4142C15.9662 21.7893 15.6836 22 15.3889 22H7.61111C7.31643 22 7.03381 21.7893 6.82544 21.4142C6.61706 21.0391 6.5 20.5304 6.5 20V9Z" fill="#7E419A" stroke="#7E419A" stroke-width="2" stroke-linecap="round" stroke-linejoin="round"/>
<path d="M9.5 12V18" stroke="#F0E7F3" stroke-width="2" stroke-linecap="round"/>
<path d="M13.5 12V18" stroke="#F0E7F3" stroke-width="2" stroke-linecap="round"/>
</svg>

