<svg width="10" height="11" viewBox="0 0 10 11" fill="none" xmlns="http://www.w3.org/2000/svg">
<path d="M7.5 5H8C8.39782 5 8.77936 5.15804 9.06066 5.43934C9.34196 5.72064 9.5 6.10218 9.5 6.5C9.5 6.89782 9.34196 7.27936 9.06066 7.56066C8.77936 7.84196 8.39782 8 8 8H7.5M3.5 5.5V8.5M5.5 5.5V7V8.5M6 3.25C5.5 3.25 5.28 3.5 4.5 3.5C3.72 3.5 3.5 3.25 3 3.25C2.5 3.25 2.14 3.5 1.75 3.5C1.41848 3.5 1.10054 3.3683 0.866117 3.13388C0.631696 2.89946 0.5 2.58152 0.5 2.25C0.5 1.91848 0.631696 1.60054 0.866117 1.36612C1.10054 1.1317 1.41848 1 1.75 1C2.14 1 2.535 1.25 3 1.25C3.465 1.25 3.72 0.5 4.5 0.5C5.28 0.5 5.5 1.25 6 1.25C6.5 1.25 6.86 1 7.25 1C7.58152 1 7.89946 1.1317 8.13388 1.36612C8.3683 1.60054 8.5 1.91848 8.5 2.25C8.5 2.58152 8.3683 2.89946 8.13388 3.13388C7.89946 3.3683 7.58152 3.5 7.25 3.5C6.86 3.5 6.5 3.25 6 3.25Z" stroke="#7E419A" stroke-width="0.975" stroke-linecap="round" stroke-linejoin="round"/>
<path d="M1.5 3.5V9.5C1.5 9.76522 1.60536 10.0196 1.79289 10.2071C1.98043 10.3946 2.23478 10.5 2.5 10.5H6.5C6.76522 10.5 7.01957 10.3946 7.20711 10.2071C7.39464 10.0196 7.5 9.76522 7.5 9.5V3.5" stroke="#7E419A" stroke-width="0.975" stroke-linecap="round" stroke-linejoin="round"/>
</svg>
