<svg width="100%" height="100%" viewBox="0 0 52 51" fill="none" xmlns="http://www.w3.org/2000/svg">
<g filter="url(#filter0_d_2075_10425)">
<path d="M26 2L30.7331 9.88052L38.9754 5.80992L38.6966 14.9983L47.8312 16.03L42.629 23.6091L49.7557 29.4156L41.2818 32.979L44.138 41.7167L35.0828 40.1331L32.7616 49.0278L26 42.8L19.2384 49.0278L16.9172 40.1331L7.86201 41.7167L10.7182 32.979L2.24429 29.4156L9.371 23.6091L4.16883 16.03L13.3034 14.9983L13.0246 5.80992L21.2669 9.88052L26 2Z" fill="#3A64F8"/>
<path fill-rule="evenodd" clip-rule="evenodd" d="M25 14.9373C22.9711 15.1647 21.0798 16.0749 19.6362 17.5185C18.1926 18.9621 17.2824 20.8535 17.055 22.8823H14V24.8823H17.055C17.2824 26.9112 18.1926 28.8025 19.6362 30.2461C21.0798 31.6898 22.9711 32.5999 25 32.8273V35.8823H27V32.8273C29.0289 32.5999 30.9202 31.6898 32.3638 30.2461C33.8074 28.8025 34.7176 26.9112 34.945 24.8823H38V22.8823H34.945C34.7176 20.8535 33.8074 18.9621 32.3638 17.5185C30.9202 16.0749 29.0289 15.1647 27 14.9373V11.8823H25V14.9373ZM26 30.8823C25.0807 30.8823 24.1705 30.7013 23.3212 30.3495C22.4719 29.9977 21.7003 29.4821 21.0503 28.8321C20.4002 28.1821 19.8846 27.4104 19.5328 26.5611C19.1811 25.7118 19 24.8016 19 23.8823C19 22.9631 19.1811 22.0528 19.5328 21.2035C19.8846 20.3543 20.4002 19.5826 21.0503 18.9326C21.7003 18.2826 22.4719 17.767 23.3212 17.4152C24.1705 17.0634 25.0807 16.8823 26 16.8823C27.8565 16.8823 29.637 17.6198 30.9497 18.9326C32.2625 20.2453 33 22.0258 33 23.8823C33 25.7388 32.2625 27.5193 30.9497 28.8321C29.637 30.1448 27.8565 30.8823 26 30.8823ZM26 27.8823C27.0609 27.8823 28.0783 27.4609 28.8284 26.7108C29.5786 25.9606 30 24.9432 30 23.8823C30 22.8215 29.5786 21.804 28.8284 21.0539C28.0783 20.3038 27.0609 19.8823 26 19.8823C24.9391 19.8823 23.9217 20.3038 23.1716 21.0539C22.4214 21.804 22 22.8215 22 23.8823C22 24.9432 22.4214 25.9606 23.1716 26.7108C23.9217 27.4609 24.9391 27.8823 26 27.8823ZM26 25.8823C25.4696 25.8823 24.9609 25.6716 24.5858 25.2965C24.2107 24.9215 24 24.4128 24 23.8823C24 23.3519 24.2107 22.8432 24.5858 22.4681C24.9609 22.093 25.4696 21.8823 26 21.8823C26.5304 21.8823 27.0391 22.093 27.4142 22.4681C27.7893 22.8432 28 23.3519 28 23.8823C28 24.4128 27.7893 24.9215 27.4142 25.2965C27.0391 25.6716 26.5304 25.8823 26 25.8823Z" fill="#FAFAFA"/>
</g>
<defs>
<filter id="filter0_d_2075_10425" x="0.235294" y="0.235294" width="51.5294" height="51.5294" filterUnits="userSpaceOnUse" color-interpolation-filters="sRGB">
<feFlood flood-opacity="0" result="BackgroundImageFix"/>
<feColorMatrix in="SourceAlpha" type="matrix" values="0 0 0 0 0 0 0 0 0 0 0 0 0 0 0 0 0 0 127 0" result="hardAlpha"/>
<feOffset/>
<feGaussianBlur stdDeviation="0.882353"/>
<feComposite in2="hardAlpha" operator="out"/>
<feColorMatrix type="matrix" values="0 0 0 0 0.0686401 0 0 0 0 0.164738 0 0 0 0 0.498551 0 0 0 1 0"/>
<feBlend mode="normal" in2="BackgroundImageFix" result="effect1_dropShadow_2075_10425"/>
<feBlend mode="normal" in="SourceGraphic" in2="effect1_dropShadow_2075_10425" result="shape"/>
</filter>
</defs>
</svg>
