<svg width="24" height="24" viewBox="0 0 24 24" fill="none" xmlns="http://www.w3.org/2000/svg">
<path fill-rule="evenodd" clip-rule="evenodd" d="M10 19C12.3869 19 14.6761 18.0518 16.364 16.364C18.0518 14.6761 19 12.3869 19 10C19 7.61305 18.0518 5.32387 16.364 3.63604C14.6761 1.94821 12.3869 1 10 1C7.61305 1 5.32387 1.94821 3.63604 3.63604C1.94821 5.32387 1 7.61305 1 10C1 12.3869 1.94821 14.6761 3.63604 16.364C5.32387 18.0518 7.61305 19 10 19ZM10 16.882C9.09624 16.882 8.20134 16.704 7.36637 16.3581C6.53141 16.0123 5.77274 15.5054 5.13369 14.8663C4.49464 14.2273 3.98771 13.4686 3.64186 12.6336C3.29601 11.7987 3.118 10.9038 3.118 10C3.118 9.09624 3.29601 8.20134 3.64186 7.36637C3.98771 6.53141 4.49464 5.77274 5.13369 5.13369C5.77274 4.49464 6.53141 3.98771 7.36637 3.64186C8.20134 3.29601 9.09624 3.118 10 3.118C11.8252 3.118 13.5757 3.84307 14.8663 5.13369C16.1569 6.42432 16.882 8.17478 16.882 10C16.882 11.8252 16.1569 13.5757 14.8663 14.8663C13.5757 16.1569 11.8252 16.882 10 16.882ZM15.896 19L18.322 23H20.662L18.235 19H15.896Z" fill="#FAFAFA"/>
</svg>
