<svg width="16" height="16" viewBox="0 0 16 16" fill="none" xmlns="http://www.w3.org/2000/svg">
<path d="M8.33337 0.833374C8.33337 0.700766 8.2807 0.573589 8.18693 0.479821C8.09316 0.386052 7.96598 0.333374 7.83337 0.333374C7.70077 0.333374 7.57359 0.386052 7.47982 0.479821C7.38605 0.573589 7.33337 0.700766 7.33337 0.833374V6.62671L4.29804 3.59004C4.25194 3.54226 4.19679 3.50415 4.1358 3.47791C4.07481 3.45168 4.0092 3.43786 3.94281 3.43725C3.87642 3.43664 3.81058 3.44926 3.74912 3.47437C3.68766 3.49949 3.63182 3.53659 3.58485 3.58351C3.53788 3.63043 3.50073 3.68624 3.47556 3.74768C3.45039 3.80911 3.43771 3.87495 3.43825 3.94134C3.4388 4.00773 3.45256 4.07334 3.47873 4.13436C3.50491 4.19537 3.54297 4.25056 3.59071 4.29671L6.62671 7.33337H0.833374C0.700766 7.33337 0.573589 7.38605 0.479821 7.47982C0.386052 7.57359 0.333374 7.70077 0.333374 7.83337C0.333374 7.96598 0.386052 8.09316 0.479821 8.18693C0.573589 8.2807 0.700766 8.33337 0.833374 8.33337H6.62671L3.59071 11.3687C3.49958 11.463 3.44913 11.5892 3.4502 11.7203C3.45128 11.8514 3.5038 11.9769 3.59647 12.0696C3.68913 12.1624 3.81451 12.215 3.94561 12.2162C4.07671 12.2174 4.20303 12.1671 4.29737 12.076L7.33337 9.04071V14.8334C7.33337 14.966 7.38605 15.0932 7.47982 15.1869C7.57359 15.2807 7.70077 15.3334 7.83337 15.3334C7.96598 15.3334 8.09316 15.2807 8.18693 15.1869C8.2807 15.0932 8.33337 14.966 8.33337 14.8334V9.04004L11.3687 12.076C11.463 12.1672 11.5892 12.2176 11.7203 12.2165C11.8514 12.2155 11.9769 12.1629 12.0696 12.0703C12.1624 11.9776 12.215 11.8522 12.2162 11.7211C12.2174 11.59 12.1671 11.4637 12.076 11.3694L9.04071 8.33337H14.8334C14.966 8.33337 15.0932 8.2807 15.1869 8.18693C15.2807 8.09316 15.3334 7.96598 15.3334 7.83337C15.3334 7.70077 15.2807 7.57359 15.1869 7.47982C15.0932 7.38605 14.966 7.33337 14.8334 7.33337H9.04004L12.076 4.29804C12.1238 4.25194 12.1619 4.19679 12.1882 4.1358C12.2144 4.07481 12.2282 4.0092 12.2288 3.94281C12.2294 3.87642 12.2168 3.81058 12.1917 3.74912C12.1666 3.68766 12.1295 3.63182 12.0826 3.58485C12.0356 3.53788 11.9798 3.50073 11.9184 3.47556C11.857 3.45039 11.7911 3.43771 11.7247 3.43825C11.6584 3.4388 11.5927 3.45256 11.5317 3.47873C11.4707 3.50491 11.4155 3.54297 11.3694 3.59071L8.33337 6.62604V0.833374Z" fill="#7E419A"/>
</svg>
