<svg width="19" height="19" viewBox="0 0 19 19" fill="none" xmlns="http://www.w3.org/2000/svg">
<g id="nrk:time">
<path id="Vector" fill-rule="evenodd" clip-rule="evenodd" d="M16.6411 9.5C16.6411 10.3864 16.4665 11.2642 16.1272 12.0831C15.788 12.9021 15.2908 13.6462 14.664 14.273C14.0372 14.8998 13.2931 15.397 12.4742 15.7362C11.6552 16.0754 10.7775 16.25 9.89105 16.25C9.00463 16.25 8.12689 16.0754 7.30794 15.7362C6.48899 15.397 5.74488 14.8998 5.11808 14.273C4.49129 13.6462 3.99408 12.9021 3.65487 12.0831C3.31565 11.2642 3.14105 10.3864 3.14105 9.5C3.14105 7.70979 3.85221 5.9929 5.11808 4.72703C6.38395 3.46116 8.10084 2.75 9.89105 2.75C11.6813 2.75 13.3982 3.46116 14.664 4.72703C15.9299 5.9929 16.6411 7.70979 16.6411 9.5ZM9.89105 17.75C14.4473 17.75 18.1411 14.0562 18.1411 9.5C18.1411 4.94375 14.4473 1.25 9.89105 1.25C5.3348 1.25 1.64105 4.94375 1.64105 9.5C1.64105 14.0562 5.3348 17.75 9.89105 17.75ZM10.6411 5V9.5H9.14105V5H10.6411Z" fill="white" fill-opacity="0.56"/>
</g>
</svg>
